<svg width="2778" height="855" viewBox="0 0 2778 855" fill="none" xmlns="http://www.w3.org/2000/svg">
<g clip-path="url(#clip0_1959_74)">
<path fill-rule="evenodd" clip-rule="evenodd" d="M357.978 332.176H262.712C259.88 341.075 256.595 347.373 254.775 350.858C254.014 352.318 253.509 353.286 253.403 353.745C255.424 353.792 257.227 354.325 259.061 354.869C260.269 355.226 261.492 355.587 262.8 355.817L282.071 358.046C283.074 358.222 284.037 358.377 284.984 358.53L284.988 358.532C287.019 358.859 288.991 359.179 291.204 359.661C303.746 362.379 313.675 365.453 324.348 370.24C330.796 373.132 336.672 376.221 342.358 380.19L365.995 399.57C366.329 399.938 366.671 400.307 367.016 400.678C369.23 403.057 371.533 405.532 372.343 409C369.774 409.601 366.972 410.544 364.055 411.528C358.619 413.364 352.776 415.335 347.263 415.458C347.812 415.933 347.664 415.847 347.611 415.815C347.601 415.81 347.595 415.806 347.595 415.806C347.592 415.808 347.736 415.912 348.43 416.438L352.415 418.908C352.915 419.207 353.406 419.506 353.892 419.8C358.881 422.815 363.333 425.505 369.475 426.937C369.475 434.697 369.017 436.386 365.011 440.404C356.221 449.225 345.647 455.71 334.368 461.373C314.326 471.434 292.774 475.227 267.039 473.545C265.356 473.436 263.654 473.142 261.969 472.847C260.029 472.509 258.109 472.178 256.269 472.136C256.269 477.977 257.211 484.05 258.132 489.989C258.542 492.642 258.95 495.267 259.267 497.832C260.223 505.541 260.839 513.718 260.959 521.99H355.607C394.724 521.99 426.729 554.021 426.729 593.171C426.729 632.32 394.724 664.351 355.607 664.351H189.657C85.3457 664.351 0 749.768 0 854.166H355.607C499.036 854.166 616.386 737.904 616.386 593.171C616.386 450.81 497.85 332.176 357.978 332.176ZM189.657 231.522V240.964C183.523 245.86 177.917 251.391 173.249 257.698C159.317 276.515 153.607 292.72 150.298 302.112C148.848 306.229 147.859 309.035 146.841 310.18C144.966 312.29 143.123 314.232 140.911 315.72L140.907 315.715C139.931 315.062 139.138 314.197 138.107 313.074C135.787 310.546 132.258 306.697 122.698 300.944C112.087 294.553 100.192 289.389 88.5011 284.965C84.6348 283.499 79.4058 282.06 75.0642 281.2C61.8935 278.591 32.63 275.488 19.102 281.99C19.3213 284.65 21.3678 287.134 23.3231 289.509C24.3146 290.712 25.2828 291.889 25.9772 293.043C27.0449 294.82 27.9659 296.558 28.8702 298.263H28.8704C30.0789 300.543 31.2576 302.765 32.717 304.95C30.2199 304.741 26.9933 303.564 23.6243 302.334C14.6979 299.079 4.77234 295.457 4.77234 308.534C4.77234 322.717 12.5316 343.932 19.5065 355.49C27.2442 368.313 35.1634 380.352 47.0423 389.623C47.6852 390.126 48.2987 390.612 48.908 391.096H48.9097C50.1156 392.053 51.3056 392.999 52.6759 394.025C53.7446 394.825 54.7137 395.506 55.6896 396.189L55.69 396.192C56.7217 396.915 57.7607 397.645 58.9329 398.527C59.9587 399.297 60.8151 399.985 61.6789 400.678L61.681 400.68H61.6812C62.5697 401.394 63.4664 402.114 64.5633 402.937C64.9798 403.25 65.4292 403.555 65.8855 403.866C67.6179 405.043 69.4515 406.289 69.9789 408.273C60.9052 410.388 48.461 423.206 42.6534 430.417C40.4478 433.154 38.4118 435.448 36.4391 437.66C13.4865 405.182 0 365.53 0 322.722V189.815C0 85.4166 85.3457 0 189.657 0H616.386C616.386 104.398 531.04 189.815 426.729 189.815H231.33C208.315 189.815 189.657 208.488 189.657 231.522ZM137.307 512.205C136.51 511.946 135.716 511.682 134.923 511.41C135.54 511.179 136.108 510.998 136.614 510.88C136.848 511.325 137.079 511.765 137.307 512.205ZM122.276 415.451C122.278 361.243 194.04 346.544 215.423 394.644C221.183 407.61 221.218 422.477 215.418 435.538C209.03 449.932 190.552 462.089 172.43 462.089C157.483 462.089 145.923 459.089 135.338 448.291C128.838 441.664 122.276 428.394 122.276 415.451ZM122.276 415.451V415.449V415.454V415.451ZM168.768 385.941C153.201 385.941 141.243 401.604 141.243 416.543C141.243 423.591 145.318 431.763 150.619 436.261C171.089 453.616 199.827 441.21 199.827 415.118C199.827 396.97 184.737 385.941 168.768 385.941ZM199.291 447.316C192.539 452.881 181.464 457.819 169.475 457.819C163.749 457.819 156.466 455.805 152.121 453.975C127.817 443.733 119.964 408.943 137.871 388.235C142.499 382.875 145.468 380.171 152.519 376.673C159.923 372.998 164.564 372.419 173.005 372.419C208.68 372.419 228.599 423.158 199.291 447.316Z" fill="url(#paint0_linear_1959_74)"/>
<path d="M910.471 304.285L887.086 246.276L1014.95 116.319H1100.95L910.471 304.285ZM857.666 379.999V116.319H932.348V379.999H857.666ZM1024.76 379.999L928.199 253.433L977.233 211.244L1110.38 379.999H1024.76Z" fill="url(#paint1_linear_1959_74)"/>
<path d="M1134.97 379.999V179.225H1205.12V379.999H1134.97ZM1170.04 141.18C1157.22 141.18 1147.29 138.292 1140.25 132.516C1133.21 126.489 1129.69 118.077 1129.69 107.278C1129.69 97.2335 1133.21 89.0719 1140.25 82.7938C1147.54 76.2646 1157.47 73 1170.04 73C1182.62 73 1192.42 76.0135 1199.46 82.0405C1206.76 87.8163 1210.4 96.229 1210.4 107.278C1210.4 117.323 1206.76 125.485 1199.46 131.763C1192.17 138.041 1182.37 141.18 1170.04 141.18Z" fill="url(#paint2_linear_1959_74)"/>
<path d="M1260.15 379.999V179.225H1325.78L1328.8 219.908L1314.46 224.428C1316.98 214.885 1321.88 206.472 1329.17 199.19C1336.47 191.656 1345.14 185.755 1355.2 181.486C1365.26 177.216 1375.82 175.082 1386.88 175.082C1401.97 175.082 1414.67 178.221 1424.98 184.499C1435.54 190.526 1443.46 199.692 1448.74 211.997C1454.27 224.051 1457.04 238.867 1457.04 256.446V379.999H1386.88V262.096C1386.88 255.567 1385.88 250.168 1383.87 245.899C1381.85 241.379 1378.84 237.988 1374.81 235.728C1370.79 233.468 1366.01 232.464 1360.48 232.715C1356.21 232.715 1352.18 233.343 1348.41 234.598C1344.89 235.854 1341.75 237.863 1338.98 240.625C1336.21 243.137 1334.08 246.024 1332.57 249.289C1331.31 252.554 1330.68 256.195 1330.68 260.213V379.999H1295.6C1287.05 379.999 1279.76 379.999 1273.73 379.999C1267.94 379.999 1263.42 379.999 1260.15 379.999Z" fill="url(#paint3_linear_1959_74)"/>
<path d="M1603.51 383.766C1580.62 383.766 1560.88 379.371 1544.29 370.582C1527.69 361.541 1514.87 349.236 1505.82 333.667C1496.76 317.846 1492.24 299.891 1492.24 279.801C1492.24 264.733 1494.75 250.796 1499.78 237.988C1504.81 225.181 1511.85 214.132 1520.9 204.84C1529.96 195.297 1540.64 188.015 1552.96 182.992C1565.54 177.719 1579.24 175.082 1594.08 175.082C1608.66 175.082 1621.86 177.593 1633.68 182.616C1645.75 187.638 1656.06 194.795 1664.61 204.087C1673.41 213.378 1680.07 224.302 1684.6 236.858C1689.38 249.415 1691.52 263.226 1691.01 278.294L1690.64 294.115H1532.22L1523.54 259.083H1634.44L1627.65 266.617V259.46C1627.65 253.935 1626.14 249.163 1623.12 245.145C1620.35 240.876 1616.58 237.612 1611.8 235.352C1607.03 233.092 1601.62 231.961 1595.59 231.961C1587.04 231.961 1579.87 233.719 1574.09 237.235C1568.55 240.5 1564.28 245.271 1561.26 251.549C1558.24 257.827 1556.74 265.361 1556.74 274.15C1556.74 284.195 1558.75 292.859 1562.77 300.142C1567.05 307.424 1573.21 313.075 1581.25 317.093C1589.55 321.11 1599.61 323.119 1611.43 323.119C1619.22 323.119 1626.01 322.115 1631.79 320.106C1637.83 318.097 1644.24 314.581 1651.03 309.559L1683.47 355.138C1674.67 362.169 1665.74 367.82 1656.69 372.089C1647.89 376.107 1639.09 378.995 1630.29 380.752C1621.49 382.761 1612.56 383.766 1603.51 383.766Z" fill="url(#paint4_linear_1959_74)"/>
<path d="M1727.58 379.999V179.225H1793.21L1796.22 219.908L1781.89 224.428C1784.4 214.885 1789.31 206.472 1796.6 199.19C1803.89 191.656 1812.57 185.755 1822.63 181.486C1832.68 177.216 1843.25 175.082 1854.31 175.082C1869.4 175.082 1882.09 178.221 1892.4 184.499C1902.97 190.526 1910.89 199.692 1916.17 211.997C1921.7 224.051 1924.47 238.867 1924.47 256.446V379.999H1854.31V262.096C1854.31 255.567 1853.3 250.168 1851.29 245.899C1849.28 241.379 1846.26 237.988 1842.24 235.728C1838.22 233.468 1833.44 232.464 1827.91 232.715C1823.63 232.715 1819.61 233.343 1815.84 234.598C1812.32 235.854 1809.17 237.863 1806.41 240.625C1803.64 243.137 1801.5 246.024 1799.99 249.289C1798.74 252.554 1798.11 256.195 1798.11 260.213V379.999H1763.03C1754.48 379.999 1747.19 379.999 1741.15 379.999C1735.37 379.999 1730.84 379.999 1727.58 379.999Z" fill="url(#paint5_linear_1959_74)"/>
<path d="M2101.86 384.143C2092.56 384.143 2083.76 382.887 2075.46 380.376C2067.16 378.116 2059.74 374.977 2053.21 370.959C2046.67 366.689 2041.26 361.793 2036.99 356.268C2032.71 350.743 2029.95 344.842 2028.69 338.564L2043.02 334.797L2038.12 379.622H1974V101.251H2044.53V227.818L2029.44 222.921C2030.95 216.141 2033.84 209.863 2038.12 204.087C2042.64 198.311 2048.05 193.288 2054.34 189.019C2060.62 184.499 2067.66 181.109 2075.46 178.849C2083.25 176.338 2091.43 175.082 2099.98 175.082C2117.33 175.082 2132.54 179.602 2145.62 188.643C2158.94 197.432 2169.38 209.737 2176.92 225.558C2184.72 241.379 2188.61 259.46 2188.61 279.801C2188.61 300.142 2184.84 318.223 2177.3 334.043C2169.75 349.613 2159.45 361.918 2146.37 370.959C2133.29 379.748 2118.46 384.143 2101.86 384.143ZM2081.49 326.51C2089.54 326.51 2096.33 324.626 2101.86 320.859C2107.65 316.841 2112.05 311.442 2115.06 304.662C2118.33 297.63 2119.97 289.343 2119.97 279.801C2119.97 270.007 2118.46 261.594 2115.44 254.563C2112.42 247.531 2108.02 242.258 2102.24 238.742C2096.46 234.975 2089.54 233.092 2081.49 233.092C2073.45 233.092 2066.53 234.975 2060.75 238.742C2054.97 242.258 2050.44 247.531 2047.17 254.563C2044.15 261.594 2042.64 270.007 2042.64 279.801C2042.64 289.343 2044.15 297.63 2047.17 304.662C2050.44 311.442 2054.97 316.841 2060.75 320.859C2066.53 324.626 2073.45 326.51 2081.49 326.51Z" fill="url(#paint6_linear_1959_74)"/>
<path d="M2229.31 379.999V179.225H2299.47V379.999H2229.31ZM2264.39 141.18C2251.56 141.18 2241.63 138.292 2234.59 132.516C2227.55 126.489 2224.03 118.077 2224.03 107.278C2224.03 97.2335 2227.55 89.0719 2234.59 82.7938C2241.88 76.2646 2251.82 73 2264.39 73C2276.96 73 2286.77 76.0135 2293.81 82.0405C2301.1 87.8163 2304.75 96.229 2304.75 107.278C2304.75 117.323 2301.1 125.485 2293.81 131.763C2286.52 138.041 2276.71 141.18 2264.39 141.18Z" fill="url(#paint7_linear_1959_74)"/>
<path d="M948.19 854.623C929.331 854.623 912.483 852.489 897.647 848.22C883.063 843.951 870.113 837.798 858.797 829.762C847.733 821.726 837.801 812.309 829 801.511L872.753 752.165C885.326 768.488 898.276 779.412 911.603 784.936C924.93 790.21 937.88 792.847 950.453 792.847C955.985 792.847 961.014 792.345 965.54 791.34C970.066 790.085 973.461 788.201 975.724 785.69C978.239 782.927 979.496 779.537 979.496 775.519C979.496 772.004 978.49 768.99 976.478 766.479C974.467 763.968 971.701 761.833 968.18 760.075C964.66 758.066 960.762 756.308 956.488 754.802C952.213 753.295 947.938 752.165 943.664 751.411C939.389 750.407 935.24 749.402 931.217 748.398C916.381 745.133 903.431 740.99 892.367 735.967C881.303 730.945 871.999 725.043 864.455 718.263C857.163 711.232 851.631 703.196 847.859 694.155C844.339 685.115 842.579 674.944 842.579 663.644C842.579 651.339 845.47 640.038 851.254 629.742C857.037 619.446 864.707 610.656 874.262 603.374C883.817 595.84 894.756 590.19 907.077 586.423C919.65 582.405 932.725 580.396 946.304 580.396C964.911 580.396 980.753 582.279 993.829 586.046C1006.9 589.562 1017.84 594.71 1026.64 601.49C1035.7 608.271 1043.49 616.181 1050.03 625.222L1005.52 668.164C1000.24 662.388 994.457 657.617 988.171 653.85C982.136 650.083 975.85 647.32 969.312 645.563C962.774 643.554 956.111 642.549 949.321 642.549C943.035 642.549 937.503 643.177 932.725 644.433C928.199 645.688 924.679 647.572 922.164 650.083C919.65 652.343 918.392 655.482 918.392 659.5C918.392 663.016 919.775 666.155 922.541 668.917C925.307 671.428 928.828 673.563 933.102 675.321C937.377 677.079 941.903 678.585 946.681 679.841C951.71 680.846 956.236 681.724 960.26 682.478C974.09 685.24 986.662 688.882 997.978 693.402C1009.54 697.671 1019.6 703.196 1028.15 709.976C1036.7 716.505 1043.24 724.541 1047.77 734.084C1052.29 743.627 1054.56 754.802 1054.56 767.609C1054.56 786.443 1049.78 802.39 1040.22 815.448C1030.92 828.255 1018.22 838.049 1002.13 844.83C986.285 851.359 968.306 854.623 948.19 854.623Z" fill="url(#paint8_linear_1959_74)"/>
<path d="M1093.29 850.856V650.083H1158.92L1161.56 683.231L1152.88 681.725C1156.41 675.195 1160.55 669.671 1165.33 665.15C1170.11 660.63 1175.39 656.989 1181.17 654.226C1186.96 651.213 1192.87 649.078 1198.9 647.823C1204.94 646.567 1210.72 645.939 1216.25 645.939C1225.56 645.939 1234.1 647.321 1241.9 650.083C1249.95 652.594 1256.99 656.989 1263.02 663.267C1269.31 669.545 1274.46 678.334 1278.49 689.635L1267.55 688.882L1270.57 683.608C1274.34 677.079 1278.74 671.554 1283.77 667.034C1289.05 662.514 1294.83 658.621 1301.12 655.356C1307.4 652.092 1313.82 649.706 1320.35 648.199C1327.14 646.693 1333.56 645.939 1339.59 645.939C1355.93 645.939 1369.64 649.078 1380.7 655.356C1391.77 661.635 1400.07 670.926 1405.6 683.231C1411.13 695.285 1413.9 710.102 1413.9 727.68V850.856H1343.74V733.33C1343.74 726.801 1342.73 721.402 1340.72 717.133C1338.71 712.613 1335.82 709.223 1332.05 706.962C1328.27 704.702 1323.62 703.572 1318.09 703.572C1313.82 703.572 1309.79 704.326 1306.02 705.832C1302.5 707.088 1299.48 709.097 1296.97 711.859C1294.45 714.371 1292.44 717.259 1290.93 720.523C1289.43 723.537 1288.67 727.178 1288.67 731.447V850.856H1218.51V732.954C1218.51 726.676 1217.51 721.402 1215.5 717.133C1213.49 712.864 1210.59 709.599 1206.82 707.339C1203.05 704.828 1198.4 703.572 1192.87 703.572C1188.59 703.572 1184.57 704.326 1180.8 705.832C1177.28 707.088 1174.26 708.971 1171.74 711.483C1169.23 713.994 1167.22 716.882 1165.71 720.146C1164.2 723.411 1163.45 727.052 1163.45 731.07V850.856H1093.29Z" fill="url(#paint9_linear_1959_74)"/>
<path d="M1531.37 855C1516.28 855 1503.46 851.861 1492.89 845.583C1482.33 839.054 1474.29 829.762 1468.75 817.708C1463.22 805.654 1460.46 791.089 1460.46 774.013V650.083H1530.61V766.856C1530.61 773.385 1531.74 778.909 1534.01 783.43C1536.27 787.95 1539.41 791.466 1543.44 793.977C1547.46 796.237 1552.36 797.367 1558.15 797.367C1562.67 797.367 1566.7 796.739 1570.22 795.484C1573.99 794.228 1577.13 792.345 1579.65 789.833C1582.16 787.071 1584.17 784.058 1585.68 780.793C1587.19 777.277 1587.94 773.51 1587.94 769.492V650.083H1658.1V850.856H1593.23L1589.45 810.174L1602.65 805.654C1599.89 814.946 1594.99 823.358 1587.94 830.892C1580.9 838.426 1572.48 844.327 1562.67 848.596C1552.87 852.865 1542.43 855 1531.37 855Z" fill="url(#paint10_linear_1959_74)"/>
<path d="M1711.74 850.856V650.083H1777.37L1780.38 690.765L1766.05 695.285C1768.57 685.742 1773.47 677.33 1780.76 670.047C1788.05 662.514 1796.73 656.612 1806.79 652.343C1816.85 648.074 1827.41 645.939 1838.47 645.939C1853.56 645.939 1866.26 649.078 1876.57 655.356C1887.13 661.383 1895.05 670.549 1900.33 682.855C1905.86 694.909 1908.63 709.725 1908.63 727.303V850.856H1838.47V732.954C1838.47 726.425 1837.46 721.025 1835.45 716.756C1833.44 712.236 1830.42 708.846 1826.4 706.586C1822.38 704.326 1817.6 703.321 1812.07 703.572C1807.79 703.572 1803.77 704.2 1800 705.456C1796.48 706.711 1793.33 708.72 1790.57 711.483C1787.8 713.994 1785.66 716.882 1784.16 720.146C1782.9 723.411 1782.27 727.052 1782.27 731.07V850.856H1747.19C1738.64 850.856 1731.35 850.856 1725.32 850.856C1719.53 850.856 1715.01 850.856 1711.74 850.856Z" fill="url(#paint11_linear_1959_74)"/>
<path d="M2055.09 854.623C2032.21 854.623 2012.47 850.229 1995.88 841.439C1979.28 832.399 1966.46 820.094 1957.4 804.524C1948.35 788.703 1943.83 770.748 1943.83 750.658C1943.83 735.591 1946.34 721.653 1951.37 708.846C1956.4 696.039 1963.44 684.989 1972.49 675.698C1981.54 666.155 1992.23 658.872 2004.55 653.85C2017.12 648.576 2030.83 645.939 2045.66 645.939C2060.25 645.939 2073.45 648.451 2085.27 653.473C2097.34 658.496 2107.65 665.653 2116.2 674.944C2125 684.236 2131.66 695.16 2136.19 707.716C2140.97 720.272 2143.1 734.084 2142.6 749.151L2142.22 764.972H1983.81L1975.13 729.94H2086.02L2079.23 737.474V730.317C2079.23 724.792 2077.73 720.021 2074.71 716.003C2071.94 711.734 2068.17 708.469 2063.39 706.209C2058.61 703.949 2053.21 702.819 2047.17 702.819C2038.62 702.819 2031.46 704.577 2025.67 708.093C2020.14 711.357 2015.87 716.128 2012.85 722.407C2009.83 728.685 2008.32 736.218 2008.32 745.008C2008.32 755.053 2010.34 763.716 2014.36 770.999C2018.63 778.282 2024.79 783.932 2032.84 787.95C2041.14 791.968 2051.2 793.977 2063.01 793.977C2070.81 793.977 2077.6 792.972 2083.38 790.963C2089.42 788.954 2095.83 785.439 2102.62 780.416L2135.06 825.995C2126.26 833.027 2117.33 838.677 2108.28 842.946C2099.48 846.964 2090.67 849.852 2081.87 851.61C2073.07 853.619 2064.15 854.623 2055.09 854.623Z" fill="url(#paint12_linear_1959_74)"/>
<path d="M2179.54 850.856V572.109H2249.7V850.856H2179.54Z" fill="url(#paint13_linear_1959_74)"/>
<path d="M2375.72 854.623C2365.66 854.623 2356.24 853.493 2347.43 851.233C2338.63 849.224 2330.59 846.211 2323.29 842.193C2316 838.175 2309.59 833.278 2304.06 827.502C2298.53 821.475 2293.62 814.82 2289.35 807.538L2331.22 764.219C2333.98 768.237 2336.62 771.878 2339.14 775.143C2341.9 778.156 2344.67 780.667 2347.43 782.676C2350.2 784.434 2353.09 785.941 2356.11 787.197C2359.38 788.201 2362.65 788.703 2365.92 788.703C2370.69 788.703 2374.84 787.573 2378.36 785.313C2382.14 783.053 2385.03 779.914 2387.04 775.896C2389.05 771.878 2390.06 767.107 2390.06 761.582V651.213H2341.4V587.176H2502.83V651.213H2462.1V770.622C2462.1 783.932 2459.83 795.735 2455.31 806.031C2451.03 816.327 2445 825.116 2437.2 832.399C2429.41 839.681 2420.23 845.206 2409.67 848.973C2399.36 852.74 2388.04 854.623 2375.72 854.623Z" fill="url(#paint14_linear_1959_74)"/>
<path d="M2676.91 854.623C2656.3 854.623 2637.31 851.233 2619.96 844.453C2602.61 837.673 2587.52 828.255 2574.7 816.201C2562.13 803.896 2552.32 789.457 2545.28 772.882C2538.49 756.057 2535.09 737.6 2535.09 717.51C2535.09 697.671 2538.61 679.464 2545.66 662.89C2552.95 646.065 2563.01 631.5 2575.83 619.195C2588.65 606.89 2603.87 597.347 2621.47 590.567C2639.07 583.786 2658.31 580.396 2679.18 580.396C2691.75 580.396 2703.95 582.028 2715.76 585.293C2727.83 588.306 2739.15 592.827 2749.71 598.854C2760.27 604.881 2769.7 612.414 2778 621.455L2733.12 673.437C2728.84 668.666 2724.06 664.397 2718.78 660.63C2713.5 656.863 2707.47 653.975 2700.68 651.966C2694.14 649.706 2686.85 648.576 2678.8 648.576C2669.5 648.576 2660.7 650.208 2652.4 653.473C2644.35 656.487 2637.31 661.007 2631.28 667.034C2625.24 673.061 2620.46 680.343 2616.94 688.882C2613.67 697.42 2612.04 707.214 2612.04 718.263C2612.04 728.81 2613.67 738.353 2616.94 746.891C2620.46 755.178 2625.37 762.335 2631.65 768.362C2638.19 774.138 2645.86 778.658 2654.66 781.923C2663.71 785.188 2673.77 786.82 2684.84 786.82C2692.63 786.82 2699.92 785.69 2706.71 783.43C2713.75 781.17 2720.17 778.156 2725.95 774.389C2731.73 770.622 2736.89 766.479 2741.41 761.959L2776.87 818.085C2770.58 825.116 2762.03 831.394 2751.22 836.919C2740.66 842.444 2728.84 846.838 2715.76 850.103C2702.94 853.117 2689.99 854.623 2676.91 854.623Z" fill="url(#paint15_linear_1959_74)"/>
<path d="M640.893 401.577C640.893 404.147 641.682 405.977 643.263 407.064C644.942 408.15 647.264 408.695 650.227 408.695C651.709 408.695 653.239 408.595 654.82 408.398C656.402 408.102 657.784 407.757 658.969 407.36C659.858 408.447 660.599 409.684 661.192 411.068C661.884 412.354 662.229 413.934 662.229 415.813C662.229 419.569 660.796 422.634 657.932 425.007C655.165 427.38 650.227 428.566 643.115 428.566C634.422 428.566 627.705 426.59 622.964 422.634C618.322 418.679 616 412.254 616 403.356V339.887C617.086 339.591 618.618 339.294 620.593 338.997C622.668 338.601 624.842 338.404 627.113 338.404C631.458 338.404 634.818 339.194 637.188 340.777C639.659 342.26 640.893 345.474 640.893 350.416V359.907H660.303C660.895 360.993 661.439 362.379 661.933 364.059C662.525 365.641 662.822 367.421 662.822 369.397C662.822 372.857 662.032 375.378 660.451 376.96C658.969 378.443 656.943 379.185 654.376 379.185H640.893V401.577ZM746.151 426.193C745.162 426.49 743.583 426.787 741.409 427.083C739.335 427.38 737.161 427.528 734.89 427.528C732.716 427.528 730.741 427.38 728.963 427.083C727.285 426.787 725.852 426.193 724.666 425.304C723.481 424.414 722.543 423.228 721.851 421.745C721.258 420.162 720.962 418.137 720.962 415.665V382.744C720.962 378.691 719.925 375.874 717.85 374.291C715.876 372.611 713.405 371.77 710.442 371.77C708.467 371.77 706.59 372.018 704.812 372.512C703.033 373.005 701.6 373.598 700.515 374.291V426.193C699.526 426.49 697.947 426.787 695.773 427.083C693.699 427.38 691.525 427.528 689.254 427.528C687.08 427.528 685.105 427.38 683.327 427.083C681.648 426.787 680.215 426.193 679.03 425.304C677.845 424.414 676.907 423.228 676.215 421.745C675.622 420.162 675.326 418.137 675.326 415.665V329.655C676.412 329.458 677.993 329.21 680.067 328.913C682.241 328.517 684.413 328.32 686.587 328.32C688.761 328.32 690.687 328.469 692.365 328.765C694.143 329.062 695.625 329.655 696.81 330.545C697.996 331.434 698.885 332.669 699.477 334.252C700.17 335.735 700.515 337.711 700.515 340.184V354.716C701.8 354.223 703.726 353.678 706.293 353.085C708.96 352.392 711.875 352.047 715.035 352.047C724.814 352.047 732.42 354.519 737.853 359.462C743.384 364.307 746.151 371.573 746.151 381.261V426.193Z" fill="#363636"/>
</g>
<defs>
<linearGradient id="paint0_linear_1959_74" x1="0" y1="0" x2="616.503" y2="854.515" gradientUnits="userSpaceOnUse">
<stop stop-color="#AAAAAA"/>
<stop offset="1" stop-color="#333333"/>
</linearGradient>
<linearGradient id="paint1_linear_1959_74" x1="1803" y1="1081" x2="1022" y2="-87.5" gradientUnits="userSpaceOnUse">
<stop stop-color="#474747"/>
<stop offset="1" stop-color="#717171"/>
</linearGradient>
<linearGradient id="paint2_linear_1959_74" x1="1803" y1="1081" x2="1022" y2="-87.5" gradientUnits="userSpaceOnUse">
<stop stop-color="#474747"/>
<stop offset="1" stop-color="#717171"/>
</linearGradient>
<linearGradient id="paint3_linear_1959_74" x1="1803" y1="1081" x2="1022" y2="-87.5" gradientUnits="userSpaceOnUse">
<stop stop-color="#474747"/>
<stop offset="1" stop-color="#717171"/>
</linearGradient>
<linearGradient id="paint4_linear_1959_74" x1="1803" y1="1081" x2="1022" y2="-87.5" gradientUnits="userSpaceOnUse">
<stop stop-color="#474747"/>
<stop offset="1" stop-color="#717171"/>
</linearGradient>
<linearGradient id="paint5_linear_1959_74" x1="1803" y1="1081" x2="1022" y2="-87.5" gradientUnits="userSpaceOnUse">
<stop stop-color="#474747"/>
<stop offset="1" stop-color="#717171"/>
</linearGradient>
<linearGradient id="paint6_linear_1959_74" x1="1803" y1="1081" x2="1022" y2="-87.5" gradientUnits="userSpaceOnUse">
<stop stop-color="#474747"/>
<stop offset="1" stop-color="#717171"/>
</linearGradient>
<linearGradient id="paint7_linear_1959_74" x1="1803" y1="1081" x2="1022" y2="-87.5" gradientUnits="userSpaceOnUse">
<stop stop-color="#474747"/>
<stop offset="1" stop-color="#717171"/>
</linearGradient>
<linearGradient id="paint8_linear_1959_74" x1="1803" y1="1081" x2="1022" y2="-87.5" gradientUnits="userSpaceOnUse">
<stop stop-color="#474747"/>
<stop offset="1" stop-color="#717171"/>
</linearGradient>
<linearGradient id="paint9_linear_1959_74" x1="1803" y1="1081" x2="1022" y2="-87.5" gradientUnits="userSpaceOnUse">
<stop stop-color="#474747"/>
<stop offset="1" stop-color="#717171"/>
</linearGradient>
<linearGradient id="paint10_linear_1959_74" x1="1803" y1="1081" x2="1022" y2="-87.5" gradientUnits="userSpaceOnUse">
<stop stop-color="#474747"/>
<stop offset="1" stop-color="#717171"/>
</linearGradient>
<linearGradient id="paint11_linear_1959_74" x1="1803" y1="1081" x2="1022" y2="-87.5" gradientUnits="userSpaceOnUse">
<stop stop-color="#474747"/>
<stop offset="1" stop-color="#717171"/>
</linearGradient>
<linearGradient id="paint12_linear_1959_74" x1="1803" y1="1081" x2="1022" y2="-87.5" gradientUnits="userSpaceOnUse">
<stop stop-color="#474747"/>
<stop offset="1" stop-color="#717171"/>
</linearGradient>
<linearGradient id="paint13_linear_1959_74" x1="1803" y1="1081" x2="1022" y2="-87.5" gradientUnits="userSpaceOnUse">
<stop stop-color="#474747"/>
<stop offset="1" stop-color="#717171"/>
</linearGradient>
<linearGradient id="paint14_linear_1959_74" x1="1803" y1="1081" x2="1022" y2="-87.5" gradientUnits="userSpaceOnUse">
<stop stop-color="#474747"/>
<stop offset="1" stop-color="#717171"/>
</linearGradient>
<linearGradient id="paint15_linear_1959_74" x1="1803" y1="1081" x2="1022" y2="-87.5" gradientUnits="userSpaceOnUse">
<stop stop-color="#474747"/>
<stop offset="1" stop-color="#717171"/>
</linearGradient>
<clipPath id="clip0_1959_74">
<rect width="2778" height="855" fill="white"/>
</clipPath>
</defs>
</svg>
