<svg width="634" height="711" viewBox="0 0 634 711" fill="none" xmlns="http://www.w3.org/2000/svg">
<g filter="url(#filter0_d_1118_95)">
<path d="M316.8 62.7998L566.8 207.137V495.813L316.8 640.15L66.8 495.813V207.137L316.8 62.7998Z" fill="white"/>
<mask id="mask0_1118_95" style="mask-type:alpha" maskUnits="userSpaceOnUse" x="93" y="93" width="448" height="517">
<path d="M316.8 93.1865L540.484 222.331V480.619L316.8 609.763L93.1158 480.619V222.331L316.8 93.1865Z" fill="white"/>
</mask>
<g mask="url(#mask0_1118_95)">
<path d="M343.749 -44.1511L566.639 -308.199C581.612 -327.15 603.787 -310.284 603.787 -279.817V464.358C603.787 475.42 600.644 485.757 595.214 492.649L343.749 763.95C339.577 769.21 334.547 771.93 329.461 771.93V-36.1716C334.49 -36.1716 339.577 -38.8012 343.749 -44.1511Z" fill="#4961C3"/>
<path fill-rule="evenodd" clip-rule="evenodd" d="M408.795 264.76C408.795 246.442 433.064 241.475 440.295 257.728C442.243 262.109 442.255 267.133 440.294 271.546C438.134 276.409 431.885 280.518 425.757 280.518C420.702 280.518 416.792 279.503 413.213 275.855C411.014 273.616 408.795 269.132 408.795 264.758V264.76ZM415.096 231.059C414.023 230.339 413.608 228.876 408.938 226.068C405.35 223.908 401.327 222.163 397.374 220.668C396.066 220.172 394.298 219.686 392.83 219.396C388.376 218.514 378.479 217.466 373.905 219.663C374.016 221.017 375.532 222.238 376.23 223.398C377.073 224.8 377.646 226.131 378.509 227.421C375.427 227.164 369.059 222.546 369.059 228.632C369.059 233.425 371.683 240.593 374.041 244.498C376.658 248.831 379.336 252.899 383.353 256.032C384.001 256.537 384.561 256.997 385.259 257.519C386.002 258.075 386.603 258.461 387.374 259.04C388.078 259.568 388.547 259.982 389.279 260.53C389.954 261.038 390.885 261.487 391.11 262.333C388.041 263.048 383.833 267.379 381.869 269.816C379.685 272.524 377.994 273.945 375.89 277.167L373.039 281.831C370.77 285.659 366.569 294.242 367.607 298.701C370.923 298.701 372.71 297.553 375.604 297.489C374.435 299.699 372.211 303.925 372.211 306.217C372.211 307.569 382.197 307.672 384.083 307.672C391.045 307.672 401.632 304.114 407.056 300.595C408.482 299.671 412.019 297.383 413.644 297.004C414.498 298.618 415.234 300.166 415.857 302.063C417.006 305.561 418.73 309.198 420.625 312.326C421.134 313.168 421.424 313.757 421.981 314.606C422.953 316.085 423.867 317.708 425.091 319.01C428.741 322.889 434.597 329.489 439.812 330.705C441.289 328.498 441.881 325.339 442.575 322.559L443.446 319.552C443.66 320.469 443.919 320.983 444.277 321.874C445.31 324.446 445.927 326.172 448.535 327.553C449.47 325.785 450.694 324.178 451.479 322.254C451.858 321.321 452.3 320.398 452.685 319.338C453.053 318.32 453.331 317.438 453.717 316.25C456.03 309.12 456.064 300.182 455.123 292.595C454.775 289.788 454.108 286.768 454.108 283.913C455.272 283.938 456.526 284.309 457.751 284.389C466.453 284.956 473.742 283.675 480.519 280.276C484.334 278.363 487.91 276.171 490.883 273.19C492.237 271.832 492.392 271.262 492.392 268.64C490.112 268.109 488.521 267.065 486.623 265.927L485.275 265.093C484.698 264.656 485.246 265.078 484.881 264.761C487.745 264.698 490.874 263.159 493.362 262.579C493.045 261.225 492.054 260.318 491.215 259.392L483.221 252.844C481.299 251.503 479.312 250.46 477.131 249.482C473.522 247.865 470.164 246.826 465.923 245.907C464.823 245.669 463.9 245.548 462.834 245.362L456.317 244.609C455.205 244.414 454.273 243.935 453.14 243.908C453.275 243.325 455.319 240.309 456.726 235.133C458.894 227.164 459.341 217.652 456.292 209.963C455.302 207.466 453.747 203.751 451.442 202.208C449.657 202.685 446.029 207.995 444.174 209.239C444.174 206.673 444.658 204.024 444.658 201.238C444.658 200.402 444.479 200.299 444.415 199.541C441.469 199.541 438.577 201.152 436.276 202.55C432.394 204.907 428.746 207.793 426.033 211.455C419.257 220.599 418.233 227.919 417.103 229.188C416.469 229.901 415.845 230.558 415.098 231.06L415.096 231.059Z" fill="white"/>
<path fill-rule="evenodd" clip-rule="evenodd" d="M415.209 265.126C415.209 260.079 419.253 254.786 424.517 254.786C429.918 254.786 435.021 258.513 435.021 264.645C435.021 273.461 425.302 277.653 418.38 271.788C416.587 270.269 415.209 267.508 415.209 265.126ZM424.757 279.073C428.811 279.073 432.556 277.405 434.839 275.524C444.751 267.361 438.015 250.217 425.95 250.217C423.096 250.217 421.526 250.412 419.022 251.654C416.638 252.837 415.634 253.751 414.069 255.561C408.013 262.558 410.669 274.313 418.888 277.774C420.357 278.393 422.82 279.073 424.757 279.073Z" fill="white"/>
</g>
<path d="M202.464 259.342L251.813 252.778L253.19 262.016L203.923 268.661L202.464 259.342ZM233.013 237.139L240.306 232.602C244.52 236.491 249.625 241.92 251.894 245.729L244.115 250.753C242.089 247.025 237.146 241.272 233.013 237.139ZM198.008 232.683L207.245 235.762C201.168 250.104 191.282 265.095 181.153 274.414C180.181 272.064 177.426 266.878 175.724 264.528C184.475 256.992 192.984 244.918 198.008 232.683ZM189.58 255.939L199.547 246.053L199.628 246.215V307.961H189.58V255.939ZM217.617 233.25H227.503C228.07 267.931 232.77 294.834 242.575 296.211C244.439 296.373 245.492 292.16 246.059 283.246C247.923 285.272 252.299 287.865 254.082 288.756C251.975 304.477 247.599 308.204 243.061 307.961C223.857 306.178 219.076 277.412 217.617 233.25Z" fill="#4961C3"/>
<path d="M182.45 318.414H248.815V326.679H182.45V318.414ZM186.177 330.812H245.654V338.591H186.177V330.812ZM179.451 343.048H251.408V351.313H179.451V343.048ZM210.325 313.066H220.21V350.016H210.325V313.066ZM210.406 346.127L218.833 350.097C210.162 359.416 195.82 367.6 182.612 371.733C181.153 369.383 178.398 365.818 176.372 363.792C189.175 360.469 203.275 353.501 210.406 346.127ZM224.424 347.666C228.638 363.792 237.632 375.541 254.325 380.322C252.137 382.267 249.382 386.319 248.004 388.993C229.853 382.672 220.859 369.221 215.592 349.368L224.424 347.666ZM243.142 352.528L251.164 358.606C245.087 362.981 237.794 367.438 232.203 370.193L226.045 365.007C231.474 361.847 238.767 356.661 243.142 352.528ZM184.962 379.998C194.766 378.296 209.676 375.217 223.533 372.219L224.424 380.97C211.702 383.888 197.927 386.886 187.879 389.074L184.962 379.998ZM196.063 363.549L202.464 357.147L205.787 358.039V381.376H196.063V363.549Z" fill="#4961C3"/>
<path d="M182.45 458.275C196.954 457.869 219.481 457.059 239.901 456.168L239.577 465.081C219.724 466.216 198.332 467.188 183.746 467.755L182.45 458.275ZM182.044 434.127H249.463V443.203H182.044V434.127ZM196.468 418.569H234.472V427.483H196.468V418.569ZM201.897 440.043L212.999 443.122C209.19 450.739 204.814 459.166 201.168 464.595L192.66 461.759C195.982 455.844 199.871 446.849 201.897 440.043ZM221.993 448.389L230.582 443.932C237.875 450.171 245.411 458.68 249.139 464.838L240.144 470.267C236.741 464.109 228.962 454.871 221.993 448.389ZM215.429 403.578C208.866 412.816 196.225 423.188 182.774 429.589C181.639 427.24 179.046 423.593 177.021 421.486C190.877 415.409 203.842 403.821 209.838 394.26H220.129C228.719 406.171 241.603 415.409 254.487 420.028C252.137 422.459 249.949 425.943 248.166 428.86C236.012 423.188 222.317 412.978 215.429 403.578Z" fill="#4961C3"/>
</g>
<defs>
<filter id="filter0_d_1118_95" x="4.57764e-05" y="-0.000198364" width="633.6" height="710.951" filterUnits="userSpaceOnUse" color-interpolation-filters="sRGB">
<feFlood flood-opacity="0" result="BackgroundImageFix"/>
<feColorMatrix in="SourceAlpha" type="matrix" values="0 0 0 0 0 0 0 0 0 0 0 0 0 0 0 0 0 0 127 0" result="hardAlpha"/>
<feOffset dy="4"/>
<feGaussianBlur stdDeviation="33.4"/>
<feComposite in2="hardAlpha" operator="out"/>
<feColorMatrix type="matrix" values="0 0 0 0 0 0 0 0 0 0 0 0 0 0 0 0 0 0 0.25 0"/>
<feBlend mode="normal" in2="BackgroundImageFix" result="effect1_dropShadow_1118_95"/>
<feBlend mode="normal" in="SourceGraphic" in2="effect1_dropShadow_1118_95" result="shape"/>
</filter>
</defs>
</svg>
