<svg width="500" height="578" viewBox="0 0 500 578" fill="none" xmlns="http://www.w3.org/2000/svg">
<path d="M250 0L500 144.338V433.013L250 577.35L0 433.013V144.338L250 0Z" fill="white"/>
<mask id="mask0_1118_95" style="mask-type:alpha" maskUnits="userSpaceOnUse" x="26" y="30" width="448" height="517">
<path d="M250 30.3867L473.684 159.531V417.819L250 546.963L26.3158 417.819V159.531L250 30.3867Z" fill="white"/>
</mask>
<g mask="url(#mask0_1118_95)">
<path d="M276.949 -106.951L499.839 -370.998C514.812 -389.95 536.987 -373.084 536.987 -342.617V401.558C536.987 412.621 533.844 422.958 528.414 429.849L276.949 701.151C272.777 706.41 267.747 709.13 262.661 709.13V-98.9714C267.69 -98.9714 272.777 -101.601 276.949 -106.951Z" fill="#4961C3"/>
<path fill-rule="evenodd" clip-rule="evenodd" d="M341.995 201.96C341.995 183.643 366.264 178.675 373.495 194.928C375.443 199.309 375.455 204.333 373.494 208.746C371.334 213.609 365.085 217.718 358.956 217.718C353.902 217.718 349.992 216.704 346.413 213.056C344.214 210.816 341.995 206.332 341.995 201.958V201.96ZM348.296 168.259C347.223 167.54 346.808 166.076 342.138 163.268C338.55 161.108 334.527 159.363 330.574 157.868C329.266 157.373 327.498 156.886 326.03 156.596C321.576 155.714 311.679 154.666 307.105 156.863C307.216 158.218 308.732 159.438 309.43 160.598C310.273 162 310.846 163.331 311.709 164.621C308.627 164.364 302.259 159.746 302.259 165.833C302.259 170.625 304.883 177.794 307.241 181.698C309.858 186.031 312.536 190.099 316.553 193.232C317.201 193.737 317.761 194.197 318.458 194.719C319.202 195.275 319.803 195.661 320.574 196.24C321.278 196.768 321.747 197.182 322.478 197.731C323.154 198.238 324.085 198.687 324.31 199.534C321.241 200.248 317.033 204.579 315.069 207.016C312.885 209.724 311.194 211.145 309.09 214.367L306.239 219.031C303.97 222.86 299.769 231.442 300.807 235.901C304.123 235.901 305.91 234.753 308.804 234.689C307.635 236.899 305.411 241.125 305.411 243.417C305.411 244.769 315.397 244.872 317.283 244.872C324.245 244.872 334.832 241.314 340.256 237.795C341.682 236.871 345.218 234.583 346.844 234.204C347.698 235.819 348.434 237.366 349.057 239.263C350.206 242.762 351.93 246.398 353.825 249.526C354.334 250.368 354.624 250.957 355.181 251.806C356.153 253.285 357.067 254.908 358.291 256.21C361.941 260.089 367.797 266.689 373.012 267.905C374.489 265.698 375.081 262.539 375.775 259.759L376.646 256.752C376.86 257.669 377.119 258.183 377.477 259.074C378.51 261.646 379.127 263.372 381.735 264.754C382.67 262.985 383.894 261.378 384.679 259.454C385.058 258.521 385.5 257.598 385.885 256.538C386.252 255.52 386.531 254.638 386.917 253.45C389.23 246.32 389.264 237.383 388.323 229.795C387.975 226.989 387.308 223.968 387.308 221.113C388.471 221.138 389.726 221.509 390.951 221.589C399.653 222.157 406.942 220.876 413.719 217.476C417.534 215.563 421.109 213.371 424.083 210.39C425.437 209.033 425.592 208.462 425.592 205.84C423.312 205.309 421.721 204.265 419.823 203.127L418.475 202.293C417.898 201.856 418.446 202.278 418.081 201.961C420.945 201.898 424.073 200.359 426.562 199.78C426.245 198.425 425.254 197.518 424.415 196.593L416.421 190.045C414.498 188.703 412.512 187.66 410.331 186.682C406.722 185.065 403.364 184.026 399.123 183.108C398.023 182.869 397.1 182.748 396.034 182.562L389.517 181.809C388.405 181.614 387.473 181.135 386.34 181.109C386.475 180.525 388.519 177.509 389.926 172.333C392.094 164.364 392.541 154.852 389.492 147.163C388.502 144.666 386.947 140.951 384.642 139.408C382.857 139.885 379.229 145.195 377.374 146.439C377.374 143.873 377.858 141.224 377.858 138.438C377.858 137.602 377.679 137.499 377.615 136.741C374.669 136.741 371.777 138.352 369.476 139.75C365.594 142.107 361.946 144.993 359.233 148.655C352.457 157.799 351.432 165.119 350.303 166.388C349.668 167.102 349.045 167.758 348.298 168.26L348.296 168.259Z" fill="white"/>
<path fill-rule="evenodd" clip-rule="evenodd" d="M348.409 202.326C348.409 197.279 352.453 191.986 357.717 191.986C363.118 191.986 368.221 195.713 368.221 201.845C368.221 210.661 358.502 214.853 351.58 208.989C349.787 207.47 348.409 204.708 348.409 202.326ZM357.956 216.273C362.011 216.273 365.756 214.605 368.039 212.725C377.951 204.562 371.215 187.417 359.15 187.417C356.296 187.417 354.726 187.613 352.222 188.854C349.838 190.037 348.834 190.951 347.269 192.761C341.213 199.758 343.869 211.514 352.088 214.975C353.557 215.593 356.02 216.273 357.956 216.273Z" fill="white"/>
</g>
<path d="M135.664 196.542L185.013 189.979L186.39 199.216L137.123 205.861L135.664 196.542ZM166.213 174.34L173.506 169.802C177.72 173.691 182.825 179.12 185.094 182.929L177.315 187.953C175.289 184.225 170.346 178.472 166.213 174.34ZM131.208 169.883L140.445 172.962C134.368 187.305 124.482 202.295 114.353 211.614C113.381 209.264 110.626 204.078 108.924 201.728C117.675 194.192 126.184 182.119 131.208 169.883ZM122.78 193.139L132.747 183.253L132.828 183.415V245.161H122.78V193.139ZM150.817 170.45H160.703C161.27 205.132 165.97 232.034 175.775 233.412C177.639 233.574 178.692 229.36 179.259 220.447C181.123 222.472 185.499 225.065 187.282 225.957C185.175 241.677 180.799 245.404 176.261 245.161C157.057 243.378 152.276 214.612 150.817 170.45Z" fill="#4961C3"/>
<path d="M115.65 255.614H182.014V263.879H115.65V255.614ZM119.377 268.012H178.854V275.791H119.377V268.012ZM112.651 280.248H184.607V288.513H112.651V280.248ZM143.524 250.266H153.41V287.217H143.524V250.266ZM143.605 283.327L152.033 287.298C143.362 296.616 129.02 304.8 115.812 308.933C114.353 306.583 111.598 303.018 109.572 300.992C122.375 297.67 136.475 290.701 143.605 283.327ZM157.624 284.867C161.838 300.992 170.832 312.742 187.525 317.522C185.337 319.467 182.582 323.519 181.204 326.193C163.053 319.872 154.059 306.421 148.792 286.568L157.624 284.867ZM176.342 289.729L184.364 295.806C178.287 300.182 170.994 304.638 165.403 307.393L159.245 302.207C164.674 299.047 171.967 293.861 176.342 289.729ZM118.162 317.198C127.966 315.497 142.876 312.417 156.733 309.419L157.624 318.171C144.902 321.088 131.127 324.086 121.079 326.274L118.162 317.198ZM129.263 300.749L135.664 294.347L138.987 295.239V318.576H129.263V300.749Z" fill="#4961C3"/>
<path d="M115.65 395.475C130.154 395.07 152.681 394.259 173.101 393.368L172.777 402.282C152.924 403.416 131.532 404.388 116.946 404.956L115.65 395.475ZM115.244 371.327H182.663V380.403H115.244V371.327ZM129.668 355.769H167.672V364.683H129.668V355.769ZM135.097 377.243L146.198 380.322C142.39 387.939 138.014 396.366 134.368 401.795L125.86 398.959C129.182 393.044 133.071 384.049 135.097 377.243ZM155.193 385.589L163.782 381.132C171.075 387.372 178.611 395.88 182.339 402.038L173.344 407.468C169.941 401.309 162.162 392.072 155.193 385.589ZM148.629 340.778C142.066 350.016 129.425 360.388 115.974 366.79C114.839 364.44 112.246 360.793 110.22 358.686C124.077 352.609 137.042 341.022 143.038 331.46H153.329C161.919 343.372 174.803 352.609 187.687 357.228C185.337 359.659 183.149 363.143 181.366 366.06C169.211 360.388 155.517 350.178 148.629 340.778Z" fill="#4961C3"/>
</svg>
