<svg width="136" height="27" viewBox="0 0 136 27" fill="none" xmlns="http://www.w3.org/2000/svg">
<path d="M7.29581 26.8641C6.16668 26.8641 5.03757 26.6991 3.90846 26.3691C2.79672 26.039 1.89343 25.6134 1.1986 25.0923L2.65775 22.174C3.02254 22.4172 3.42208 22.6256 3.85635 22.7993C4.30799 22.9904 4.77701 23.1381 5.26339 23.2423C5.74978 23.3465 6.24485 23.3986 6.74862 23.3986C7.63454 23.3986 8.35543 23.2684 8.9113 23.0078C9.46717 22.7472 9.88407 22.3477 10.162 21.8092C10.4399 21.2881 10.5789 20.628 10.5789 19.8289V17.5099L11.3867 17.6402C11.2651 18.2134 10.9611 18.7345 10.4747 19.2036C10.0057 19.6726 9.42374 20.0547 8.72891 20.35C8.03407 20.628 7.29581 20.7669 6.5141 20.7669C5.26339 20.7669 4.14297 20.4803 3.15283 19.9071C2.18005 19.3165 1.40705 18.5087 0.833801 17.4838C0.277938 16.4416 0 15.243 0 13.8881C0 12.4984 0.277938 11.2737 0.833801 10.2141C1.38968 9.13711 2.154 8.29462 3.12677 7.68664C4.09954 7.06128 5.19391 6.74861 6.40987 6.74861C6.93102 6.74861 7.42609 6.8094 7.8951 6.931C8.38149 7.0526 8.82445 7.21762 9.22398 7.42607C9.64088 7.61715 10.0057 7.85166 10.3183 8.12959C10.6484 8.39016 10.909 8.67678 11.1 8.98945C11.3085 9.30213 11.4475 9.62349 11.5169 9.95354L10.6571 10.162L10.8134 7.03523H14.774V19.7507C14.774 20.8799 14.6003 21.8787 14.2529 22.7472C13.9228 23.6331 13.4277 24.3801 12.7676 24.9881C12.1249 25.6134 11.3432 26.0824 10.4226 26.3951C9.50191 26.7078 8.45966 26.8641 7.29581 26.8641ZM7.40003 17.5359C8.0775 17.5359 8.65942 17.3883 9.14581 17.093C9.64957 16.7803 10.0317 16.3547 10.2923 15.8162C10.5702 15.2777 10.7092 14.6437 10.7092 13.9141C10.7092 13.1845 10.5702 12.5505 10.2923 12.012C10.0317 11.4561 9.64957 11.0305 9.14581 10.7352C8.65942 10.4226 8.0775 10.2662 7.40003 10.2662C6.73994 10.2662 6.16668 10.4226 5.6803 10.7352C5.19391 11.0305 4.81175 11.4561 4.53381 12.012C4.27325 12.5505 4.14297 13.1845 4.14297 13.9141C4.14297 14.6437 4.27325 15.2777 4.53381 15.8162C4.81175 16.3547 5.19391 16.7803 5.6803 17.093C6.16668 17.3883 6.73994 17.5359 7.40003 17.5359ZM23.5014 21.1057C22.3376 21.1057 21.2953 20.8017 20.3747 20.1937C19.4714 19.5683 18.7505 18.7172 18.212 17.6402C17.6735 16.5458 17.4042 15.3125 17.4042 13.9402C17.4042 12.5331 17.6735 11.2911 18.212 10.2141C18.7505 9.13711 19.4887 8.29462 20.4268 7.68664C21.3648 7.06128 22.4331 6.74861 23.6317 6.74861C24.2918 6.74861 24.8911 6.84415 25.4296 7.03523C25.9855 7.22631 26.4719 7.49555 26.8888 7.84297C27.3057 8.17302 27.6618 8.56387 27.9571 9.01551C28.2524 9.44978 28.4695 9.9188 28.6085 10.4226L27.7486 10.3183V7.03523H31.8916V20.8712H27.6705V17.5359L28.6085 17.5099C28.4695 17.9963 28.2437 18.4566 27.931 18.8909C27.6183 19.3252 27.2362 19.7073 26.7845 20.0374C26.3329 20.3674 25.8291 20.628 25.2733 20.8191C24.7174 21.0101 24.1268 21.1057 23.5014 21.1057ZM24.6479 17.5881C25.2906 17.5881 25.8465 17.4404 26.3155 17.1451C26.7845 16.8498 27.1493 16.4329 27.4099 15.8944C27.6705 15.3385 27.8007 14.6871 27.8007 13.9402C27.8007 13.1932 27.6705 12.5505 27.4099 12.012C27.1493 11.4561 26.7845 11.0305 26.3155 10.7352C25.8465 10.4226 25.2906 10.2662 24.6479 10.2662C24.0226 10.2662 23.4754 10.4226 23.0064 10.7352C22.5547 11.0305 22.1986 11.4561 21.938 12.012C21.6775 12.5505 21.5472 13.1932 21.5472 13.9402C21.5472 14.6871 21.6775 15.3385 21.938 15.8944C22.1986 16.4329 22.5547 16.8498 23.0064 17.1451C23.4754 17.4404 24.0226 17.5881 24.6479 17.5881ZM39.5829 16.8064L38.0456 13.6796L44.5076 7.03523H50.0055L39.5829 16.8064ZM35.5702 20.8712V1.58944H39.7393V20.8712H35.5702ZM44.9505 20.8712L40.078 14.5655L43.0224 12.2726L49.8752 20.8712H44.9505ZM56.4699 21.1578C55.445 21.1578 54.5678 20.9406 53.8382 20.5064C53.126 20.0547 52.5701 19.412 52.1706 18.5782C51.7885 17.7444 51.5974 16.7456 51.5974 15.5817V7.03523H55.7925V15.0085C55.7925 15.5643 55.8793 16.042 56.053 16.4416C56.2267 16.8411 56.4873 17.1538 56.8347 17.3796C57.1821 17.5881 57.599 17.6923 58.0854 17.6923C58.4502 17.6923 58.7803 17.6315 59.0756 17.5099C59.3882 17.3883 59.6488 17.2233 59.8573 17.0148C60.0831 16.789 60.2568 16.5371 60.3784 16.2592C60.5 15.9639 60.5608 15.6425 60.5608 15.2951V7.03523H64.7559V20.8712H60.8213L60.6389 18.031L61.4206 17.7183C61.2122 18.3784 60.8648 18.969 60.3784 19.4902C59.892 19.9939 59.3101 20.4021 58.6326 20.7148C57.9551 21.0101 57.2342 21.1578 56.4699 21.1578ZM75.0638 21.1317C73.5352 21.1317 72.2063 20.8277 71.0771 20.2198C69.948 19.5944 69.0708 18.7519 68.4454 17.6923C67.8201 16.6153 67.5074 15.3906 67.5074 14.0183C67.5074 12.9587 67.6811 11.9859 68.0285 11.1C68.376 10.2141 68.8623 9.44978 69.4877 8.80706C70.113 8.14696 70.8513 7.64321 71.7026 7.29579C72.5711 6.931 73.5178 6.74861 74.5427 6.74861C75.5155 6.74861 76.4014 6.92231 77.2005 7.26973C78.0169 7.61715 78.7204 8.10354 79.311 8.72889C79.9016 9.35424 80.3533 10.0925 80.6659 10.9437C80.9786 11.7949 81.1176 12.7242 81.0829 13.7317L81.0568 14.8521H70.0349L69.4356 12.5071H77.6695L77.2265 13.0021V12.481C77.1918 12.0467 77.0528 11.6646 76.8096 11.3345C76.5838 10.9871 76.2798 10.7179 75.8976 10.5268C75.5155 10.3357 75.0812 10.2402 74.5948 10.2402C73.9173 10.2402 73.3354 10.3791 72.849 10.6571C72.38 10.9176 72.0239 11.3085 71.7807 11.8296C71.5375 12.3334 71.4159 12.9587 71.4159 13.7057C71.4159 14.47 71.5722 15.1388 71.8849 15.712C72.215 16.2679 72.684 16.7021 73.292 17.0148C73.9173 17.3275 74.6556 17.4838 75.5068 17.4838C76.0974 17.4838 76.6185 17.397 77.0702 17.2233C77.5392 17.0496 78.0429 16.7543 78.5814 16.3374L80.5357 19.0993C79.9972 19.5683 79.4239 19.9505 78.8159 20.2458C78.208 20.5411 77.5826 20.7583 76.9399 20.8972C76.3145 21.0536 75.6892 21.1317 75.0638 21.1317ZM83.7392 20.8712V7.03523H87.6997L87.83 9.84931L86.9962 10.162C87.1873 9.53664 87.526 8.97208 88.0124 8.46833C88.5162 7.9472 89.1155 7.5303 89.8103 7.21762C90.5051 6.90494 91.2347 6.74861 91.999 6.74861C93.0413 6.74861 93.9185 6.96574 94.6307 7.40001C95.3429 7.81692 95.8814 8.45096 96.2462 9.30213C96.611 10.1359 96.7934 11.1608 96.7934 12.3768V20.8712H92.5983V12.7155C92.5983 12.1596 92.5202 11.6993 92.3638 11.3345C92.2075 10.9697 91.9643 10.7005 91.6342 10.5268C91.3216 10.3357 90.9307 10.2488 90.4617 10.2662C90.0969 10.2662 89.7582 10.327 89.4455 10.4486C89.1328 10.5528 88.8636 10.7179 88.6378 10.9437C88.4119 11.1521 88.2295 11.3953 88.0906 11.6733C87.969 11.9512 87.9082 12.2552 87.9082 12.5852V20.8712H85.8497C85.3633 20.8712 84.9464 20.8712 84.599 20.8712C84.2516 20.8712 83.965 20.8712 83.7392 20.8712ZM104.943 21.1317C103.588 21.1317 102.389 20.9146 101.347 20.4803C100.322 20.046 99.5054 19.4641 98.8975 18.7345L101.425 16.5458C101.963 17.0843 102.571 17.4838 103.249 17.7444C103.926 17.9876 104.569 18.1092 105.177 18.1092C105.42 18.1092 105.637 18.0831 105.828 18.031C106.02 17.9789 106.176 17.9094 106.297 17.8226C106.436 17.7183 106.541 17.6054 106.61 17.4838C106.68 17.3449 106.714 17.1885 106.714 17.0148C106.714 16.6674 106.558 16.3982 106.245 16.2071C106.089 16.1202 105.828 16.016 105.464 15.8944C105.099 15.7728 104.63 15.6338 104.057 15.4775C103.24 15.269 102.528 15.0259 101.92 14.7479C101.329 14.4526 100.843 14.1139 100.461 13.7317C100.113 13.3669 99.8442 12.9674 99.6531 12.5331C99.462 12.0815 99.3665 11.5777 99.3665 11.0219C99.3665 10.3791 99.5141 9.7972 99.8094 9.27607C100.122 8.75495 100.53 8.3033 101.034 7.92114C101.555 7.53898 102.146 7.25236 102.806 7.06128C103.483 6.85283 104.178 6.74861 104.89 6.74861C105.655 6.74861 106.384 6.83546 107.079 7.00917C107.774 7.18288 108.417 7.42607 109.007 7.73875C109.615 8.05142 110.154 8.4249 110.623 8.85917L108.434 11.3085C108.121 11.0132 107.765 10.7526 107.366 10.5268C106.984 10.2836 106.584 10.0925 106.167 9.95354C105.75 9.81457 105.368 9.74509 105.021 9.74509C104.76 9.74509 104.526 9.77115 104.317 9.82326C104.126 9.858 103.961 9.92748 103.822 10.0317C103.683 10.1186 103.579 10.2315 103.509 10.3704C103.44 10.492 103.405 10.6397 103.405 10.8134C103.405 10.9871 103.449 11.1521 103.535 11.3085C103.64 11.4648 103.779 11.5951 103.952 11.6993C104.126 11.8035 104.404 11.9251 104.786 12.0641C105.168 12.1857 105.689 12.342 106.35 12.5331C107.166 12.7589 107.87 13.0108 108.46 13.2888C109.051 13.5667 109.52 13.8967 109.867 14.2789C110.145 14.5742 110.354 14.9216 110.493 15.3212C110.632 15.7033 110.701 16.1202 110.701 16.5719C110.701 17.4578 110.449 18.2482 109.945 18.943C109.459 19.6205 108.782 20.159 107.913 20.5585C107.044 20.9406 106.054 21.1317 104.943 21.1317ZM118.286 21.1057C117.122 21.1057 116.08 20.8017 115.16 20.1937C114.256 19.5683 113.535 18.7172 112.997 17.6402C112.458 16.5458 112.189 15.3125 112.189 13.9402C112.189 12.5331 112.458 11.2911 112.997 10.2141C113.535 9.13711 114.274 8.29462 115.212 7.68664C116.15 7.06128 117.218 6.74861 118.417 6.74861C119.077 6.74861 119.676 6.84415 120.214 7.03523C120.77 7.22631 121.257 7.49555 121.674 7.84297C122.091 8.17302 122.447 8.56387 122.742 9.01551C123.037 9.44978 123.254 9.9188 123.393 10.4226L122.534 10.3183V7.03523H126.676V20.8712H122.455V17.5359L123.393 17.5099C123.254 17.9963 123.029 18.4566 122.716 18.8909C122.403 19.3252 122.021 19.7073 121.569 20.0374C121.118 20.3674 120.614 20.628 120.058 20.8191C119.502 21.0101 118.912 21.1057 118.286 21.1057ZM119.433 17.5881C120.076 17.5881 120.631 17.4404 121.1 17.1451C121.569 16.8498 121.934 16.4329 122.195 15.8944C122.455 15.3385 122.586 14.6871 122.586 13.9402C122.586 13.1932 122.455 12.5505 122.195 12.012C121.934 11.4561 121.569 11.0305 121.1 10.7352C120.631 10.4226 120.076 10.2662 119.433 10.2662C118.807 10.2662 118.26 10.4226 117.791 10.7352C117.34 11.0305 116.983 11.4561 116.723 12.012C116.462 12.5505 116.332 13.1932 116.332 13.9402C116.332 14.6871 116.462 15.3385 116.723 15.8944C116.983 16.4329 117.34 16.8498 117.791 17.1451C118.26 17.4404 118.807 17.5881 119.433 17.5881ZM130.59 20.8712V7.03523H134.759V20.8712H130.59ZM132.674 4.2993C131.893 4.2993 131.276 4.11691 130.824 3.75212C130.39 3.36996 130.173 2.83146 130.173 2.13663C130.173 1.51127 130.399 0.998829 130.851 0.599297C131.302 0.199766 131.91 0 132.674 0C133.456 0 134.064 0.19108 134.498 0.57324C134.933 0.938031 135.15 1.45916 135.15 2.13663C135.15 2.77935 134.924 3.30048 134.472 3.70001C134.038 4.09954 133.439 4.2993 132.674 4.2993Z" fill="#4961C3"/>
<mask id="mask0_1599_29" style="mask-type:alpha" maskUnits="userSpaceOnUse" x="0" y="0" width="136" height="27">
<path d="M7.29581 26.8641C6.16668 26.8641 5.03757 26.6991 3.90846 26.3691C2.79672 26.039 1.89343 25.6134 1.1986 25.0923L2.65775 22.174C3.02254 22.4172 3.42208 22.6256 3.85635 22.7993C4.30799 22.9904 4.77701 23.1381 5.26339 23.2423C5.74978 23.3465 6.24485 23.3986 6.74862 23.3986C7.63454 23.3986 8.35543 23.2684 8.9113 23.0078C9.46717 22.7472 9.88407 22.3477 10.162 21.8092C10.4399 21.2881 10.5789 20.628 10.5789 19.8289V17.5099L11.3867 17.6402C11.2651 18.2134 10.9611 18.7345 10.4747 19.2036C10.0057 19.6726 9.42374 20.0547 8.72891 20.35C8.03407 20.628 7.29581 20.7669 6.5141 20.7669C5.26339 20.7669 4.14297 20.4803 3.15283 19.9071C2.18005 19.3165 1.40705 18.5087 0.833801 17.4838C0.277938 16.4416 0 15.243 0 13.8881C0 12.4984 0.277938 11.2737 0.833801 10.2141C1.38968 9.13711 2.154 8.29462 3.12677 7.68664C4.09954 7.06128 5.19391 6.74861 6.40987 6.74861C6.93102 6.74861 7.42609 6.8094 7.8951 6.931C8.38149 7.0526 8.82445 7.21762 9.22398 7.42607C9.64088 7.61715 10.0057 7.85166 10.3183 8.12959C10.6484 8.39016 10.909 8.67678 11.1 8.98945C11.3085 9.30213 11.4475 9.62349 11.5169 9.95354L10.6571 10.162L10.8134 7.03523H14.774V19.7507C14.774 20.8799 14.6003 21.8787 14.2529 22.7472C13.9228 23.6331 13.4277 24.3801 12.7676 24.9881C12.1249 25.6134 11.3432 26.0824 10.4226 26.3951C9.50191 26.7078 8.45966 26.8641 7.29581 26.8641ZM7.40003 17.5359C8.0775 17.5359 8.65942 17.3883 9.14581 17.093C9.64957 16.7803 10.0317 16.3547 10.2923 15.8162C10.5702 15.2777 10.7092 14.6437 10.7092 13.9141C10.7092 13.1845 10.5702 12.5505 10.2923 12.012C10.0317 11.4561 9.64957 11.0305 9.14581 10.7352C8.65942 10.4226 8.0775 10.2662 7.40003 10.2662C6.73994 10.2662 6.16668 10.4226 5.6803 10.7352C5.19391 11.0305 4.81175 11.4561 4.53381 12.012C4.27325 12.5505 4.14297 13.1845 4.14297 13.9141C4.14297 14.6437 4.27325 15.2777 4.53381 15.8162C4.81175 16.3547 5.19391 16.7803 5.6803 17.093C6.16668 17.3883 6.73994 17.5359 7.40003 17.5359ZM23.5014 21.1057C22.3376 21.1057 21.2953 20.8017 20.3747 20.1937C19.4714 19.5683 18.7505 18.7172 18.212 17.6402C17.6735 16.5458 17.4042 15.3125 17.4042 13.9402C17.4042 12.5331 17.6735 11.2911 18.212 10.2141C18.7505 9.13711 19.4887 8.29462 20.4268 7.68664C21.3648 7.06128 22.4331 6.74861 23.6317 6.74861C24.2918 6.74861 24.8911 6.84415 25.4296 7.03523C25.9855 7.22631 26.4719 7.49555 26.8888 7.84297C27.3057 8.17302 27.6618 8.56387 27.9571 9.01551C28.2524 9.44978 28.4695 9.9188 28.6085 10.4226L27.7486 10.3183V7.03523H31.8916V20.8712H27.6705V17.5359L28.6085 17.5099C28.4695 17.9963 28.2437 18.4566 27.931 18.8909C27.6183 19.3252 27.2362 19.7073 26.7845 20.0374C26.3329 20.3674 25.8291 20.628 25.2733 20.8191C24.7174 21.0101 24.1268 21.1057 23.5014 21.1057ZM24.6479 17.5881C25.2906 17.5881 25.8465 17.4404 26.3155 17.1451C26.7845 16.8498 27.1493 16.4329 27.4099 15.8944C27.6705 15.3385 27.8007 14.6871 27.8007 13.9402C27.8007 13.1932 27.6705 12.5505 27.4099 12.012C27.1493 11.4561 26.7845 11.0305 26.3155 10.7352C25.8465 10.4226 25.2906 10.2662 24.6479 10.2662C24.0226 10.2662 23.4754 10.4226 23.0064 10.7352C22.5547 11.0305 22.1986 11.4561 21.938 12.012C21.6775 12.5505 21.5472 13.1932 21.5472 13.9402C21.5472 14.6871 21.6775 15.3385 21.938 15.8944C22.1986 16.4329 22.5547 16.8498 23.0064 17.1451C23.4754 17.4404 24.0226 17.5881 24.6479 17.5881ZM39.5829 16.8064L38.0456 13.6796L44.5076 7.03523H50.0055L39.5829 16.8064ZM35.5702 20.8712V1.58944H39.7393V20.8712H35.5702ZM44.9505 20.8712L40.078 14.5655L43.0224 12.2726L49.8752 20.8712H44.9505ZM56.4699 21.1578C55.445 21.1578 54.5678 20.9406 53.8382 20.5064C53.126 20.0547 52.5701 19.412 52.1706 18.5782C51.7885 17.7444 51.5974 16.7456 51.5974 15.5817V7.03523H55.7925V15.0085C55.7925 15.5643 55.8793 16.042 56.053 16.4416C56.2267 16.8411 56.4873 17.1538 56.8347 17.3796C57.1821 17.5881 57.599 17.6923 58.0854 17.6923C58.4502 17.6923 58.7803 17.6315 59.0756 17.5099C59.3882 17.3883 59.6488 17.2233 59.8573 17.0148C60.0831 16.789 60.2568 16.5371 60.3784 16.2592C60.5 15.9639 60.5608 15.6425 60.5608 15.2951V7.03523H64.7559V20.8712H60.8213L60.6389 18.031L61.4206 17.7183C61.2122 18.3784 60.8648 18.969 60.3784 19.4902C59.892 19.9939 59.3101 20.4021 58.6326 20.7148C57.9551 21.0101 57.2342 21.1578 56.4699 21.1578ZM75.0638 21.1317C73.5352 21.1317 72.2063 20.8277 71.0771 20.2198C69.948 19.5944 69.0708 18.7519 68.4454 17.6923C67.8201 16.6153 67.5074 15.3906 67.5074 14.0183C67.5074 12.9587 67.6811 11.9859 68.0285 11.1C68.376 10.2141 68.8623 9.44978 69.4877 8.80706C70.113 8.14696 70.8513 7.64321 71.7026 7.29579C72.5711 6.931 73.5178 6.74861 74.5427 6.74861C75.5155 6.74861 76.4014 6.92231 77.2005 7.26973C78.0169 7.61715 78.7204 8.10354 79.311 8.72889C79.9016 9.35424 80.3533 10.0925 80.6659 10.9437C80.9786 11.7949 81.1176 12.7242 81.0829 13.7317L81.0568 14.8521H70.0349L69.4356 12.5071H77.6695L77.2265 13.0021V12.481C77.1918 12.0467 77.0528 11.6646 76.8096 11.3345C76.5838 10.9871 76.2798 10.7179 75.8976 10.5268C75.5155 10.3357 75.0812 10.2402 74.5948 10.2402C73.9173 10.2402 73.3354 10.3791 72.849 10.6571C72.38 10.9176 72.0239 11.3085 71.7807 11.8296C71.5375 12.3334 71.4159 12.9587 71.4159 13.7057C71.4159 14.47 71.5722 15.1388 71.8849 15.712C72.215 16.2679 72.684 16.7021 73.292 17.0148C73.9173 17.3275 74.6556 17.4838 75.5068 17.4838C76.0974 17.4838 76.6185 17.397 77.0702 17.2233C77.5392 17.0496 78.0429 16.7543 78.5814 16.3374L80.5357 19.0993C79.9972 19.5683 79.4239 19.9505 78.8159 20.2458C78.208 20.5411 77.5826 20.7583 76.9399 20.8972C76.3145 21.0536 75.6892 21.1317 75.0638 21.1317ZM83.7392 20.8712V7.03523H87.6997L87.83 9.84931L86.9962 10.162C87.1873 9.53664 87.526 8.97208 88.0124 8.46833C88.5162 7.9472 89.1155 7.5303 89.8103 7.21762C90.5051 6.90494 91.2347 6.74861 91.999 6.74861C93.0413 6.74861 93.9185 6.96574 94.6307 7.40001C95.3429 7.81692 95.8814 8.45096 96.2462 9.30213C96.611 10.1359 96.7934 11.1608 96.7934 12.3768V20.8712H92.5983V12.7155C92.5983 12.1596 92.5202 11.6993 92.3638 11.3345C92.2075 10.9697 91.9643 10.7005 91.6342 10.5268C91.3216 10.3357 90.9307 10.2488 90.4617 10.2662C90.0969 10.2662 89.7582 10.327 89.4455 10.4486C89.1328 10.5528 88.8636 10.7179 88.6378 10.9437C88.4119 11.1521 88.2295 11.3953 88.0906 11.6733C87.969 11.9512 87.9082 12.2552 87.9082 12.5852V20.8712H85.8497C85.3633 20.8712 84.9464 20.8712 84.599 20.8712C84.2516 20.8712 83.965 20.8712 83.7392 20.8712ZM104.943 21.1317C103.588 21.1317 102.389 20.9146 101.347 20.4803C100.322 20.046 99.5054 19.4641 98.8975 18.7345L101.425 16.5458C101.963 17.0843 102.571 17.4838 103.249 17.7444C103.926 17.9876 104.569 18.1092 105.177 18.1092C105.42 18.1092 105.637 18.0831 105.828 18.031C106.02 17.9789 106.176 17.9094 106.297 17.8226C106.436 17.7183 106.541 17.6054 106.61 17.4838C106.68 17.3449 106.714 17.1885 106.714 17.0148C106.714 16.6674 106.558 16.3982 106.245 16.2071C106.089 16.1202 105.828 16.016 105.464 15.8944C105.099 15.7728 104.63 15.6338 104.057 15.4775C103.24 15.269 102.528 15.0259 101.92 14.7479C101.329 14.4526 100.843 14.1139 100.461 13.7317C100.113 13.3669 99.8442 12.9674 99.6531 12.5331C99.462 12.0815 99.3665 11.5777 99.3665 11.0219C99.3665 10.3791 99.5141 9.7972 99.8094 9.27607C100.122 8.75495 100.53 8.3033 101.034 7.92114C101.555 7.53898 102.146 7.25236 102.806 7.06128C103.483 6.85283 104.178 6.74861 104.89 6.74861C105.655 6.74861 106.384 6.83546 107.079 7.00917C107.774 7.18288 108.417 7.42607 109.007 7.73875C109.615 8.05142 110.154 8.4249 110.623 8.85917L108.434 11.3085C108.121 11.0132 107.765 10.7526 107.366 10.5268C106.984 10.2836 106.584 10.0925 106.167 9.95354C105.75 9.81457 105.368 9.74509 105.021 9.74509C104.76 9.74509 104.526 9.77115 104.317 9.82326C104.126 9.858 103.961 9.92748 103.822 10.0317C103.683 10.1186 103.579 10.2315 103.509 10.3704C103.44 10.492 103.405 10.6397 103.405 10.8134C103.405 10.9871 103.449 11.1521 103.535 11.3085C103.64 11.4648 103.779 11.5951 103.952 11.6993C104.126 11.8035 104.404 11.9251 104.786 12.0641C105.168 12.1857 105.689 12.342 106.35 12.5331C107.166 12.7589 107.87 13.0108 108.46 13.2888C109.051 13.5667 109.52 13.8967 109.867 14.2789C110.145 14.5742 110.354 14.9216 110.493 15.3212C110.632 15.7033 110.701 16.1202 110.701 16.5719C110.701 17.4578 110.449 18.2482 109.945 18.943C109.459 19.6205 108.782 20.159 107.913 20.5585C107.044 20.9406 106.054 21.1317 104.943 21.1317ZM118.286 21.1057C117.122 21.1057 116.08 20.8017 115.16 20.1937C114.256 19.5683 113.535 18.7172 112.997 17.6402C112.458 16.5458 112.189 15.3125 112.189 13.9402C112.189 12.5331 112.458 11.2911 112.997 10.2141C113.535 9.13711 114.274 8.29462 115.212 7.68664C116.15 7.06128 117.218 6.74861 118.417 6.74861C119.077 6.74861 119.676 6.84415 120.214 7.03523C120.77 7.22631 121.257 7.49555 121.674 7.84297C122.091 8.17302 122.447 8.56387 122.742 9.01551C123.037 9.44978 123.254 9.9188 123.393 10.4226L122.534 10.3183V7.03523H126.676V20.8712H122.455V17.5359L123.393 17.5099C123.254 17.9963 123.029 18.4566 122.716 18.8909C122.403 19.3252 122.021 19.7073 121.569 20.0374C121.118 20.3674 120.614 20.628 120.058 20.8191C119.502 21.0101 118.912 21.1057 118.286 21.1057ZM119.433 17.5881C120.076 17.5881 120.631 17.4404 121.1 17.1451C121.569 16.8498 121.934 16.4329 122.195 15.8944C122.455 15.3385 122.586 14.6871 122.586 13.9402C122.586 13.1932 122.455 12.5505 122.195 12.012C121.934 11.4561 121.569 11.0305 121.1 10.7352C120.631 10.4226 120.076 10.2662 119.433 10.2662C118.807 10.2662 118.26 10.4226 117.791 10.7352C117.34 11.0305 116.983 11.4561 116.723 12.012C116.462 12.5505 116.332 13.1932 116.332 13.9402C116.332 14.6871 116.462 15.3385 116.723 15.8944C116.983 16.4329 117.34 16.8498 117.791 17.1451C118.26 17.4404 118.807 17.5881 119.433 17.5881ZM130.59 20.8712V7.03523H134.759V20.8712H130.59ZM132.674 4.2993C131.893 4.2993 131.276 4.11691 130.824 3.75212C130.39 3.36996 130.173 2.83146 130.173 2.13663C130.173 1.51127 130.399 0.998829 130.851 0.599297C131.302 0.199766 131.91 0 132.674 0C133.456 0 134.064 0.19108 134.498 0.57324C134.933 0.938031 135.15 1.45916 135.15 2.13663C135.15 2.77935 134.924 3.30048 134.472 3.70001C134.038 4.09954 133.439 4.2993 132.674 4.2993Z" fill="#4961C3"/>
</mask>
<g mask="url(#mask0_1599_29)">
<circle cx="20.2661" cy="31.123" r="20.2661" fill="#FB6088"/>
<rect x="44.1812" y="34.8291" width="96.2639" height="11.5806" transform="rotate(-47.0092 44.1812 34.8291)" fill="#FB6088"/>
<rect x="88.3022" y="18.3008" width="96.2639" height="11.5806" transform="rotate(-47.0092 88.3022 18.3008)" fill="#FB6088"/>
<rect x="40.5322" y="10.3389" width="96.2639" height="11.5806" transform="rotate(-47.0092 40.5322 10.3389)" fill="#FB6088"/>
<rect x="99.1592" y="45.0808" width="96.2639" height="11.5806" transform="rotate(-47.0092 99.1592 45.0808)" fill="#FB6088"/>
</g>
</svg>
