<svg width="500" height="578" viewBox="0 0 500 578" fill="none" xmlns="http://www.w3.org/2000/svg">
<path d="M250 0L500 144.338V433.013L250 577.35L0 433.013V144.338L250 0Z" fill="white"/>
<mask id="mask0_1118_77" style="mask-type:alpha" maskUnits="userSpaceOnUse" x="26" y="30" width="448" height="517">
<path d="M250 30.3867L473.684 159.531V417.819L250 546.963L26.3159 417.819V159.531L250 30.3867Z" fill="white"/>
</mask>
<g mask="url(#mask0_1118_77)">
<path d="M48.9086 369.582L24.5475 339.896C2.27115 312.75 -40.9147 319.209 -54.2739 351.685L-108.489 483.481C-114.437 497.94 -112.708 514.421 -103.889 527.33L43.9633 743.752C53.2079 757.284 68.9025 764.939 85.2576 763.894L541.282 734.746C567.845 733.048 587.544 709.411 584.426 682.978L555.803 440.336C553.232 418.545 535.775 401.464 514.186 397.544C463.748 388.386 375.3 365.447 334.516 313.204C299.971 268.955 277.411 193.991 265.484 157.663C261.008 144.03 249.393 140.437 237.596 148.604C182.008 187.081 130.476 259.704 137.024 286.523C140.017 309.228 142.273 327.998 143.972 343.343C147.311 373.491 120.381 396.19 90.8538 389.247L74.1702 385.324C64.2501 382.992 55.3732 377.46 48.9086 369.582Z" fill="#94241D"/>
<path d="M84.5604 487.299C58.3967 505.915 2.80323 469.453 -40.2486 433.011C-46.9301 427.355 -58.1417 435.929 -54.0406 443.663L70.256 678.06C71.9488 681.253 75.5553 682.846 79.0092 681.785C195.651 645.945 436.181 533.453 434.853 458.757C433.165 363.799 206.952 238.875 173.189 214.818C139.426 190.762 130.563 278.968 173.189 345.65C215.815 412.333 128.453 456.068 84.5604 487.299Z" fill="#EC5C4B"/>
<path d="M255.815 437.689L172.386 513.487C159.509 525.186 165.507 546.518 182.627 549.61C293.129 569.57 443.81 592.392 391.383 564.689C345.085 540.225 310.641 485.821 291.762 445.748C285.299 432.03 267.038 427.492 255.815 437.689Z" fill="#FAE164"/>
</g>
<path d="M336.542 171.178L349.723 173.987C347.886 187.601 344.645 200.458 335.353 208.237L323.577 200.89C331.464 194.299 335.029 183.495 336.542 171.178ZM402.88 170.962L417.249 176.472C411.739 186.952 405.148 198.513 399.746 206.076L388.51 201.106C393.588 193.111 399.638 180.578 402.88 170.962ZM378.03 151.19V185.008C378.03 201.43 388.186 226.496 421.895 238.921C418.978 241.838 414.872 247.348 412.928 251.129C386.997 240.541 373.924 218.825 370.899 208.129C367.982 219.149 356.097 240.217 330.491 251.129C328.763 248.212 324.225 242.702 321.416 240.001C354.045 227.576 363.876 201.322 363.876 185.116V151.19H378.03Z" fill="#94241D"/>
</svg>
