<svg width="634" height="711" viewBox="0 0 634 711" fill="none" xmlns="http://www.w3.org/2000/svg">
<g filter="url(#filter0_d_1118_77)">
<path d="M316.8 62.7998L566.8 207.137V495.813L316.8 640.15L66.8 495.813V207.137L316.8 62.7998Z" fill="white"/>
<mask id="mask0_1118_77" style="mask-type:alpha" maskUnits="userSpaceOnUse" x="93" y="93" width="448" height="517">
<path d="M316.8 93.1865L540.484 222.331V480.619L316.8 609.763L93.1158 480.619V222.331L316.8 93.1865Z" fill="white"/>
</mask>
<g mask="url(#mask0_1118_77)">
<path d="M115.709 432.382L91.3475 402.695C69.0711 375.55 25.8853 382.009 12.5261 414.484L-41.6893 546.281C-47.6369 560.739 -45.9077 577.22 -37.0886 590.13L110.763 806.552C120.008 820.084 135.703 827.739 152.058 826.694L608.082 797.546C634.645 795.848 654.344 772.211 651.226 745.778L622.603 503.136C620.032 481.345 602.575 464.264 580.986 460.344C530.548 451.186 442.1 428.247 401.316 376.004C366.771 331.755 344.211 256.791 332.284 220.462C327.808 206.83 316.193 203.237 304.396 211.403C248.808 249.881 197.276 322.504 203.824 349.322C206.817 372.028 209.073 390.798 210.772 406.143C214.111 436.291 187.181 458.989 157.654 452.047L140.97 448.124C131.05 445.791 122.173 440.26 115.709 432.382Z" fill="#94241D"/>
<path d="M151.36 550.099C125.197 568.715 69.6032 532.252 26.5514 495.811C19.8698 490.155 8.65827 498.729 12.7594 506.463L137.056 740.86C138.749 744.052 142.355 745.646 145.809 744.585C262.451 708.745 502.981 596.253 501.653 521.557C499.965 426.599 273.752 301.674 239.989 277.618C206.226 253.562 197.363 341.768 239.989 408.45C282.615 475.133 195.253 518.868 151.36 550.099Z" fill="#EC5C4B"/>
<path d="M322.615 500.489L239.186 576.287C226.309 587.986 232.307 609.318 249.427 612.41C359.929 632.37 510.61 655.192 458.183 627.489C411.885 603.025 377.441 548.62 358.562 508.548C352.099 494.83 333.838 490.292 322.615 500.489Z" fill="#FAE164"/>
</g>
<path d="M403.342 233.978L416.523 236.787C414.686 250.4 411.445 263.257 402.153 271.036L390.377 263.69C398.264 257.099 401.829 246.295 403.342 233.978ZM469.68 233.762L484.049 239.272C478.539 249.752 471.948 261.313 466.546 268.876L455.31 263.906C460.388 255.911 466.438 243.378 469.68 233.762ZM444.83 213.99V247.807C444.83 264.23 454.986 289.296 488.695 301.72C485.778 304.638 481.672 310.148 479.727 313.929C453.797 303.341 440.724 281.625 437.699 270.928C434.782 281.949 422.897 303.017 397.291 313.929C395.563 311.012 391.025 305.502 388.216 302.801C420.845 290.376 430.676 264.122 430.676 247.915V213.99H444.83Z" fill="#94241D"/>
</g>
<defs>
<filter id="filter0_d_1118_77" x="-1.52588e-05" y="-0.000198364" width="633.6" height="710.951" filterUnits="userSpaceOnUse" color-interpolation-filters="sRGB">
<feFlood flood-opacity="0" result="BackgroundImageFix"/>
<feColorMatrix in="SourceAlpha" type="matrix" values="0 0 0 0 0 0 0 0 0 0 0 0 0 0 0 0 0 0 127 0" result="hardAlpha"/>
<feOffset dy="4"/>
<feGaussianBlur stdDeviation="33.4"/>
<feComposite in2="hardAlpha" operator="out"/>
<feColorMatrix type="matrix" values="0 0 0 0 0 0 0 0 0 0 0 0 0 0 0 0 0 0 0.25 0"/>
<feBlend mode="normal" in2="BackgroundImageFix" result="effect1_dropShadow_1118_77"/>
<feBlend mode="normal" in="SourceGraphic" in2="effect1_dropShadow_1118_77" result="shape"/>
</filter>
</defs>
</svg>
