<svg width="1008" height="1034" viewBox="0 0 1008 1034" fill="none" xmlns="http://www.w3.org/2000/svg">
<g filter="url(#filter0_d_2356_165)">
<path d="M500 118L845.544 317.5V716.5L500 916L154.456 716.5V317.5L500 118Z" fill="#5B5B5B"/>
<path fill-rule="evenodd" clip-rule="evenodd" d="M504 88.5099L499.72 86.0391L130 299.497V726.413L499.72 939.872L504 937.401V88.5099Z" fill="white"/>
<path fill-rule="evenodd" clip-rule="evenodd" d="M472 69.5026C489.327 59.4991 510.674 59.4991 528 69.5026L873.544 269.003C890.871 279.006 901.544 297.493 901.544 317.5V716.5C901.544 736.507 890.871 754.994 873.544 764.997L528 964.497C510.674 974.501 489.327 974.501 472 964.497L126.456 764.997C109.13 754.994 98.4561 736.507 98.4561 716.5V317.5C98.4561 297.493 109.13 279.006 126.456 269.003L472 69.5026ZM845.544 317.5L500 118L154.456 317.5V716.5L500 916L845.544 716.5V317.5Z" fill="white"/>
<path d="M62 570C62 550.67 77.67 535 97 535H911C930.33 535 946 550.67 946 570V733C946 752.33 930.33 768 911 768H97C77.67 768 62 752.33 62 733V570Z" fill="white"/>
<mask id="mask0_2356_165" style="mask-type:alpha" maskUnits="userSpaceOnUse" x="154" y="118" width="692" height="798">
<path d="M500 118L845.544 317.5V716.5L500 916L154.456 716.5V317.5L500 118Z" fill="#E84C4D"/>
</mask>
<g mask="url(#mask0_2356_165)">
<path fill-rule="evenodd" clip-rule="evenodd" d="M631.609 383.674C631.609 350.625 675.397 341.662 688.445 370.988C691.959 378.892 691.981 387.957 688.442 395.919C684.544 404.694 673.27 412.107 662.212 412.107C653.091 412.107 646.038 410.277 639.579 403.694C635.613 399.654 631.609 391.563 631.609 383.672V383.674ZM642.977 322.868C641.041 321.57 640.292 318.928 631.867 313.862C625.392 309.965 618.134 306.816 611.001 304.119C608.642 303.225 605.451 302.348 602.802 301.824C594.766 300.233 576.91 298.342 568.655 302.306C568.857 304.75 571.591 306.952 572.85 309.045C574.373 311.574 575.406 313.976 576.963 316.304C571.402 315.841 559.912 307.507 559.912 318.49C559.912 327.137 564.646 340.071 568.902 347.116C573.624 354.934 578.456 362.274 585.704 367.926C586.873 368.839 587.882 369.668 589.141 370.61C590.483 371.613 591.567 372.309 592.959 373.354C594.229 374.307 595.074 375.054 596.395 376.043C597.614 376.958 599.293 377.77 599.699 379.297C594.163 380.586 586.569 388.4 583.026 392.797C579.086 397.683 576.033 400.247 572.237 406.061L567.093 414.476C562.999 421.384 555.42 436.869 557.292 444.914C563.275 444.914 566.501 442.843 571.721 442.728C569.612 446.715 565.6 454.341 565.6 458.476C565.6 460.915 583.618 461.101 587.021 461.101C599.583 461.101 618.684 454.681 628.472 448.332C631.043 446.665 637.425 442.536 640.358 441.853C641.898 444.766 643.227 447.558 644.351 450.981C646.423 457.293 649.534 463.854 652.953 469.498C653.873 471.017 654.396 472.081 655.4 473.613C657.153 476.281 658.803 479.209 661.011 481.558C667.597 488.558 678.163 500.466 687.573 502.66C690.238 498.678 691.306 492.978 692.557 487.962L694.13 482.536C694.516 484.191 694.983 485.119 695.629 486.726C697.493 491.367 698.606 494.481 703.311 496.974C704.999 493.782 707.207 490.883 708.623 487.412C709.308 485.728 710.105 484.063 710.799 482.151C711.462 480.313 711.965 478.722 712.661 476.579C716.835 463.714 716.896 447.588 715.198 433.898C714.571 428.834 713.368 423.384 713.368 418.232C715.466 418.277 717.73 418.948 719.94 419.091C735.642 420.115 748.792 417.804 761.021 411.67C767.905 408.218 774.355 404.263 779.72 398.885C782.164 396.436 782.443 395.406 782.443 390.675C778.329 389.717 775.458 387.834 772.033 385.781L769.602 384.275C768.561 383.488 769.549 384.249 768.891 383.677C774.058 383.562 779.703 380.786 784.193 379.74C783.622 377.296 781.834 375.66 780.32 373.99L765.896 362.176C762.427 359.755 758.843 357.873 754.908 356.109C748.396 353.191 742.337 351.316 734.685 349.659C732.701 349.228 731.035 349.01 729.111 348.675L717.353 347.316C715.346 346.965 713.665 346.1 711.62 346.052C711.864 344.999 715.551 339.557 718.091 330.219C722.002 315.841 722.809 298.677 717.307 284.804C715.522 280.299 712.716 273.596 708.556 270.812C705.336 271.673 698.79 281.253 695.443 283.499C695.443 278.868 696.317 274.089 696.317 269.061C696.317 267.553 695.993 267.367 695.878 266C690.562 266 685.344 268.907 681.192 271.428C674.189 275.682 667.605 280.889 662.712 287.496C650.486 303.994 648.637 317.202 646.598 319.493C645.454 320.78 644.33 321.964 642.98 322.87L642.977 322.868Z" fill="white"/>
<path fill-rule="evenodd" clip-rule="evenodd" d="M643.181 384.338C643.181 375.231 650.478 365.682 659.976 365.682C669.72 365.682 678.928 372.406 678.928 383.47C678.928 399.377 661.392 406.941 648.902 396.359C645.668 393.619 643.181 388.635 643.181 384.338ZM660.408 409.503C667.723 409.503 674.481 406.493 678.601 403.1C696.484 388.371 684.329 357.438 662.562 357.438C657.411 357.438 654.579 357.791 650.062 360.031C645.759 362.165 643.948 363.813 641.124 367.08C630.197 379.705 634.989 400.915 649.819 407.16C652.47 408.276 656.914 409.503 660.408 409.503Z" fill="white"/>
</g>
<path d="M221.929 700V610.4H249.577V700H221.929ZM168.553 700V610.4H196.201V700H168.553ZM178.921 667.36L179.049 643.296H237.545V667.36H178.921ZM269.157 700V631.52H295.141V700H269.157ZM282.213 619.104C277.605 619.104 273.978 618.037 271.333 615.904C268.773 613.771 267.493 610.741 267.493 606.816C267.493 603.232 268.815 600.288 271.461 597.984C274.106 595.68 277.69 594.528 282.213 594.528C286.821 594.528 290.405 595.595 292.965 597.728C295.61 599.861 296.933 602.891 296.933 606.816C296.933 610.4 295.61 613.344 292.965 615.648C290.319 617.952 286.735 619.104 282.213 619.104ZM338.995 680.8L326.195 664.672L357.811 631.52H391.603L338.995 680.8ZM313.523 700V605.28H339.507V700H313.523ZM360.115 700L337.331 667.872L355.507 654.816L389.811 700H360.115ZM420.721 701.152C415.003 701.152 409.926 699.659 405.489 696.672C401.051 693.6 397.553 689.419 394.993 684.128C392.433 678.752 391.153 672.608 391.153 665.696C391.153 658.699 392.39 652.555 394.865 647.264C397.425 641.888 400.923 637.707 405.361 634.72C409.883 631.648 415.089 630.112 420.977 630.112C424.049 630.112 426.865 630.539 429.425 631.392C431.985 632.245 434.246 633.44 436.209 634.976C438.171 636.512 439.878 638.304 441.329 640.352C442.779 642.315 444.017 644.448 445.041 646.752L439.793 646.624V631.52H465.265V700H439.153V683.232L444.913 683.744C444.059 686.219 442.865 688.523 441.329 690.656C439.878 692.789 438.129 694.624 436.081 696.16C434.033 697.696 431.729 698.933 429.169 699.872C426.609 700.725 423.793 701.152 420.721 701.152ZM428.145 680.032C430.619 680.032 432.71 679.477 434.417 678.368C436.209 677.259 437.531 675.637 438.385 673.504C439.323 671.371 439.793 668.768 439.793 665.696C439.793 662.624 439.323 660.021 438.385 657.888C437.531 655.669 436.209 654.005 434.417 652.896C432.71 651.787 430.619 651.232 428.145 651.232C425.67 651.232 423.579 651.787 421.873 652.896C420.166 654.005 418.843 655.669 417.905 657.888C417.051 660.021 416.625 662.624 416.625 665.696C416.625 668.768 417.051 671.371 417.905 673.504C418.843 675.637 420.166 677.259 421.873 678.368C423.579 679.477 425.67 680.032 428.145 680.032ZM486.732 700V614.24H512.716V700H486.732ZM476.108 653.28V631.52H523.98V653.28H476.108ZM561.447 701.28C554.023 701.28 547.537 700.171 541.991 697.952C536.529 695.648 532.263 692.789 529.191 689.376L544.295 676.448C547.025 678.837 550.14 680.629 553.639 681.824C557.223 682.933 560.209 683.488 562.599 683.488C563.452 683.488 564.177 683.445 564.775 683.36C565.457 683.189 565.969 682.976 566.311 682.72C566.737 682.379 567.036 682.037 567.207 681.696C567.463 681.355 567.591 680.928 567.591 680.416C567.591 679.136 566.908 678.197 565.543 677.6C564.775 677.259 563.495 676.832 561.703 676.32C559.996 675.808 557.735 675.211 554.919 674.528C551.591 673.675 548.519 672.608 545.703 671.328C542.972 670.048 540.625 668.555 538.663 666.848C536.615 664.971 534.993 662.837 533.799 660.448C532.689 658.059 532.135 655.371 532.135 652.384C532.135 648.885 532.945 645.771 534.567 643.04C536.188 640.309 538.407 638.005 541.223 636.128C544.039 634.165 547.196 632.672 550.695 631.648C554.193 630.624 557.777 630.112 561.447 630.112C565.628 630.112 569.511 630.539 573.095 631.392C576.764 632.16 580.177 633.312 583.335 634.848C586.577 636.299 589.521 638.048 592.167 640.096L578.983 654.816C577.532 653.621 575.825 652.469 573.863 651.36C571.985 650.251 569.98 649.355 567.847 648.672C565.799 647.904 563.879 647.52 562.087 647.52C561.148 647.52 560.337 647.605 559.655 647.776C559.057 647.861 558.545 648.075 558.119 648.416C557.692 648.672 557.351 649.013 557.095 649.44C556.924 649.781 556.839 650.208 556.839 650.72C556.839 651.403 557.052 652.043 557.479 652.64C557.905 653.237 558.588 653.749 559.527 654.176C560.295 654.517 561.575 654.987 563.367 655.584C565.244 656.181 567.975 656.992 571.559 658.016C575.399 659.125 578.769 660.405 581.671 661.856C584.657 663.307 587.047 665.013 588.839 666.976C590.033 668.341 590.972 669.877 591.655 671.584C592.337 673.291 592.679 675.125 592.679 677.088C592.679 681.781 591.313 685.963 588.583 689.632C585.937 693.216 582.268 696.075 577.575 698.208C572.881 700.256 567.505 701.28 561.447 701.28ZM625.81 701.408C620.604 701.408 616.21 700.341 612.626 698.208C609.042 696.075 606.311 692.96 604.434 688.864C602.556 684.683 601.618 679.648 601.618 673.76V631.52H627.602V671.584C627.602 673.461 627.9 675.04 628.498 676.32C629.18 677.6 630.119 678.581 631.314 679.264C632.508 679.947 633.959 680.288 635.666 680.288C636.946 680.288 638.098 680.117 639.122 679.776C640.231 679.349 641.17 678.752 641.938 677.984C642.706 677.216 643.303 676.363 643.73 675.424C644.156 674.4 644.37 673.333 644.37 672.224V631.52H670.354V700H646.546L645.01 686.176L649.874 684.64C648.935 687.883 647.271 690.784 644.882 693.344C642.578 695.819 639.762 697.781 636.434 699.232C633.106 700.683 629.564 701.408 625.81 701.408ZM712.587 701.408C706.955 701.408 701.92 699.915 697.483 696.928C693.131 693.856 689.675 689.675 687.115 684.384C684.64 679.008 683.403 672.821 683.403 665.824C683.403 658.912 684.683 652.768 687.243 647.392C689.803 642.016 693.301 637.792 697.739 634.72C702.261 631.648 707.424 630.112 713.227 630.112C716.128 630.112 718.901 630.539 721.547 631.392C724.192 632.16 726.581 633.312 728.715 634.848C730.848 636.299 732.64 638.048 734.091 640.096C735.627 642.059 736.651 644.192 737.163 646.496L731.403 648.288V605.28H757.515V700H734.091L732.043 684.896L737.291 686.048C736.864 688.267 735.925 690.315 734.475 692.192C733.024 694.069 731.189 695.691 728.971 697.056C726.837 698.421 724.363 699.488 721.547 700.256C718.731 701.024 715.744 701.408 712.587 701.408ZM720.395 680.288C722.869 680.288 724.96 679.733 726.667 678.624C728.459 677.429 729.781 675.765 730.635 673.632C731.573 671.499 732.043 668.896 732.043 665.824C732.043 662.752 731.573 660.149 730.635 658.016C729.781 655.797 728.459 654.133 726.667 653.024C724.96 651.915 722.869 651.36 720.395 651.36C717.92 651.36 715.829 651.915 714.123 653.024C712.416 654.133 711.093 655.797 710.155 658.016C709.301 660.149 708.875 662.752 708.875 665.824C708.875 668.896 709.301 671.499 710.155 673.632C711.093 675.765 712.416 677.429 714.123 678.624C715.829 679.733 717.92 680.288 720.395 680.288ZM807.556 701.28C800.132 701.28 793.518 699.744 787.716 696.672C781.913 693.6 777.348 689.419 774.02 684.128C770.692 678.752 769.028 672.608 769.028 665.696C769.028 658.784 770.692 652.683 774.02 647.392C777.348 642.016 781.913 637.792 787.716 634.72C793.518 631.648 800.132 630.112 807.556 630.112C814.98 630.112 821.55 631.648 827.268 634.72C833.07 637.792 837.593 642.016 840.836 647.392C844.164 652.683 845.828 658.784 845.828 665.696C845.828 672.608 844.164 678.752 840.836 684.128C837.593 689.419 833.07 693.6 827.268 696.672C821.55 699.744 814.98 701.28 807.556 701.28ZM807.556 679.52C809.86 679.52 811.908 678.923 813.7 677.728C815.577 676.533 817.028 674.912 818.052 672.864C819.076 670.731 819.588 668.341 819.588 665.696C819.588 662.965 819.076 660.576 818.052 658.528C817.028 656.395 815.577 654.731 813.7 653.536C811.908 652.341 809.86 651.744 807.556 651.744C805.166 651.744 803.033 652.341 801.156 653.536C799.364 654.731 797.913 656.395 796.804 658.528C795.78 660.576 795.268 662.965 795.268 665.696C795.268 668.341 795.78 670.731 796.804 672.864C797.913 674.912 799.364 676.533 801.156 677.728C803.033 678.923 805.166 679.52 807.556 679.52ZM783.492 618.336V602.976H831.364V618.336H783.492Z" fill="#5B5B5B"/>
<path d="M237.328 424.264H269.104V435.016H237.328V424.264ZM237.328 468.712H270.736V479.464H237.328V468.712ZM236.56 446.536H266.896V456.904H236.56V446.536ZM184.624 424.264H213.616V435.016H184.624V424.264ZM185.584 446.536H213.04V456.904H185.584V446.536ZM231.472 411.976H242.992V501.64H231.472V411.976ZM180.496 469.576C191.728 468.328 209.296 466.12 225.808 463.816L226.288 473.992C210.928 476.488 194.704 479.08 182.608 480.904L180.496 469.576ZM208.144 411.976H219.472V456.904C219.472 470.056 214.672 491.464 191.344 502.792C189.52 500.104 185.776 496.456 183.088 494.248C204.112 485.416 208.144 467.08 208.144 457V411.976ZM311.632 462.664H361.936V501.16H350.992V473.128H322.096V501.544H311.632V462.664ZM354.352 411.496L363.184 420.52C349.072 425.896 329.584 428.872 312.592 430.408C312.112 427.624 310.576 423.112 309.328 420.52C325.648 418.888 343.696 415.72 354.352 411.496ZM331.312 422.248H342.256V468.712H331.312V422.248ZM305.584 439.432H366.832V450.472H305.584V439.432ZM319.12 487.24H355.504V497.608H319.12V487.24ZM281.968 421L288.4 412.744C293.776 415.432 302.128 419.656 306.256 422.344L299.44 431.656C295.6 428.776 287.44 424.168 281.968 421ZM277.264 447.592L283.504 439.048C288.976 441.64 297.52 445.768 301.744 448.456L295.312 457.96C291.376 455.272 283.024 450.664 277.264 447.592ZM278.704 492.712C283.888 485.512 291.28 473.512 297.04 462.472L305.488 470.056C300.4 480.232 294.256 491.176 288.496 500.488L278.704 492.712ZM394 438.472H460.72V447.592H394V438.472ZM394.768 466.504H447.472V475.528H394.768V466.504ZM407.056 432.136H417.904V453.928H435.472V432.136H446.8V462.664H407.056V432.136ZM444.496 466.504H446.704L448.72 466.024L455.92 469.672C445.552 490.504 422.32 498.472 395.344 501.832C394.48 498.952 392.368 494.632 390.544 492.232C415.12 490.12 436.72 483.304 444.496 467.944V466.504ZM414.448 473.512C423.088 484.264 441.04 490.12 463.12 492.04C460.72 494.44 457.84 499.048 456.4 501.928C433.072 499.048 415.312 491.368 404.56 477.064L414.448 473.512ZM415.024 411.496H427.024V425.896H415.024V411.496ZM386.224 420.136H461.2V430.408H386.224V420.136ZM380.56 420.136H391.6V447.208C391.6 462.856 390.16 486.472 381.424 501.352C379.408 499.432 374.608 496.264 371.92 495.016C379.984 481.384 380.56 461.32 380.56 447.208V420.136Z" fill="#5B5B5B"/>
</g>
<defs>
<filter id="filter0_d_2356_165" x="0" y="0" width="1008" height="1034" filterUnits="userSpaceOnUse" color-interpolation-filters="sRGB">
<feFlood flood-opacity="0" result="BackgroundImageFix"/>
<feColorMatrix in="SourceAlpha" type="matrix" values="0 0 0 0 0 0 0 0 0 0 0 0 0 0 0 0 0 0 127 0" result="hardAlpha"/>
<feOffset/>
<feGaussianBlur stdDeviation="31"/>
<feComposite in2="hardAlpha" operator="out"/>
<feColorMatrix type="matrix" values="0 0 0 0 0 0 0 0 0 0 0 0 0 0 0 0 0 0 0.25 0"/>
<feBlend mode="normal" in2="BackgroundImageFix" result="effect1_dropShadow_2356_165"/>
<feBlend mode="normal" in="SourceGraphic" in2="effect1_dropShadow_2356_165" result="shape"/>
</filter>
</defs>
</svg>
