<svg width="1008" height="995" viewBox="0 0 1008 995" fill="none" xmlns="http://www.w3.org/2000/svg">
<g filter="url(#filter0_d_2378_264)">
<path d="M504 285.32C503.91 285.32 503.82 285.321 503.729 285.322C503.411 285.301 503.126 285.246 502.895 285.175C502.624 285.092 502.509 285.013 502.509 285.013L502.51 285.014C502.229 284.813 501.945 284.617 501.657 284.426L224.085 100.447C206.028 87.8863 184.21 87.5307 167.166 94.8041C149.951 102.15 134 119.192 134 143.382V662.461C134 680.076 143.014 695.465 156.475 705.024C157.042 705.426 157.623 705.807 158.218 706.166L471.004 894.975C480.93 901.68 492.512 905 504 905C504.351 905 504.7 904.994 505.048 904.981C515.908 904.791 527.234 901.638 537.071 894.919L849.782 706.156C850.377 705.797 850.958 705.416 851.525 705.014C865.021 695.43 874 679.963 874 662.451V143.372C874 119.182 858.049 102.14 840.834 94.7941C823.79 87.5208 801.972 87.8762 783.915 100.437L506.343 284.416C506.118 284.565 505.895 284.717 505.674 284.873C505.405 285.063 504.825 285.32 504 285.32Z" fill="white" stroke="white" stroke-width="56" stroke-linejoin="round"/>
<path d="M486.187 307.991L208.312 124.022C189.645 110.818 162 122.569 162 143.796V662.282C162 669.989 165.919 677.191 172.687 681.993L486.187 871.016C491.388 874.68 497.658 876.575 504 876.575V313.55C497.73 313.55 491.388 311.718 486.187 307.991Z" fill="#26A69A"/>
<rect x="62" y="449" width="884" height="233" rx="35" fill="white"/>
<path d="M248.804 614V524.4H276.452V614H248.804ZM195.428 614V524.4H223.076V614H195.428ZM205.796 581.36L205.924 557.296H264.42V581.36H205.796ZM296.032 614V545.52H322.016V614H296.032ZM309.088 533.104C304.48 533.104 300.853 532.037 298.208 529.904C295.648 527.771 294.368 524.741 294.368 520.816C294.368 517.232 295.69 514.288 298.336 511.984C300.981 509.68 304.565 508.528 309.088 508.528C313.696 508.528 317.28 509.595 319.84 511.728C322.485 513.861 323.808 516.891 323.808 520.816C323.808 524.4 322.485 527.344 319.84 529.648C317.194 531.952 313.61 533.104 309.088 533.104ZM365.87 594.8L353.07 578.672L384.686 545.52H418.478L365.87 594.8ZM340.398 614V519.28H366.382V614H340.398ZM386.99 614L364.206 581.872L382.382 568.816L416.686 614H386.99ZM456.556 615.28C449.132 615.28 442.518 613.744 436.716 610.672C430.913 607.6 426.348 603.419 423.02 598.128C419.692 592.752 418.028 586.608 418.028 579.696C418.028 572.784 419.692 566.683 423.02 561.392C426.348 556.016 430.913 551.792 436.716 548.72C442.518 545.648 449.132 544.112 456.556 544.112C463.98 544.112 470.55 545.648 476.268 548.72C482.07 551.792 486.593 556.016 489.836 561.392C493.164 566.683 494.828 572.784 494.828 579.696C494.828 586.608 493.164 592.752 489.836 598.128C486.593 603.419 482.07 607.6 476.268 610.672C470.55 613.744 463.98 615.28 456.556 615.28ZM456.556 593.52C458.86 593.52 460.908 592.923 462.7 591.728C464.577 590.533 466.028 588.912 467.052 586.864C468.076 584.731 468.588 582.341 468.588 579.696C468.588 576.965 468.076 574.576 467.052 572.528C466.028 570.395 464.577 568.731 462.7 567.536C460.908 566.341 458.86 565.744 456.556 565.744C454.166 565.744 452.033 566.341 450.156 567.536C448.364 568.731 446.913 570.395 445.804 572.528C444.78 574.576 444.268 576.965 444.268 579.696C444.268 582.341 444.78 584.731 445.804 586.864C446.913 588.912 448.364 590.533 450.156 591.728C452.033 592.923 454.166 593.52 456.556 593.52ZM432.492 532.336V516.976H480.364V532.336H432.492ZM531.072 615.28C523.648 615.28 517.162 614.171 511.616 611.952C506.154 609.648 501.888 606.789 498.816 603.376L513.92 590.448C516.65 592.837 519.765 594.629 523.264 595.824C526.848 596.933 529.834 597.488 532.224 597.488C533.077 597.488 533.802 597.445 534.4 597.36C535.082 597.189 535.594 596.976 535.936 596.72C536.362 596.379 536.661 596.037 536.832 595.696C537.088 595.355 537.216 594.928 537.216 594.416C537.216 593.136 536.533 592.197 535.168 591.6C534.4 591.259 533.12 590.832 531.328 590.32C529.621 589.808 527.36 589.211 524.544 588.528C521.216 587.675 518.144 586.608 515.328 585.328C512.597 584.048 510.25 582.555 508.288 580.848C506.24 578.971 504.618 576.837 503.424 574.448C502.314 572.059 501.76 569.371 501.76 566.384C501.76 562.885 502.57 559.771 504.192 557.04C505.813 554.309 508.032 552.005 510.848 550.128C513.664 548.165 516.821 546.672 520.32 545.648C523.818 544.624 527.402 544.112 531.072 544.112C535.253 544.112 539.136 544.539 542.72 545.392C546.389 546.16 549.802 547.312 552.96 548.848C556.202 550.299 559.146 552.048 561.792 554.096L548.608 568.816C547.157 567.621 545.45 566.469 543.488 565.36C541.61 564.251 539.605 563.355 537.472 562.672C535.424 561.904 533.504 561.52 531.712 561.52C530.773 561.52 529.962 561.605 529.28 561.776C528.682 561.861 528.17 562.075 527.744 562.416C527.317 562.672 526.976 563.013 526.72 563.44C526.549 563.781 526.464 564.208 526.464 564.72C526.464 565.403 526.677 566.043 527.104 566.64C527.53 567.237 528.213 567.749 529.152 568.176C529.92 568.517 531.2 568.987 532.992 569.584C534.869 570.181 537.6 570.992 541.184 572.016C545.024 573.125 548.394 574.405 551.296 575.856C554.282 577.307 556.672 579.013 558.464 580.976C559.658 582.341 560.597 583.877 561.28 585.584C561.962 587.291 562.304 589.125 562.304 591.088C562.304 595.781 560.938 599.963 558.208 603.632C555.562 607.216 551.893 610.075 547.2 612.208C542.506 614.256 537.13 615.28 531.072 615.28ZM572.523 614V519.28H597.867V559.344L592.363 560.88C593.301 557.637 594.965 554.779 597.354 552.304C599.829 549.744 602.773 547.739 606.187 546.288C609.6 544.837 613.227 544.112 617.067 544.112C622.187 544.112 626.539 545.179 630.123 547.312C633.707 549.445 636.395 552.603 638.187 556.784C640.064 560.88 641.003 565.872 641.003 571.76V614H615.019V573.936C615.019 572.059 614.72 570.48 614.123 569.2C613.525 567.92 612.629 566.939 611.435 566.256C610.24 565.573 608.832 565.232 607.211 565.232C605.931 565.232 604.736 565.445 603.627 565.872C602.603 566.213 601.707 566.768 600.939 567.536C600.171 568.304 599.573 569.157 599.147 570.096C598.72 571.035 598.507 572.101 598.507 573.296V614H585.579C582.336 614 579.605 614 577.387 614C575.253 614 573.632 614 572.523 614ZM658.032 614V545.52H684.016V614H658.032ZM671.088 533.104C666.48 533.104 662.853 532.037 660.208 529.904C657.648 527.771 656.368 524.741 656.368 520.816C656.368 517.232 657.69 514.288 660.336 511.984C662.981 509.68 666.565 508.528 671.088 508.528C675.696 508.528 679.28 509.595 681.84 511.728C684.485 513.861 685.808 516.891 685.808 520.816C685.808 524.4 684.485 527.344 681.84 529.648C679.194 531.952 675.61 533.104 671.088 533.104ZM727.87 594.8L715.07 578.672L746.686 545.52H780.478L727.87 594.8ZM702.398 614V519.28H728.382V614H702.398ZM748.99 614L726.206 581.872L744.382 568.816L778.686 614H748.99ZM788.407 614V545.52H814.391V614H788.407ZM801.463 533.104C796.855 533.104 793.228 532.037 790.583 529.904C788.023 527.771 786.743 524.741 786.743 520.816C786.743 517.232 788.065 514.288 790.711 511.984C793.356 509.68 796.94 508.528 801.463 508.528C806.071 508.528 809.655 509.595 812.215 511.728C814.86 513.861 816.183 516.891 816.183 520.816C816.183 524.4 814.86 527.344 812.215 529.648C809.569 531.952 805.985 533.104 801.463 533.104Z" fill="#26A69A"/>
</g>
<path d="M595.328 356.264H627.104V367.016H595.328V356.264ZM595.328 400.712H628.736V411.464H595.328V400.712ZM594.56 378.536H624.896V388.904H594.56V378.536ZM542.624 356.264H571.616V367.016H542.624V356.264ZM543.584 378.536H571.04V388.904H543.584V378.536ZM589.472 343.976H600.992V433.64H589.472V343.976ZM538.496 401.576C549.728 400.328 567.296 398.12 583.808 395.816L584.288 405.992C568.928 408.488 552.704 411.08 540.608 412.904L538.496 401.576ZM566.144 343.976H577.472V388.904C577.472 402.056 572.672 423.464 549.344 434.792C547.52 432.104 543.776 428.456 541.088 426.248C562.112 417.416 566.144 399.08 566.144 389V343.976ZM670.4 378.536L684.224 381.896C677.888 396.968 669.344 413.864 662.24 424.904L651.584 421.544C658.496 409.928 666.272 392.264 670.4 378.536ZM640.448 417.992C658.592 417.416 686.72 416.072 711.872 414.824L711.584 426.056C686.912 427.784 660.224 429.224 641.984 430.184L640.448 417.992ZM689.024 399.752L700.256 394.568C708.704 404.936 717.728 418.568 722.336 427.784L710.432 434.12C706.4 424.904 697.088 410.312 689.024 399.752ZM660.224 345.704L673.376 349.352C667.232 364.52 657.152 379.4 647.36 388.616C644.864 386.216 639.296 381.992 636.128 380.072C646.112 372.2 655.232 359.048 660.224 345.704ZM698.912 345.8C704.576 357.128 715.52 370.568 724.352 378.632C721.184 381.032 716.768 385.64 714.56 388.712C705.536 379.016 694.496 363.848 687.392 350.504L698.912 345.8ZM796.448 349.832L804.128 343.496C808.448 346.472 814.112 350.984 816.8 354.152L808.736 361.064C806.24 357.8 800.864 353 796.448 349.832ZM732.896 359.816H819.296V371.048H732.896V359.816ZM736.448 382.088H778.016V393.224H736.448V382.088ZM751.04 388.424H762.56V420.968H751.04V388.424ZM732.8 419.336C744.416 417.608 763.232 414.344 780.512 411.08L781.376 421.352C765.536 424.808 748.544 428.36 736.064 430.952L732.8 419.336ZM780.032 343.88H792.416C791.552 383.336 798.848 421.64 807.968 421.64C810.08 421.64 811.136 416.36 811.712 404.264C814.304 406.952 818.528 409.736 821.792 410.888C820.064 429.224 816.128 433.736 807.008 433.736C786.176 433.736 780.128 388.328 780.032 343.88Z" fill="#26A69A"/>
<defs>
<filter id="filter0_d_2378_264" x="0" y="0.0117188" width="1008" height="994.988" filterUnits="userSpaceOnUse" color-interpolation-filters="sRGB">
<feFlood flood-opacity="0" result="BackgroundImageFix"/>
<feColorMatrix in="SourceAlpha" type="matrix" values="0 0 0 0 0 0 0 0 0 0 0 0 0 0 0 0 0 0 127 0" result="hardAlpha"/>
<feOffset/>
<feGaussianBlur stdDeviation="31"/>
<feComposite in2="hardAlpha" operator="out"/>
<feColorMatrix type="matrix" values="0 0 0 0 0 0 0 0 0 0 0 0 0 0 0 0 0 0 0.25 0"/>
<feBlend mode="normal" in2="BackgroundImageFix" result="effect1_dropShadow_2378_264"/>
<feBlend mode="normal" in="SourceGraphic" in2="effect1_dropShadow_2378_264" result="shape"/>
</filter>
</defs>
</svg>
