<svg width="634" height="711" viewBox="0 0 634 711" fill="none" xmlns="http://www.w3.org/2000/svg">
<g filter="url(#filter0_d_1118_48)">
<path d="M316.8 62.7998L566.8 207.137V495.813L316.8 640.15L66.8 495.813V207.137L316.8 62.7998Z" fill="white"/>
<mask id="mask0_1118_48" style="mask-type:alpha" maskUnits="userSpaceOnUse" x="92" y="114" width="449" height="518">
<path d="M316.484 114.8L540.169 243.944V502.232L316.484 631.376L92.8 502.232V243.944L316.484 114.8Z" fill="white"/>
</mask>
<g mask="url(#mask0_1118_48)">
<path fill-rule="evenodd" clip-rule="evenodd" d="M286.313 270.624C286.313 239.956 326.947 231.638 339.054 258.851C342.315 266.186 342.335 274.598 339.051 281.987C335.434 290.129 324.972 297.008 314.711 297.008C306.248 297.008 299.702 295.309 293.709 289.201C290.029 285.452 286.313 277.944 286.313 270.622V270.624ZM296.863 214.199C295.065 212.994 294.37 210.543 286.553 205.842C280.544 202.226 273.81 199.304 267.19 196.801C265.001 195.972 262.04 195.158 259.582 194.671C252.125 193.195 235.556 191.441 227.896 195.118C228.083 197.386 230.62 199.43 231.789 201.372C233.201 203.719 234.16 205.948 235.605 208.108C230.445 207.678 219.782 199.945 219.782 210.136C219.782 218.16 224.176 230.162 228.125 236.7C232.506 243.954 236.99 250.766 243.716 256.01C244.8 256.857 245.737 257.627 246.906 258.501C248.151 259.431 249.157 260.078 250.448 261.048C251.627 261.931 252.411 262.625 253.636 263.543C254.768 264.392 256.325 265.145 256.703 266.562C251.565 267.758 244.519 275.009 241.231 279.089C237.575 283.623 234.742 286.003 231.219 291.398L226.446 299.207C222.647 305.616 215.614 319.986 217.352 327.451C222.904 327.451 225.896 325.529 230.741 325.423C228.784 329.122 225.061 336.199 225.061 340.036C225.061 342.299 241.78 342.472 244.938 342.472C256.595 342.472 274.32 336.514 283.402 330.623C285.788 329.076 291.71 325.245 294.432 324.611C295.861 327.314 297.094 329.905 298.137 333.081C300.06 338.938 302.947 345.027 306.12 350.264C306.973 351.673 307.458 352.66 308.39 354.082C310.017 356.558 311.548 359.275 313.597 361.454C319.709 367.95 329.513 379 338.245 381.036C340.718 377.341 341.709 372.052 342.87 367.397L344.329 362.362C344.687 363.897 345.121 364.759 345.72 366.25C347.45 370.556 348.483 373.446 352.849 375.759C354.415 372.798 356.464 370.107 357.778 366.886C358.413 365.324 359.153 363.779 359.797 362.005C360.413 360.299 360.879 358.823 361.525 356.834C365.398 344.896 365.454 329.932 363.879 317.229C363.298 312.529 362.181 307.472 362.181 302.692C364.128 302.734 366.229 303.356 368.28 303.489C382.85 304.439 395.053 302.295 406.401 296.603C412.788 293.399 418.774 289.729 423.752 284.739C426.02 282.466 426.279 281.51 426.279 277.12C422.462 276.232 419.797 274.484 416.619 272.579L414.363 271.182C413.397 270.451 414.314 271.157 413.703 270.626C418.498 270.52 423.736 267.944 427.903 266.973C427.373 264.705 425.713 263.188 424.309 261.637L410.925 250.674C407.705 248.428 404.379 246.681 400.728 245.045C394.685 242.337 389.062 240.597 381.962 239.06C380.121 238.66 378.575 238.458 376.79 238.147L365.879 236.885C364.017 236.56 362.457 235.757 360.559 235.713C360.785 234.736 364.207 229.686 366.564 221.02C370.193 207.678 370.942 191.751 365.837 178.878C364.18 174.697 361.576 168.478 357.716 165.894C354.728 166.693 348.653 175.583 345.547 177.666C345.547 173.369 346.359 168.934 346.359 164.27C346.359 162.87 346.058 162.698 345.951 161.429C341.019 161.429 336.177 164.126 332.324 166.466C325.825 170.413 319.716 175.245 315.175 181.376C303.83 196.685 302.114 208.942 300.223 211.067C299.161 212.261 298.117 213.36 296.865 214.201L296.863 214.199Z" fill="#E64C4C"/>
<path fill-rule="evenodd" clip-rule="evenodd" d="M297.052 271.239C297.052 262.789 303.823 253.927 312.636 253.927C321.678 253.927 330.222 260.167 330.222 270.434C330.222 285.195 313.951 292.213 302.361 282.395C299.359 279.851 297.052 275.227 297.052 271.239ZM313.037 294.591C319.825 294.591 326.096 291.798 329.919 288.65C346.513 274.982 335.235 246.277 315.036 246.277C310.256 246.277 307.629 246.605 303.437 248.684C299.444 250.664 297.763 252.194 295.143 255.225C285.003 266.941 289.45 286.622 303.211 292.417C305.671 293.452 309.795 294.591 313.037 294.591Z" fill="#E64C4C"/>
</g>
<path d="M379.365 433.547H410.806V445.755H392.006V528.84H379.365V433.547ZM322.427 437.76H374.719V448.997H322.427V437.76ZM320.158 468.012H376.016V479.681H320.158V468.012ZM342.307 428.145H354.84V444.783H342.307V428.145ZM328.694 452.022L339.39 449.753C341.551 454.615 343.171 461.205 343.819 465.527L332.475 468.228C332.151 463.798 330.53 457.1 328.694 452.022ZM357.649 449.321L369.75 451.914C367.373 457.964 365.212 464.123 363.267 468.228L353.111 465.743C354.84 461.205 356.784 454.291 357.649 449.321ZM330.746 512.309H364.131V523.546H330.746V512.309ZM326.317 486.811H371.154V528.516H358.621V498.048H338.309V528.948H326.317V486.811ZM407.456 433.547H409.941L411.994 433.114L421.502 439.057C417.612 449.537 412.858 461.962 408.645 471.253C417.612 480.869 419.341 489.404 419.449 496.643C419.449 504.638 417.612 509.932 413.507 512.742C411.346 514.254 408.861 515.118 406.052 515.551C403.567 515.875 400.542 515.875 397.408 515.767C397.3 512.201 396.22 506.691 394.167 503.126C396.544 503.234 398.705 503.342 400.325 503.234C401.838 503.234 403.243 502.91 404.323 502.261C406.16 501.073 406.916 498.696 406.916 494.915C406.808 489.08 404.539 481.193 395.788 472.766C400.109 462.394 405.079 445.647 407.456 438.084V433.547Z" fill="#E64C4C"/>
<path d="M214.709 448.348H310.326V461.529H214.709V448.348ZM236.966 497.399H287.097V510.58H236.966V497.399ZM255.441 427.388H269.27V528.839H255.441V427.388ZM251.551 453.102L263.436 456.883C254.144 480.436 238.802 501.072 219.895 512.957C217.734 509.716 213.413 504.746 210.495 502.153C228.214 492.429 243.88 472.981 251.551 453.102ZM273.16 453.426C281.047 472.657 296.821 491.457 314.972 500.856C311.731 503.557 307.085 508.96 304.924 512.633C285.909 500.964 270.783 480.328 261.383 457.315L273.16 453.426Z" fill="#E64C4C"/>
</g>
<defs>
<filter id="filter0_d_1118_48" x="4.57764e-05" y="-0.000198364" width="633.6" height="710.951" filterUnits="userSpaceOnUse" color-interpolation-filters="sRGB">
<feFlood flood-opacity="0" result="BackgroundImageFix"/>
<feColorMatrix in="SourceAlpha" type="matrix" values="0 0 0 0 0 0 0 0 0 0 0 0 0 0 0 0 0 0 127 0" result="hardAlpha"/>
<feOffset dy="4"/>
<feGaussianBlur stdDeviation="33.4"/>
<feComposite in2="hardAlpha" operator="out"/>
<feColorMatrix type="matrix" values="0 0 0 0 0 0 0 0 0 0 0 0 0 0 0 0 0 0 0.25 0"/>
<feBlend mode="normal" in2="BackgroundImageFix" result="effect1_dropShadow_1118_48"/>
<feBlend mode="normal" in="SourceGraphic" in2="effect1_dropShadow_1118_48" result="shape"/>
</filter>
</defs>
</svg>
