<svg width="500" height="578" viewBox="0 0 500 578" fill="none" xmlns="http://www.w3.org/2000/svg">
<path d="M250 0L500 144.338V433.013L250 577.35L0 433.013V144.338L250 0Z" fill="white"/>
<mask id="mask0_1118_48" style="mask-type:alpha" maskUnits="userSpaceOnUse" x="26" y="52" width="448" height="517">
<path d="M249.684 52L473.368 181.144V439.432L249.684 568.577L26 439.432V181.144L249.684 52Z" fill="white"/>
</mask>
<g mask="url(#mask0_1118_48)">
<path fill-rule="evenodd" clip-rule="evenodd" d="M219.513 207.824C219.513 177.156 260.147 168.839 272.254 196.051C275.515 203.386 275.535 211.798 272.251 219.187C268.634 227.329 258.172 234.208 247.911 234.208C239.448 234.208 232.902 232.51 226.909 226.402C223.229 222.652 219.513 215.145 219.513 207.822V207.824ZM230.063 151.399C228.265 150.194 227.57 147.744 219.753 143.042C213.744 139.426 207.01 136.504 200.39 134.002C198.201 133.172 195.24 132.358 192.782 131.871C185.325 130.395 168.756 128.641 161.096 132.319C161.283 134.587 163.82 136.63 164.989 138.572C166.401 140.919 167.36 143.148 168.805 145.308C163.645 144.878 152.982 137.146 152.982 147.337C152.982 155.36 157.376 167.363 161.325 173.9C165.706 181.154 170.19 187.966 176.916 193.211C178 194.057 178.937 194.827 180.106 195.701C181.351 196.632 182.357 197.278 183.648 198.248C184.827 199.132 185.611 199.825 186.836 200.743C187.968 201.592 189.525 202.345 189.903 203.762C184.765 204.958 177.719 212.21 174.431 216.29C170.775 220.823 167.942 223.203 164.419 228.598L159.646 236.407C155.847 242.817 148.814 257.186 150.552 264.652C156.104 264.652 159.096 262.729 163.941 262.623C161.984 266.323 158.261 273.399 158.261 277.236C158.261 279.5 174.98 279.672 178.138 279.672C189.795 279.672 207.52 273.715 216.602 267.823C218.988 266.276 224.91 262.445 227.632 261.811C229.061 264.514 230.294 267.105 231.337 270.281C233.26 276.138 236.147 282.227 239.32 287.464C240.173 288.874 240.658 289.861 241.59 291.282C243.217 293.758 244.748 296.475 246.797 298.655C252.909 305.15 262.713 316.2 271.445 318.236C273.918 314.541 274.909 309.252 276.07 304.597L277.529 299.563C277.887 301.098 278.321 301.959 278.92 303.45C280.65 307.757 281.683 310.647 286.049 312.96C287.615 309.998 289.664 307.308 290.978 304.087C291.613 302.524 292.353 300.979 292.997 299.205C293.613 297.499 294.079 296.023 294.725 294.034C298.598 282.096 298.654 267.132 297.079 254.429C296.498 249.73 295.381 244.672 295.381 239.892C297.328 239.934 299.428 240.556 301.48 240.689C316.05 241.64 328.253 239.495 339.601 233.803C345.988 230.599 351.974 226.929 356.952 221.939C359.22 219.666 359.478 218.711 359.478 214.32C355.662 213.432 352.997 211.684 349.819 209.779L347.563 208.382C346.597 207.651 347.514 208.357 346.903 207.827C351.698 207.72 356.936 205.144 361.103 204.174C360.573 201.906 358.913 200.388 357.509 198.838L344.125 187.875C340.905 185.628 337.579 183.882 333.928 182.245C327.885 179.537 322.262 177.797 315.162 176.26C313.321 175.86 311.775 175.658 309.99 175.347L299.079 174.085C297.217 173.76 295.657 172.957 293.759 172.913C293.985 171.936 297.407 166.886 299.764 158.221C303.393 144.878 304.142 128.952 299.037 116.078C297.38 111.898 294.776 105.678 290.916 103.094C287.928 103.893 281.853 112.783 278.747 114.867C278.747 110.569 279.558 106.135 279.558 101.47C279.558 100.07 279.258 99.8978 279.151 98.6289C274.219 98.6289 269.377 101.326 265.524 103.666C259.025 107.613 252.916 112.446 248.375 118.576C237.03 133.886 235.314 146.142 233.422 148.267C232.36 149.461 231.317 150.56 230.065 151.401L230.063 151.399Z" fill="#E64C4C"/>
<path fill-rule="evenodd" clip-rule="evenodd" d="M230.252 208.44C230.252 199.989 237.023 191.128 245.836 191.128C254.878 191.128 263.422 197.368 263.422 207.634C263.422 222.395 247.15 229.414 235.561 219.595C232.559 217.052 230.252 212.428 230.252 208.44ZM246.237 231.791C253.025 231.791 259.296 228.998 263.119 225.85C279.713 212.183 268.435 183.478 248.236 183.478C243.456 183.478 240.829 183.805 236.636 185.884C232.644 187.864 230.963 189.394 228.343 192.425C218.203 204.141 222.65 223.822 236.411 229.617C238.871 230.652 242.995 231.791 246.237 231.791Z" fill="#E64C4C"/>
</g>
<path d="M312.565 370.747H344.006V382.956H325.206V466.04H312.565V370.747ZM255.627 374.96H307.919V386.197H255.627V374.96ZM253.358 405.212H309.216V416.881H253.358V405.212ZM275.507 365.345H288.04V381.983H275.507V365.345ZM261.893 389.222L272.59 386.953C274.751 391.815 276.371 398.406 277.019 402.727L265.675 405.428C265.351 400.999 263.73 394.3 261.893 389.222ZM290.849 386.521L302.95 389.114C300.573 395.164 298.412 401.323 296.467 405.428L286.311 402.943C288.04 398.406 289.984 391.491 290.849 386.521ZM263.946 449.51H297.331V460.746H263.946V449.51ZM259.517 424.012H304.354V465.716H291.821V435.248H271.509V466.148H259.517V424.012ZM340.656 370.747H343.141L345.194 370.315L354.702 376.257C350.812 386.737 346.058 399.162 341.845 408.454C350.812 418.069 352.541 426.605 352.649 433.843C352.649 441.839 350.812 447.133 346.707 449.942C344.546 451.454 342.061 452.319 339.252 452.751C336.767 453.075 333.742 453.075 330.608 452.967C330.5 449.402 329.42 443.891 327.367 440.326C329.744 440.434 331.905 440.542 333.525 440.434C335.038 440.434 336.443 440.11 337.523 439.462C339.36 438.273 340.116 435.896 340.116 432.115C340.008 426.281 337.739 418.393 328.988 409.966C333.309 399.594 338.279 382.848 340.656 375.285V370.747Z" fill="#E64C4C"/>
<path d="M147.909 385.548H243.526V398.729H147.909V385.548ZM170.166 434.599H220.297V447.78H170.166V434.599ZM188.641 364.588H202.47V466.04H188.641V364.588ZM184.751 390.302L196.636 394.083C187.344 417.637 172.002 438.273 153.095 450.157C150.934 446.916 146.612 441.946 143.695 439.353C161.414 429.629 177.08 410.182 184.751 390.302ZM206.36 390.626C214.247 409.858 230.021 428.657 248.172 438.057C244.931 440.758 240.285 446.16 238.124 449.833C219.109 438.165 203.983 417.529 194.583 394.516L206.36 390.626Z" fill="#E64C4C"/>
</svg>
