<svg width="1008" height="1186" viewBox="0 0 1008 1186" fill="none" xmlns="http://www.w3.org/2000/svg">
<g filter="url(#filter0_d_2362_225)">
<path d="M515.86 94.9288C506.306 88.3623 493.694 88.3623 484.14 94.9288L138.596 332.429C130.996 337.652 126.456 346.282 126.456 355.504V830.504C126.456 839.725 130.996 848.356 138.596 853.579L484.14 1091.08C493.694 1097.65 506.306 1097.65 515.86 1091.08L861.404 853.579C869.004 848.356 873.544 839.725 873.544 830.504V355.504C873.544 346.282 869.004 337.652 861.404 332.429L515.86 94.9288Z" fill="#E84C4D" stroke="white" stroke-width="56" stroke-linejoin="round"/>
<mask id="mask0_2362_225" style="mask-type:alpha" maskUnits="userSpaceOnUse" x="154" y="118" width="692" height="951">
<path d="M500 118.004L845.544 355.504V830.504L500 1068L154.456 830.504V355.504L500 118.004Z" fill="#E84C4D"/>
</mask>
<g mask="url(#mask0_2362_225)">
<path fill-rule="evenodd" clip-rule="evenodd" d="M629.589 436.573C629.589 398.216 680.408 387.814 695.55 421.849C699.63 431.023 699.655 441.543 695.547 450.784C691.024 460.968 677.939 469.571 665.106 469.571C654.521 469.571 646.334 467.447 638.839 459.808C634.236 455.118 629.589 445.729 629.589 436.57V436.573ZM642.783 366.003C640.535 364.496 639.666 361.431 629.888 355.551C622.374 351.029 613.951 347.374 605.672 344.244C602.934 343.206 599.231 342.188 596.156 341.58C586.83 339.734 566.107 337.539 556.527 342.139C556.761 344.976 559.934 347.531 561.396 349.961C563.162 352.896 564.361 355.683 566.168 358.385C559.715 357.848 546.38 348.176 546.38 360.922C546.38 370.957 551.874 385.968 556.813 394.145C562.293 403.217 567.901 411.736 576.313 418.296C577.669 419.355 578.841 420.318 580.302 421.411C581.859 422.575 583.118 423.383 584.733 424.596C586.207 425.701 587.187 426.569 588.72 427.717C590.135 428.779 592.083 429.72 592.555 431.492C586.13 432.989 577.317 442.058 573.205 447.161C568.632 452.831 565.089 455.807 560.684 462.554L554.714 472.321C549.962 480.338 541.166 498.309 543.339 507.646C550.283 507.646 554.026 505.242 560.085 505.109C557.637 509.736 552.981 518.586 552.981 523.386C552.981 526.216 573.892 526.432 577.842 526.432C592.42 526.432 614.589 518.981 625.948 511.613C628.932 509.678 636.338 504.886 639.742 504.093C641.53 507.474 643.072 510.715 644.377 514.687C646.782 522.012 650.392 529.627 654.36 536.177C655.427 537.94 656.034 539.175 657.2 540.953C659.235 544.049 661.15 547.448 663.712 550.173C671.356 558.297 683.618 572.117 694.539 574.664C697.632 570.043 698.871 563.427 700.323 557.606L702.149 551.309C702.596 553.229 703.139 554.306 703.888 556.171C706.052 561.557 707.344 565.172 712.804 568.064C714.763 564.36 717.325 560.996 718.969 556.967C719.763 555.013 720.689 553.081 721.494 550.862C722.264 548.729 722.847 546.883 723.655 544.395C728.499 529.464 728.57 510.749 726.599 494.861C725.872 488.983 724.475 482.658 724.475 476.68C726.911 476.732 729.538 477.51 732.103 477.677C750.326 478.865 765.588 476.183 779.78 469.064C787.769 465.058 795.255 460.468 801.481 454.226C804.318 451.384 804.641 450.189 804.641 444.698C799.868 443.586 796.535 441.401 792.561 439.018L789.739 437.27C788.531 436.356 789.678 437.24 788.913 436.576C794.91 436.443 801.462 433.221 806.673 432.007C806.01 429.171 803.935 427.272 802.178 425.334L785.438 411.622C781.412 408.813 777.252 406.628 772.685 404.582C765.128 401.195 758.096 399.019 749.216 397.096C746.912 396.596 744.979 396.343 742.747 395.954L729.1 394.376C726.772 393.969 724.82 392.966 722.447 392.91C722.73 391.688 727.01 385.372 729.957 374.534C734.496 357.848 735.433 337.928 729.048 321.828C726.975 316.599 723.719 308.82 718.891 305.588C715.154 306.588 707.557 317.707 703.672 320.312C703.672 314.938 704.687 309.391 704.687 303.557C704.687 301.807 704.31 301.591 704.177 300.004C698.008 300.004 691.952 303.378 687.133 306.304C679.006 311.24 671.365 317.284 665.686 324.952C651.496 344.099 649.35 359.428 646.985 362.086C645.657 363.579 644.352 364.953 642.786 366.006L642.783 366.003Z" fill="white"/>
<path fill-rule="evenodd" clip-rule="evenodd" d="M643.02 437.343C643.02 426.774 651.488 415.691 662.511 415.691C673.82 415.691 684.506 423.495 684.506 436.335C684.506 454.797 664.155 463.575 649.659 451.295C645.905 448.114 643.02 442.33 643.02 437.343ZM663.012 466.548C671.502 466.548 679.345 463.055 684.126 459.118C704.881 442.024 690.775 406.123 665.512 406.123C659.534 406.123 656.248 406.533 651.005 409.133C646.012 411.61 643.909 413.523 640.632 417.313C627.951 431.966 633.512 456.582 650.723 463.829C653.8 465.124 658.957 466.548 663.012 466.548Z" fill="white"/>
<path fill-rule="evenodd" clip-rule="evenodd" d="M629.589 436.573C629.589 398.216 680.408 387.814 695.55 421.849C699.63 431.023 699.655 441.543 695.547 450.784C691.024 460.968 677.939 469.571 665.106 469.571C654.521 469.571 646.334 467.447 638.839 459.808C634.236 455.118 629.589 445.729 629.589 436.57V436.573ZM642.783 366.003C640.535 364.496 639.666 361.431 629.888 355.551C622.374 351.029 613.951 347.374 605.672 344.244C602.934 343.206 599.231 342.188 596.156 341.58C586.83 339.734 566.107 337.539 556.527 342.139C556.761 344.976 559.934 347.531 561.396 349.961C563.162 352.896 564.361 355.683 566.168 358.385C559.715 357.848 546.38 348.176 546.38 360.922C546.38 370.957 551.874 385.968 556.813 394.145C562.293 403.217 567.901 411.736 576.313 418.296C577.669 419.355 578.841 420.318 580.302 421.411C581.859 422.575 583.118 423.383 584.733 424.596C586.207 425.701 587.187 426.569 588.72 427.717C590.135 428.779 592.083 429.72 592.555 431.492C586.13 432.989 577.317 442.058 573.205 447.161C568.632 452.831 565.089 455.807 560.684 462.554L554.714 472.321C549.962 480.338 541.166 498.309 543.339 507.646C550.283 507.646 554.026 505.242 560.085 505.109C557.637 509.736 552.981 518.586 552.981 523.386C552.981 526.216 573.892 526.432 577.842 526.432C592.42 526.432 614.589 518.981 625.948 511.613C628.932 509.678 636.338 504.886 639.742 504.093C641.53 507.474 643.072 510.715 644.377 514.687C646.782 522.012 650.392 529.627 654.36 536.177C655.427 537.94 656.034 539.175 657.2 540.953C659.235 544.049 661.15 547.448 663.712 550.173C671.356 558.297 683.618 572.117 694.539 574.664C697.632 570.043 698.871 563.427 700.323 557.606L702.149 551.309C702.596 553.229 703.139 554.306 703.888 556.171C706.052 561.557 707.344 565.172 712.804 568.064C714.763 564.36 717.325 560.996 718.969 556.967C719.763 555.013 720.689 553.081 721.494 550.862C722.264 548.729 722.847 546.883 723.655 544.395C728.499 529.464 728.57 510.749 726.599 494.861C725.872 488.983 724.475 482.658 724.475 476.68C726.911 476.732 729.538 477.51 732.103 477.677C750.326 478.865 765.588 476.183 779.78 469.064C787.769 465.058 795.255 460.468 801.481 454.226C804.318 451.384 804.641 450.189 804.641 444.698C799.868 443.586 796.535 441.401 792.561 439.018L789.739 437.27C788.531 436.356 789.678 437.24 788.913 436.576C794.91 436.443 801.462 433.221 806.673 432.007C806.01 429.171 803.935 427.272 802.178 425.334L785.438 411.622C781.412 408.813 777.252 406.628 772.685 404.582C765.128 401.195 758.096 399.019 749.216 397.096C746.912 396.596 744.979 396.343 742.747 395.954L729.1 394.376C726.772 393.969 724.82 392.966 722.447 392.91C722.73 391.688 727.01 385.372 729.957 374.534C734.496 357.848 735.433 337.928 729.048 321.828C726.975 316.599 723.719 308.82 718.891 305.588C715.154 306.588 707.557 317.707 703.672 320.312C703.672 314.938 704.687 309.391 704.687 303.557C704.687 301.807 704.31 301.591 704.177 300.004C698.008 300.004 691.952 303.378 687.133 306.304C679.006 311.24 671.365 317.284 665.686 324.952C651.496 344.099 649.35 359.428 646.985 362.086C645.657 363.579 644.352 364.953 642.786 366.006L642.783 366.003Z" fill="white"/>
<path fill-rule="evenodd" clip-rule="evenodd" d="M643.02 437.343C643.02 426.774 651.488 415.691 662.511 415.691C673.82 415.691 684.506 423.495 684.506 436.335C684.506 454.797 664.155 463.575 649.659 451.295C645.905 448.114 643.02 442.33 643.02 437.343ZM663.012 466.548C671.502 466.548 679.345 463.055 684.126 459.118C704.881 442.024 690.775 406.123 665.512 406.123C659.534 406.123 656.248 406.533 651.005 409.133C646.012 411.61 643.909 413.523 640.632 417.313C627.951 431.966 633.512 456.582 650.723 463.829C653.8 465.124 658.957 466.548 663.012 466.548Z" fill="white"/>
</g>
<rect x="62" y="611.004" width="884" height="233" rx="35" fill="white"/>
<path fill-rule="evenodd" clip-rule="evenodd" d="M506.183 101L148.272 347V839L506.183 1085V101Z" fill="white"/>
<path d="M326.69 750.532L317.346 730.052L359.97 686.404H391.33L326.69 750.532ZM307.49 776.004V686.404H335.138V776.004H307.49ZM363.682 776.004L331.17 733.636L349.09 718.148L395.042 776.004H363.682ZM420.158 777.156C414.441 777.156 409.363 775.663 404.926 772.676C400.489 769.604 396.99 765.423 394.43 760.132C391.87 754.756 390.59 748.612 390.59 741.7C390.59 734.703 391.827 728.559 394.302 723.268C396.862 717.892 400.361 713.711 404.798 710.724C409.321 707.652 414.526 706.116 420.414 706.116C423.486 706.116 426.302 706.543 428.862 707.396C431.422 708.249 433.683 709.444 435.646 710.98C437.609 712.516 439.315 714.308 440.766 716.356C442.217 718.319 443.454 720.452 444.478 722.756L439.23 722.628V707.524H464.702V776.004H438.59V759.236L444.35 759.748C443.497 762.223 442.302 764.527 440.766 766.66C439.315 768.793 437.566 770.628 435.518 772.164C433.47 773.7 431.166 774.937 428.606 775.876C426.046 776.729 423.23 777.156 420.158 777.156ZM427.582 756.036C430.057 756.036 432.147 755.481 433.854 754.372C435.646 753.263 436.969 751.641 437.822 749.508C438.761 747.375 439.23 744.772 439.23 741.7C439.23 738.628 438.761 736.025 437.822 733.892C436.969 731.673 435.646 730.009 433.854 728.9C432.147 727.791 430.057 727.236 427.582 727.236C425.107 727.236 423.017 727.791 421.31 728.9C419.603 730.009 418.281 731.673 417.342 733.892C416.489 736.025 416.062 738.628 416.062 741.7C416.062 744.772 416.489 747.375 417.342 749.508C418.281 751.641 419.603 753.263 421.31 754.372C423.017 755.481 425.107 756.036 427.582 756.036ZM482.969 776.004V707.524H508.953V776.004H482.969ZM496.025 695.108C491.417 695.108 487.79 694.041 485.145 691.908C482.585 689.775 481.305 686.745 481.305 682.82C481.305 679.236 482.628 676.292 485.273 673.988C487.918 671.684 491.502 670.532 496.025 670.532C500.633 670.532 504.217 671.599 506.777 673.732C509.422 675.865 510.745 678.895 510.745 682.82C510.745 686.404 509.422 689.348 506.777 691.652C504.132 693.956 500.548 695.108 496.025 695.108ZM524.775 750.66V727.62H574.439V750.66H524.775ZM590.219 776.004V707.524H616.203V776.004H590.219ZM603.275 695.108C598.667 695.108 595.04 694.041 592.395 691.908C589.835 689.775 588.555 686.745 588.555 682.82C588.555 679.236 589.878 676.292 592.523 673.988C595.168 671.684 598.752 670.532 603.275 670.532C607.883 670.532 611.467 671.599 614.027 673.732C616.672 675.865 617.995 678.895 617.995 682.82C617.995 686.404 616.672 689.348 614.027 691.652C611.382 693.956 607.798 695.108 603.275 695.108ZM634.585 776.004V707.524H658.649L659.929 721.348L654.425 722.884C655.364 719.641 657.028 716.783 659.417 714.308C661.892 711.748 664.836 709.743 668.249 708.292C671.662 706.841 675.289 706.116 679.129 706.116C684.249 706.116 688.601 707.183 692.185 709.316C695.769 711.449 698.457 714.607 700.249 718.788C702.126 722.884 703.065 727.876 703.065 733.764V776.004H677.081V735.94C677.081 734.063 676.782 732.484 676.185 731.204C675.588 729.924 674.692 728.943 673.497 728.26C672.302 727.577 670.894 727.236 669.273 727.236C667.993 727.236 666.798 727.449 665.689 727.876C664.665 728.217 663.769 728.772 663.001 729.54C662.233 730.308 661.636 731.161 661.209 732.1C660.782 733.039 660.569 734.105 660.569 735.3V776.004H647.641C644.398 776.004 641.668 776.004 639.449 776.004C637.316 776.004 635.694 776.004 634.585 776.004Z" fill="#E84C4D"/>
<path d="M265.8 381.454C292.65 380.704 334.35 379.204 372.15 377.554L371.55 394.054C334.8 396.154 295.2 397.954 268.2 399.004L265.8 381.454ZM265.05 336.754H389.85V353.554H265.05V336.754ZM291.75 307.954H362.1V324.454H291.75V307.954ZM301.8 347.704L322.35 353.404C315.3 367.504 307.2 383.104 300.45 393.154L284.7 387.904C290.85 376.954 298.05 360.304 301.8 347.704ZM339 363.154L354.9 354.904C368.4 366.454 382.35 382.204 389.25 393.604L372.6 403.654C366.3 392.254 351.9 375.154 339 363.154ZM326.85 280.204C314.7 297.304 291.3 316.504 266.4 328.354C264.3 324.004 259.5 317.254 255.75 313.354C281.4 302.104 305.4 280.654 316.5 262.954H335.55C351.45 285.004 375.3 302.104 399.15 310.654C394.8 315.154 390.75 321.604 387.45 327.004C364.95 316.504 339.6 297.604 326.85 280.204ZM296.7 469.404V479.004H357.6V469.404H296.7ZM278.7 455.454H376.8V493.104H278.7V455.454ZM289.8 528.804V535.104H363.45V528.804H289.8ZM289.8 546.654V553.104H363.45V546.654H289.8ZM289.8 510.954V517.254H363.45V510.954H289.8ZM271.8 498.654H382.2V565.254H271.8V498.654ZM300.9 562.254L316.95 573.504C304.95 580.554 285.45 587.904 270.15 591.504C266.85 587.754 260.85 582.054 256.5 578.604C272.25 575.154 291.45 568.104 300.9 562.254ZM333.9 574.404L349.65 563.004C365.55 567.204 385.65 574.254 398.1 579.054L382.35 591.804C370.65 586.404 349.95 578.904 333.9 574.404Z" fill="#E84C4D"/>
</g>
<defs>
<filter id="filter0_d_2362_225" x="0" y="0.00390625" width="1008" height="1186" filterUnits="userSpaceOnUse" color-interpolation-filters="sRGB">
<feFlood flood-opacity="0" result="BackgroundImageFix"/>
<feColorMatrix in="SourceAlpha" type="matrix" values="0 0 0 0 0 0 0 0 0 0 0 0 0 0 0 0 0 0 127 0" result="hardAlpha"/>
<feOffset/>
<feGaussianBlur stdDeviation="31"/>
<feComposite in2="hardAlpha" operator="out"/>
<feColorMatrix type="matrix" values="0 0 0 0 0 0 0 0 0 0 0 0 0 0 0 0 0 0 0.25 0"/>
<feBlend mode="normal" in2="BackgroundImageFix" result="effect1_dropShadow_2362_225"/>
<feBlend mode="normal" in="SourceGraphic" in2="effect1_dropShadow_2362_225" result="shape"/>
</filter>
</defs>
</svg>
