<svg width="500" height="578" viewBox="0 0 500 578" fill="none" xmlns="http://www.w3.org/2000/svg">
<path d="M250 0L500 144.338V433.013L250 577.35L0 433.013V144.338L250 0Z" fill="white"/>
<mask id="mask0_1118_69" style="mask-type:alpha" maskUnits="userSpaceOnUse" x="26" y="30" width="448" height="517">
<path d="M250 30.3867L473.684 159.531V417.819L250 546.963L26.3157 417.819V159.531L250 30.3867Z" fill="white"/>
</mask>
<g mask="url(#mask0_1118_69)">
<path d="M250.844 164.596C250.844 339.224 455.469 330.348 532.767 339.224V566.335L1.60682 612.802L-241.254 482.278V313.119C-115.558 250.294 250.844 64.5515 250.844 164.596Z" fill="#84C3B0"/>
<path d="M144.391 323.931C171.716 391.562 -0.670886 414.199 -47.9598 421.37V604.861L276.992 642.403L425.569 536.949L554.291 449.894C477.393 399.136 84.9827 176.892 144.391 323.931Z" fill="#9DD6BB"/>
</g>
<path d="M338.27 154H402.88V166.101H338.27V154ZM332.004 154H344.321V191.815C344.321 209.858 342.592 235.572 330.599 251.454C328.439 249.293 322.928 245.836 320.011 244.431C331.032 229.846 332.004 208.129 332.004 191.815V154ZM397.586 154H410.334C409.794 196.677 409.794 237.192 414.98 237.192C415.845 237.192 416.601 230.494 416.709 221.85C418.87 225.416 421.787 229.738 424.056 232.006C422.867 245.188 420.382 251.238 413.576 251.238C396.505 251.238 397.694 205.428 397.586 154ZM364.741 179.39H375.977V236.112H364.741V179.39ZM357.934 198.189V210.074H383.108V198.189H357.934ZM347.994 188.357H393.588V219.906H347.994V188.357ZM387.646 167.721L396.181 177.013C382.784 180.47 364.2 182.199 348.534 182.739C348.21 180.038 346.698 175.716 345.401 173.123C360.419 172.259 377.49 170.53 387.646 167.721ZM343.132 232.331C355.449 231.79 374.14 230.602 391.967 229.413V240.002C374.897 241.514 356.962 242.919 343.997 243.891L343.132 232.331ZM380.515 223.147L390.347 220.122C394.776 227.577 399.098 237.517 400.503 244.215L389.915 247.673C388.726 241.19 384.728 230.926 380.515 223.147Z" fill="#84C3B0"/>
</svg>
