<svg width="634" height="711" viewBox="0 0 634 711" fill="none" xmlns="http://www.w3.org/2000/svg">
<g filter="url(#filter0_d_1118_69)">
<path d="M316.8 62.7998L566.8 207.137V495.813L316.8 640.15L66.8 495.813V207.137L316.8 62.7998Z" fill="white"/>
<mask id="mask0_1118_69" style="mask-type:alpha" maskUnits="userSpaceOnUse" x="93" y="93" width="448" height="517">
<path d="M316.8 93.1865L540.484 222.331V480.619L316.8 609.763L93.1157 480.619V222.331L316.8 93.1865Z" fill="white"/>
</mask>
<g mask="url(#mask0_1118_69)">
<path d="M317.644 227.396C317.644 402.024 522.269 393.148 599.567 402.024V629.135L68.4069 675.601L-174.454 545.078V375.919C-48.7582 313.094 317.644 127.351 317.644 227.396Z" fill="#84C3B0"/>
<path d="M211.191 386.73C238.517 454.362 66.1292 476.999 18.8402 484.17V667.661L343.792 705.202L492.369 599.748L621.091 512.694C544.193 461.936 151.783 239.692 211.191 386.73Z" fill="#9DD6BB"/>
</g>
<path d="M405.07 216.8H469.68V228.901H405.07V216.8ZM398.804 216.8H411.121V254.615C411.121 272.658 409.392 298.372 397.399 314.254C395.239 312.093 389.728 308.636 386.811 307.231C397.832 292.645 398.804 270.929 398.804 254.615V216.8ZM464.386 216.8H477.135C476.594 259.476 476.594 299.992 481.78 299.992C482.645 299.992 483.401 293.294 483.509 284.65C485.67 288.216 488.587 292.537 490.856 294.806C489.667 307.987 487.182 314.038 480.376 314.038C463.305 314.038 464.494 268.228 464.386 216.8ZM431.541 242.19H442.777V298.912H431.541V242.19ZM424.734 260.989V272.874H449.908V260.989H424.734ZM414.794 251.157H460.388V282.706H414.794V251.157ZM454.446 230.521L462.981 239.813C449.584 243.27 431.001 244.999 415.334 245.539C415.01 242.838 413.498 238.516 412.201 235.923C427.219 235.059 444.29 233.33 454.446 230.521ZM409.932 295.13C422.249 294.59 440.94 293.402 458.767 292.213V302.801C441.697 304.314 423.762 305.719 410.797 306.691L409.932 295.13ZM447.315 285.947L457.147 282.922C461.576 290.377 465.898 300.316 467.303 307.015L456.715 310.472C455.526 303.99 451.529 293.726 447.315 285.947Z" fill="#84C3B0"/>
</g>
<defs>
<filter id="filter0_d_1118_69" x="4.57764e-05" y="-0.000198364" width="633.6" height="710.951" filterUnits="userSpaceOnUse" color-interpolation-filters="sRGB">
<feFlood flood-opacity="0" result="BackgroundImageFix"/>
<feColorMatrix in="SourceAlpha" type="matrix" values="0 0 0 0 0 0 0 0 0 0 0 0 0 0 0 0 0 0 127 0" result="hardAlpha"/>
<feOffset dy="4"/>
<feGaussianBlur stdDeviation="33.4"/>
<feComposite in2="hardAlpha" operator="out"/>
<feColorMatrix type="matrix" values="0 0 0 0 0 0 0 0 0 0 0 0 0 0 0 0 0 0 0.25 0"/>
<feBlend mode="normal" in2="BackgroundImageFix" result="effect1_dropShadow_1118_69"/>
<feBlend mode="normal" in="SourceGraphic" in2="effect1_dropShadow_1118_69" result="shape"/>
</filter>
</defs>
</svg>
