<svg width="553" height="160" viewBox="0 0 553 160" fill="none" xmlns="http://www.w3.org/2000/svg">
<path d="M28.669 102.272L20.733 82.56L64.125 38.4H93.309L28.669 102.272ZM10.749 128V38.4H36.093V128H10.749ZM67.453 128L34.685 84.992L51.325 70.656L96.509 128H67.453ZM195.065 128V42.496H218.873V128H195.065ZM183.801 80V59.776H230.777V80H183.801ZM268.256 129.28C261.173 129.28 254.944 128.171 249.568 125.952C244.192 123.733 240.011 120.875 237.024 117.376L250.976 105.344C253.707 107.819 256.779 109.653 260.192 110.848C263.691 112.043 266.763 112.64 269.408 112.64C270.347 112.64 271.2 112.555 271.968 112.384C272.736 112.213 273.333 111.957 273.76 111.616C274.272 111.189 274.656 110.763 274.912 110.336C275.253 109.824 275.424 109.269 275.424 108.672C275.424 107.221 274.699 106.112 273.248 105.344C272.48 105.003 271.2 104.576 269.408 104.064C267.701 103.467 265.397 102.827 262.496 102.144C258.912 101.205 255.712 100.096 252.896 98.816C250.08 97.4507 247.691 95.872 245.728 94.08C243.851 92.288 242.357 90.24 241.248 87.936C240.224 85.5467 239.712 82.944 239.712 80.128C239.712 76.7147 240.48 73.6853 242.016 71.04C243.552 68.3947 245.685 66.1333 248.416 64.256C251.147 62.2933 254.219 60.8427 257.632 59.904C261.045 58.88 264.544 58.368 268.128 58.368C272.139 58.368 275.893 58.7947 279.392 59.648C282.976 60.416 286.304 61.568 289.376 63.104C292.533 64.5547 295.349 66.3467 297.824 68.48L285.536 82.048C284.085 80.768 282.379 79.5733 280.416 78.464C278.539 77.3547 276.576 76.4587 274.528 75.776C272.48 75.008 270.56 74.624 268.768 74.624C267.659 74.624 266.72 74.7093 265.952 74.88C265.184 75.0507 264.544 75.3067 264.032 75.648C263.52 75.9893 263.136 76.416 262.88 76.928C262.624 77.44 262.496 77.9947 262.496 78.592C262.496 79.36 262.709 80.0853 263.136 80.768C263.563 81.4507 264.245 82.0053 265.184 82.432C265.952 82.8587 267.232 83.4133 269.024 84.096C270.901 84.6933 273.589 85.4613 277.088 86.4C281.013 87.5093 284.427 88.7893 287.328 90.24C290.229 91.6907 292.576 93.3547 294.368 95.232C295.648 96.6827 296.629 98.304 297.312 100.096C297.995 101.803 298.336 103.723 298.336 105.856C298.336 110.379 297.013 114.432 294.368 118.016C291.808 121.515 288.267 124.288 283.744 126.336C279.221 128.299 274.059 129.28 268.256 129.28ZM332.25 129.408C327.13 129.408 322.778 128.341 319.194 126.208C315.61 123.989 312.879 120.832 311.002 116.736C309.125 112.64 308.186 107.691 308.186 101.888V59.776H331.994V99.456C331.994 101.675 332.378 103.552 333.146 105.088C333.914 106.624 334.981 107.819 336.346 108.672C337.711 109.44 339.375 109.824 341.338 109.824C342.874 109.824 344.239 109.611 345.434 109.184C346.714 108.757 347.781 108.117 348.634 107.264C349.487 106.325 350.17 105.301 350.682 104.192C351.194 102.997 351.45 101.717 351.45 100.352V59.776H375.258V128H353.242L351.962 114.176L356.442 112.64C355.503 115.797 353.839 118.656 351.45 121.216C349.061 123.776 346.202 125.781 342.874 127.232C339.546 128.683 336.005 129.408 332.25 129.408ZM418.292 129.408C412.575 129.408 407.455 127.915 402.932 124.928C398.495 121.856 394.996 117.675 392.436 112.384C389.876 107.008 388.596 100.864 388.596 93.952C388.596 87.04 389.876 80.9387 392.436 75.648C395.081 70.272 398.665 66.048 403.188 62.976C407.711 59.904 412.873 58.368 418.676 58.368C421.663 58.368 424.521 58.7947 427.252 59.648C429.983 60.5013 432.415 61.696 434.548 63.232C436.767 64.768 438.601 66.56 440.052 68.608C441.588 70.656 442.569 72.832 442.996 75.136L437.492 76.672V33.28H461.428V128H439.796L438.132 112.768L442.868 113.664C442.527 115.883 441.631 117.931 440.18 119.808C438.729 121.685 436.895 123.349 434.676 124.8C432.543 126.251 430.025 127.36 427.124 128.128C424.308 128.981 421.364 129.408 418.292 129.408ZM425.076 109.952C427.807 109.952 430.153 109.312 432.116 108.032C434.079 106.667 435.572 104.832 436.596 102.528C437.62 100.139 438.132 97.28 438.132 93.952C438.132 90.624 437.62 87.7653 436.596 85.376C435.572 82.9013 434.079 81.0667 432.116 79.872C430.153 78.592 427.807 77.952 425.076 77.952C422.345 77.952 419.999 78.592 418.036 79.872C416.073 81.0667 414.58 82.9013 413.556 85.376C412.532 87.7653 412.02 90.624 412.02 93.952C412.02 97.28 412.532 100.139 413.556 102.528C414.58 104.832 416.073 106.667 418.036 108.032C419.999 109.312 422.345 109.952 425.076 109.952ZM511.231 129.28C503.978 129.28 497.492 127.744 491.775 124.672C486.058 121.6 481.578 117.419 478.335 112.128C475.092 106.837 473.471 100.736 473.471 93.824C473.471 86.912 475.092 80.8107 478.335 75.52C481.578 70.2293 486.058 66.048 491.775 62.976C497.492 59.904 503.978 58.368 511.231 58.368C518.484 58.368 524.927 59.904 530.559 62.976C536.276 66.048 540.756 70.2293 543.999 75.52C547.242 80.8107 548.863 86.912 548.863 93.824C548.863 100.736 547.242 106.837 543.999 112.128C540.756 117.419 536.276 121.6 530.559 124.672C524.927 127.744 518.484 129.28 511.231 129.28ZM511.231 109.184C513.791 109.184 516.095 108.544 518.143 107.264C520.276 105.899 521.898 104.064 523.007 101.76C524.202 99.3707 524.799 96.7253 524.799 93.824C524.799 90.752 524.202 88.064 523.007 85.76C521.898 83.456 520.276 81.664 518.143 80.384C516.095 79.0187 513.791 78.336 511.231 78.336C508.586 78.336 506.239 79.0187 504.191 80.384C502.143 81.664 500.522 83.4987 499.327 85.888C498.132 88.192 497.535 90.8373 497.535 93.824C497.535 96.7253 498.132 99.3707 499.327 101.76C500.522 104.064 502.143 105.899 504.191 107.264C506.239 108.544 508.586 109.184 511.231 109.184ZM488.191 46.336V31.872H534.015V46.336H488.191Z" fill="#B3B1C1"/>
<path fill-rule="evenodd" clip-rule="evenodd" d="M127.829 91.5443C127.829 78.9185 144.557 75.4944 149.541 86.6976C150.884 89.7174 150.892 93.1802 149.54 96.2222C148.051 99.5743 143.744 102.406 139.52 102.406C136.035 102.406 133.341 101.707 130.873 99.1924C129.358 97.6488 127.829 94.558 127.829 91.5433V91.5443ZM132.172 68.3146C131.432 67.8188 131.146 66.8098 127.927 64.8743C125.454 63.3857 122.681 62.1826 119.956 61.1524C119.055 60.8108 117.836 60.4757 116.824 60.2754C113.754 59.6678 106.932 58.9454 103.779 60.4595C103.856 61.3932 104.9 62.2344 105.381 63.0341C105.963 64.0003 106.358 64.9178 106.953 65.807C104.828 65.6302 100.439 62.4467 100.439 66.6422C100.439 69.9455 102.247 74.8867 103.873 77.5781C105.677 80.5646 107.523 83.3688 110.292 85.5281C110.738 85.8767 111.124 86.1935 111.605 86.5533C112.117 86.9364 112.532 87.2025 113.063 87.6018C113.549 87.9657 113.871 88.2512 114.376 88.6291C114.842 88.9787 115.483 89.2885 115.638 89.8719C113.523 90.3645 110.622 93.3497 109.269 95.0294C107.763 96.8959 106.597 97.8756 105.147 100.097L103.182 103.311C101.618 105.95 98.7225 111.866 99.4378 114.939C101.724 114.939 102.956 114.148 104.95 114.104C104.144 115.627 102.612 118.541 102.612 120.121C102.612 121.052 109.495 121.123 110.795 121.123C115.594 121.123 122.891 118.671 126.63 116.245C127.613 115.608 130.05 114.031 131.171 113.77C131.759 114.883 132.267 115.949 132.696 117.257C133.488 119.668 134.676 122.175 135.983 124.331C136.334 124.911 136.534 125.318 136.917 125.903C137.587 126.922 138.218 128.041 139.061 128.938C141.577 131.612 145.613 136.161 149.208 137C150.226 135.479 150.634 133.301 151.112 131.385L151.713 129.312C151.86 129.944 152.039 130.298 152.286 130.912C152.998 132.685 153.423 133.875 155.221 134.827C155.865 133.608 156.709 132.501 157.25 131.174C157.511 130.531 157.816 129.895 158.081 129.165C158.335 128.463 158.526 127.855 158.792 127.036C160.387 122.121 160.41 115.961 159.762 110.731C159.522 108.796 159.062 106.714 159.062 104.746C159.864 104.764 160.729 105.02 161.573 105.074C167.572 105.466 172.596 104.583 177.267 102.239C179.897 100.921 182.361 99.4097 184.41 97.3552C185.344 96.4195 185.451 96.0261 185.451 94.2187C183.879 93.8529 182.782 93.1334 181.474 92.349L180.545 91.7739C180.148 91.473 180.525 91.7638 180.274 91.5453C182.248 91.5015 184.404 90.4408 186.12 90.0414C185.901 89.1077 185.218 88.4828 184.64 87.8446L179.13 83.3313C177.804 82.4066 176.435 81.6874 174.932 81.0137C172.444 79.899 170.129 79.1825 167.206 78.5496C166.448 78.3851 165.812 78.3018 165.077 78.1738L160.585 77.6544C159.818 77.5204 159.176 77.1901 158.395 77.1718C158.488 76.7695 159.897 74.6904 160.867 71.1231C162.361 65.6302 162.669 59.0734 160.567 53.7736C159.885 52.0524 158.814 49.4918 157.224 48.428C155.994 48.7571 153.493 52.417 152.215 53.2747C152.215 51.5055 152.549 49.6798 152.549 47.7594C152.549 47.1832 152.425 47.1122 152.381 46.5898C150.35 46.5898 148.357 47.7004 146.771 48.6636C144.095 50.2885 141.58 52.278 139.711 54.8018C135.04 61.1046 134.334 66.1504 133.555 67.0253C133.118 67.5169 132.688 67.9693 132.173 68.3156L132.172 68.3146Z" fill="#B3B1C1"/>
<path fill-rule="evenodd" clip-rule="evenodd" d="M132.25 91.7981C132.25 88.3192 135.037 84.6709 138.666 84.6709C142.388 84.6709 145.906 87.2398 145.906 91.4664C145.906 97.5435 139.207 100.433 134.435 96.3906C133.2 95.3435 132.25 93.4399 132.25 91.7981ZM138.831 101.412C141.625 101.412 144.207 100.262 145.781 98.9657C152.612 93.339 147.969 81.5215 139.654 81.5215C137.686 81.5215 136.604 81.6564 134.878 82.5122C133.235 83.3275 132.543 83.9572 131.464 85.205C127.29 90.0283 129.12 98.131 134.785 100.517C135.798 100.943 137.496 101.412 138.831 101.412Z" fill="#B3B1C1"/>
</svg>
