<svg width="634" height="711" viewBox="0 0 634 711" fill="none" xmlns="http://www.w3.org/2000/svg">
<g filter="url(#filter0_d_1118_58)">
<path d="M316.8 62.7998L566.8 207.137V495.813L316.8 640.15L66.8 495.813V207.137L316.8 62.7998Z" fill="white"/>
<mask id="mask0_1118_58" style="mask-type:alpha" maskUnits="userSpaceOnUse" x="93" y="93" width="448" height="517">
<path d="M316.8 93.1865L540.484 222.331V480.619L316.8 609.763L93.1157 480.619V222.331L316.8 93.1865Z" fill="white"/>
</mask>
<g mask="url(#mask0_1118_58)">
<path d="M225.64 393.605C158.957 517.506 34.0337 483.922 -28.4282 491.096V674.685L400.786 712.246L597.035 606.736V469.994C495.464 419.209 263.963 322.398 225.64 393.605Z" fill="#A9E6F8"/>
<path d="M258.46 482.898C218.072 543.639 113.398 573.166 66.1086 580.337V763.828L391.06 801.37L539.637 695.916V559.246C462.739 508.488 298.847 422.156 258.46 482.898Z" fill="#85DEF3"/>
</g>
<path d="M309.018 286.152C307.454 270.57 243.839 178.272 233.932 186.559C224.025 194.847 226.552 213.553 220.375 230.359C212.137 252.774 193.782 265.871 195.347 286.152C196.911 306.433 227.864 326.412 255.832 324.738C281.447 323.205 310.582 301.734 309.018 286.152Z" fill="#A9E6F8"/>
<path d="M291.859 288.138C287.49 265.41 261.399 237.088 253.525 210.849C253.25 209.933 251.538 209.99 251.317 210.92C248.969 220.813 242.569 236.231 229.306 244.956C213.455 255.384 211.23 273.287 212.099 280.934C211.926 293.449 220.546 317.539 256.421 313.784C292.141 310.046 294.983 295.314 291.918 288.324C291.891 288.263 291.872 288.203 291.859 288.138Z" fill="#85DEF3"/>
<path d="M256.758 298.665L226.446 275.224C224.521 273.736 221.76 274.721 221.385 277.125C220.308 284.035 219.399 296.259 224.974 302.312C231.842 309.77 247.407 306.619 255.821 304.177C258.341 303.446 258.834 300.271 256.758 298.665Z" fill="white"/>
<path d="M391.413 247.063H424.81V261.42H391.413V247.063ZM437.978 218.11H453.18V311.018C453.18 319.562 451.384 323.833 446.357 326.444C441.21 328.936 433.309 329.529 422.416 329.529C421.818 325.139 418.945 317.9 416.671 313.629C424.571 313.985 432.112 313.985 434.746 313.985C437.14 313.866 437.978 313.154 437.978 310.9V218.11ZM419.903 247.063H422.895L425.409 246.588L435.344 250.148C429.838 282.541 416.671 306.747 399.553 319.206C397.039 315.883 391.174 310.069 387.703 307.933C404.102 297.017 415.833 276.371 419.903 250.148V247.063ZM452.342 235.434C460.003 266.878 475.684 294.881 502.497 307.577C498.906 310.544 493.879 316.477 491.485 320.867C463.714 305.323 449.469 274.472 440.97 237.807L452.342 235.434ZM485.859 236.502L499.385 245.876C489.21 256.555 476.402 268.539 466.347 276.015L456.053 267.946C465.749 259.996 478.437 247.063 485.859 236.502Z" fill="#85DEF3"/>
</g>
<defs>
<filter id="filter0_d_1118_58" x="4.57764e-05" y="-0.000198364" width="633.6" height="710.951" filterUnits="userSpaceOnUse" color-interpolation-filters="sRGB">
<feFlood flood-opacity="0" result="BackgroundImageFix"/>
<feColorMatrix in="SourceAlpha" type="matrix" values="0 0 0 0 0 0 0 0 0 0 0 0 0 0 0 0 0 0 127 0" result="hardAlpha"/>
<feOffset dy="4"/>
<feGaussianBlur stdDeviation="33.4"/>
<feComposite in2="hardAlpha" operator="out"/>
<feColorMatrix type="matrix" values="0 0 0 0 0 0 0 0 0 0 0 0 0 0 0 0 0 0 0.25 0"/>
<feBlend mode="normal" in2="BackgroundImageFix" result="effect1_dropShadow_1118_58"/>
<feBlend mode="normal" in="SourceGraphic" in2="effect1_dropShadow_1118_58" result="shape"/>
</filter>
</defs>
</svg>
