<svg width="500" height="578" viewBox="0 0 500 578" fill="none" xmlns="http://www.w3.org/2000/svg">
<path d="M250 0L500 144.338V433.013L250 577.35L0 433.013V144.338L250 0Z" fill="white"/>
<mask id="mask0_1118_58" style="mask-type:alpha" maskUnits="userSpaceOnUse" x="26" y="30" width="448" height="517">
<path d="M250 30.3867L473.684 159.531V417.819L250 546.963L26.3157 417.819V159.531L250 30.3867Z" fill="white"/>
</mask>
<g mask="url(#mask0_1118_58)">
<path d="M158.84 330.805C92.1573 454.707 -32.7664 421.122 -95.2283 428.297V611.885L333.986 649.446L530.235 543.936V407.195C428.664 356.409 197.163 259.598 158.84 330.805Z" fill="#A9E6F8"/>
<path d="M191.66 420.098C151.272 480.839 46.5975 510.366 -0.691406 517.537V701.028L324.26 738.57L472.837 633.116V496.447C395.939 445.688 232.047 359.356 191.66 420.098Z" fill="#85DEF3"/>
</g>
<path d="M242.218 223.352C240.653 207.77 177.039 115.472 167.132 123.76C157.225 132.047 159.752 150.753 153.575 167.56C145.336 189.974 126.982 203.071 128.546 223.352C130.111 243.634 161.064 263.612 189.032 261.938C214.647 260.405 243.782 238.934 242.218 223.352Z" fill="#A9E6F8"/>
<path d="M225.059 225.338C220.69 202.611 194.599 174.289 186.725 148.049C186.45 147.133 184.738 147.19 184.517 148.12C182.169 158.014 175.769 173.431 162.506 182.156C146.655 192.585 144.43 210.487 145.299 218.135C145.125 230.649 153.746 254.739 189.621 250.985C225.341 247.246 228.182 232.514 225.118 225.524C225.091 225.464 225.072 225.403 225.059 225.338Z" fill="#85DEF3"/>
<path d="M189.958 235.866L159.646 212.424C157.721 210.936 154.96 211.921 154.585 214.325C153.508 221.235 152.599 233.459 158.174 239.513C165.042 246.971 180.607 243.819 189.021 241.377C191.541 240.646 192.034 237.471 189.958 235.866Z" fill="white"/>
<path d="M324.613 184.263H358.01V198.62H324.613V184.263ZM371.178 155.311H386.38V248.219C386.38 256.762 384.584 261.034 379.557 263.644C374.41 266.136 366.509 266.729 355.616 266.729C355.018 262.339 352.145 255.101 349.871 250.829C357.771 251.185 365.312 251.185 367.946 251.185C370.34 251.066 371.178 250.354 371.178 248.1V155.311ZM353.103 184.263H356.095L358.609 183.788L368.544 187.348C363.038 219.741 349.871 243.947 332.753 256.406C330.239 253.084 324.374 247.269 320.903 245.134C337.302 234.217 349.033 213.571 353.103 187.348V184.263ZM385.542 172.634C393.203 204.078 408.884 232.081 435.697 244.778C432.106 247.744 427.079 253.677 424.685 258.067C396.914 242.523 382.669 211.672 374.17 175.008L385.542 172.634ZM419.059 173.702L432.585 183.076C422.41 193.755 409.602 205.74 399.547 213.215L389.253 205.146C398.949 197.196 411.637 184.263 419.059 173.702Z" fill="#85DEF3"/>
</svg>
