<svg width="634" height="711" viewBox="0 0 634 711" fill="none" xmlns="http://www.w3.org/2000/svg">
<g filter="url(#filter0_d_1118_86)">
<path d="M316.8 62.7998L566.8 207.137V495.813L316.8 640.15L66.8 495.813V207.137L316.8 62.7998Z" fill="white"/>
<mask id="mask0_1118_86" style="mask-type:alpha" maskUnits="userSpaceOnUse" x="93" y="93" width="448" height="517">
<path d="M316.8 93.1865L540.484 222.331V480.619L316.8 609.763L93.1158 480.619V222.331L316.8 93.1865Z" fill="white"/>
</mask>
<g mask="url(#mask0_1118_86)">
<path d="M288.259 291.998L53.7109 136.714C37.9541 125.569 14.6195 135.488 14.6195 153.405V591.048C14.6195 597.554 17.9272 603.633 23.6406 607.686L288.259 767.236C292.649 770.329 297.942 771.929 303.294 771.929V296.691C298.002 296.691 292.649 295.145 288.259 291.998Z" fill="#26A69A"/>
<path d="M343.749 291.998L566.639 136.714C581.612 125.569 603.787 135.488 603.787 153.405V591.048C603.787 597.554 600.644 603.633 595.214 607.686L343.749 767.236C339.577 770.329 334.547 771.929 329.461 771.929V296.691C334.49 296.691 339.577 295.145 343.749 291.998Z" fill="#FAE164"/>
</g>
<path d="M336.896 170.936L346.782 173.448C342.487 185.521 335.356 197.19 328.144 204.483C326.281 202.781 322.148 199.54 319.798 198.162C327.091 191.842 333.412 181.47 336.896 170.936ZM338.598 180.173H390.134V189.573H333.898L338.598 180.173ZM332.844 199.297H388.27V208.372H342.649V225.389H332.844V199.297ZM320.041 220.608H394.59V230.008H320.041V220.608ZM356.668 185.035H366.716V247.348H356.668V185.035Z" fill="#26A69A"/>
<path d="M250.678 207.886H295.246V214.855H260.402V247.429H250.678V207.886ZM292.41 207.886H302.214V238.03C302.214 242.649 301.08 244.755 297.758 245.89C294.354 247.105 289.492 247.105 282.929 247.105C282.443 244.755 281.146 241.595 279.931 239.407C283.982 239.569 289.249 239.569 290.465 239.569C291.923 239.488 292.41 239.164 292.41 237.949V207.886ZM256.756 218.339H295.165V224.741H256.756V218.339ZM240.225 196.947H312.262V204.24H240.225V196.947ZM245.168 175.392H308.049V182.685H245.168V175.392ZM248.247 186.251H304.483V193.219H248.247V186.251ZM256.756 228.387H295.327V234.707H256.756V228.387ZM271.017 171.26H280.903V201.809H271.017V171.26Z" fill="#26A69A"/>
</g>
<defs>
<filter id="filter0_d_1118_86" x="-1.52588e-05" y="-0.000198364" width="633.6" height="710.951" filterUnits="userSpaceOnUse" color-interpolation-filters="sRGB">
<feFlood flood-opacity="0" result="BackgroundImageFix"/>
<feColorMatrix in="SourceAlpha" type="matrix" values="0 0 0 0 0 0 0 0 0 0 0 0 0 0 0 0 0 0 127 0" result="hardAlpha"/>
<feOffset dy="4"/>
<feGaussianBlur stdDeviation="33.4"/>
<feComposite in2="hardAlpha" operator="out"/>
<feColorMatrix type="matrix" values="0 0 0 0 0 0 0 0 0 0 0 0 0 0 0 0 0 0 0.25 0"/>
<feBlend mode="normal" in2="BackgroundImageFix" result="effect1_dropShadow_1118_86"/>
<feBlend mode="normal" in="SourceGraphic" in2="effect1_dropShadow_1118_86" result="shape"/>
</filter>
</defs>
</svg>
