<svg width="500" height="578" viewBox="0 0 500 578" fill="none" xmlns="http://www.w3.org/2000/svg">
<path d="M250 0L500 144.338V433.013L250 577.35L0 433.013V144.338L250 0Z" fill="white"/>
<mask id="mask0_1118_86" style="mask-type:alpha" maskUnits="userSpaceOnUse" x="26" y="30" width="448" height="517">
<path d="M250 30.3867L473.684 159.531V417.819L250 546.963L26.3158 417.819V159.531L250 30.3867Z" fill="white"/>
</mask>
<g mask="url(#mask0_1118_86)">
<path d="M221.459 229.199L-13.0891 73.9144C-28.8459 62.7693 -52.1805 72.6879 -52.1805 90.6053V528.249C-52.1805 534.754 -48.8727 540.833 -43.1594 544.886L221.459 704.436C225.849 707.529 231.142 709.129 236.494 709.129V233.891C231.202 233.891 225.849 232.345 221.459 229.199Z" fill="#26A69A"/>
<path d="M276.949 229.199L499.839 73.9144C514.812 62.7693 536.987 72.6879 536.987 90.6053V528.249C536.987 534.754 533.844 540.833 528.414 544.886L276.949 704.436C272.777 707.529 267.747 709.129 262.661 709.129V233.891C267.69 233.891 272.777 232.345 276.949 229.199Z" fill="#FAE164"/>
</g>
<path d="M270.096 108.136L279.982 110.648C275.687 122.721 268.556 134.39 261.344 141.683C259.481 139.981 255.348 136.74 252.998 135.362C260.291 129.042 266.612 118.67 270.096 108.136ZM271.798 117.373H323.334V126.773H267.098L271.798 117.373ZM266.044 136.497H321.47V145.572H275.849V162.589H266.044V136.497ZM253.241 157.808H327.79V167.208H253.241V157.808ZM289.868 122.235H299.916V184.549H289.868V122.235Z" fill="#26A69A"/>
<path d="M183.878 145.086H228.446V152.055H193.602V184.63H183.878V145.086ZM225.61 145.086H235.414V175.23C235.414 179.849 234.28 181.956 230.958 183.09C227.554 184.305 222.692 184.305 216.129 184.305C215.643 181.956 214.346 178.795 213.131 176.607C217.182 176.77 222.449 176.77 223.665 176.77C225.123 176.689 225.61 176.364 225.61 175.149V145.086ZM189.956 155.539H228.365V161.941H189.956V155.539ZM173.425 134.147H245.462V141.44H173.425V134.147ZM178.368 112.592H241.249V119.885H178.368V112.592ZM181.447 123.451H237.683V130.419H181.447V123.451ZM189.956 165.587H228.527V171.908H189.956V165.587ZM204.217 108.46H214.103V139.009H204.217V108.46Z" fill="#26A69A"/>
</svg>
