<svg width="1008" height="1112" viewBox="0 0 1008 1112" fill="none" xmlns="http://www.w3.org/2000/svg">
<g filter="url(#filter0_d_2358_185)">
<path fill-rule="evenodd" clip-rule="evenodd" d="M141 164.867C374.74 102.378 634.26 102.378 868 164.867C868 302.654 868 440.44 868 578.228C868 784.899 504.493 986 504.493 986C504.493 986 141 784.935 141 578.228C141 440.44 141 302.654 141 164.867Z" fill="#4961C3"/>
<mask id="mask0_2358_185" style="mask-type:alpha" maskUnits="userSpaceOnUse" x="141" y="118" width="727" height="868">
<path fill-rule="evenodd" clip-rule="evenodd" d="M141 164.867C374.74 102.378 634.26 102.378 868 164.867C868 302.654 868 440.44 868 578.228C868 784.899 504.493 986 504.493 986C504.493 986 141 784.935 141 578.228C141 440.44 141 302.654 141 164.867Z" fill="#EB5757"/>
</mask>
<g mask="url(#mask0_2358_185)">
<path fill-rule="evenodd" clip-rule="evenodd" d="M275.569 331.464C275.569 287.801 333.419 275.959 350.656 314.703C355.3 325.146 355.328 337.121 350.653 347.641C345.503 359.233 330.608 369.027 316 369.027C303.95 369.027 294.631 366.609 286.099 357.913C280.858 352.575 275.569 341.886 275.569 331.46V331.464ZM290.588 251.13C288.029 249.415 287.04 245.926 275.91 239.232C267.355 234.084 257.767 229.924 248.342 226.361C245.226 225.18 241.011 224.021 237.511 223.328C226.894 221.227 203.304 218.728 192.398 223.965C192.665 227.194 196.277 230.103 197.941 232.868C199.952 236.21 201.317 239.383 203.374 242.458C196.027 241.846 180.847 230.837 180.847 245.346C180.847 256.77 187.102 273.858 192.725 283.165C198.962 293.493 205.346 303.191 214.922 310.658C216.466 311.864 217.8 312.959 219.463 314.204C221.235 315.529 222.668 316.449 224.507 317.83C226.185 319.088 227.301 320.076 229.046 321.382C230.656 322.591 232.874 323.663 233.411 325.68C226.097 327.384 216.065 337.708 211.384 343.516C206.178 349.971 202.145 353.359 197.13 361.04L190.335 372.158C184.926 381.283 174.912 401.741 177.386 412.37C185.291 412.37 189.552 409.633 196.448 409.482C193.662 414.749 188.362 424.824 188.362 430.288C188.362 433.51 212.166 433.755 216.662 433.755C233.257 433.755 258.493 425.274 271.424 416.885C274.821 414.683 283.252 409.229 287.127 408.326C289.162 412.174 290.918 415.863 292.403 420.385C295.141 428.724 299.25 437.393 303.767 444.849C304.982 446.856 305.673 448.261 307 450.285C309.316 453.809 311.496 457.678 314.413 460.781C323.114 470.029 337.073 485.761 349.505 488.66C353.026 483.399 354.436 475.869 356.089 469.242L358.167 462.074C358.677 464.259 359.294 465.486 360.147 467.609C362.611 473.74 364.081 477.854 370.297 481.148C372.526 476.931 375.443 473.101 377.314 468.515C378.219 466.291 379.273 464.091 380.189 461.565C381.066 459.136 381.729 457.035 382.649 454.203C388.163 437.207 388.244 415.902 386.001 397.816C385.173 391.125 383.583 383.925 383.583 377.12C386.355 377.179 389.346 378.065 392.266 378.254C413.01 379.608 430.384 376.554 446.54 368.45C455.634 363.889 464.156 358.664 471.243 351.559C474.472 348.323 474.84 346.963 474.84 340.713C469.406 339.447 465.612 336.959 461.088 334.247L457.877 332.258C456.501 331.217 457.807 332.223 456.936 331.467C463.763 331.316 471.221 327.648 477.153 326.267C476.398 323.037 474.036 320.876 472.036 318.669L452.981 303.061C448.397 299.863 443.662 297.376 438.463 295.046C429.86 291.191 421.855 288.714 411.746 286.525C409.124 285.956 406.924 285.668 404.382 285.225L388.848 283.429C386.197 282.966 383.976 281.823 381.273 281.76C381.596 280.369 386.468 273.179 389.823 260.842C394.99 241.846 396.057 219.171 388.788 200.843C386.429 194.891 382.722 186.036 377.226 182.357C372.972 183.495 364.324 196.152 359.902 199.118C359.902 193 361.056 186.686 361.056 180.045C361.056 178.052 360.628 177.807 360.477 176C353.454 176 346.56 179.84 341.075 183.172C331.822 188.791 323.125 195.671 316.66 204.399C300.507 226.196 298.064 243.645 295.372 246.671C293.859 248.371 292.374 249.936 290.591 251.133L290.588 251.13Z" fill="white"/>
<path fill-rule="evenodd" clip-rule="evenodd" d="M290.858 332.34C290.858 320.309 300.498 307.692 313.046 307.692C325.919 307.692 338.084 316.576 338.084 331.193C338.084 352.209 314.917 362.201 298.416 348.222C294.143 344.601 290.858 338.018 290.858 332.34ZM313.616 365.586C323.281 365.586 332.209 361.609 337.651 357.127C361.278 337.669 345.22 296.801 316.462 296.801C309.657 296.801 305.916 297.267 299.948 300.227C294.264 303.046 291.871 305.224 288.14 309.539C273.704 326.22 280.035 354.241 299.627 362.491C303.13 363.965 309 365.586 313.616 365.586Z" fill="white"/>
</g>
<path fill-rule="evenodd" clip-rule="evenodd" d="M504 98C634.744 98.0446 765.479 114.585 889.39 147.621V585.272C889.39 799.44 519.825 1007.89 504 1016.72V98Z" fill="white"/>
<path fill-rule="evenodd" clip-rule="evenodd" d="M85 121.871L126.537 110.767C369.752 45.7445 639.248 45.7445 882.463 110.767L924 121.871V578.228C924 646.135 894.378 708.805 856.837 761.588C818.967 814.836 769.637 862.821 722.202 902.548C674.508 942.491 627.091 975.44 591.743 998.345C574.015 1009.83 559.188 1018.88 548.705 1025.11C543.461 1028.22 539.295 1030.63 536.386 1032.3C534.932 1033.13 533.791 1033.77 532.986 1034.23C532.584 1034.45 532.265 1034.63 532.034 1034.76L531.66 1034.97L531.626 1034.99C531.613 1034.99 531.601 1035 504.493 986C504.493 986 868 784.899 868 578.228V164.867C634.26 102.378 374.74 102.378 141 164.867V578.228C141 784.935 504.493 986 504.493 986C477.387 1035 477.375 1035 477.362 1034.99L477.237 1034.92L476.955 1034.76C476.723 1034.63 476.405 1034.46 476.002 1034.23C475.197 1033.78 474.057 1033.13 472.602 1032.3C469.694 1030.64 465.528 1028.22 460.283 1025.11C449.801 1018.88 434.974 1009.84 417.246 998.351C381.9 975.449 334.483 942.503 286.791 902.562C239.358 862.837 190.029 814.852 152.159 761.602C114.619 708.815 85 646.141 85 578.228V121.871ZM504.493 986L531.601 1035L504.495 1050L477.387 1035L504.493 986Z" fill="white"/>
<path d="M62 587C62 567.67 77.67 552 97 552H911C930.33 552 946 567.67 946 587V750C946 769.33 930.33 785 911 785H97C77.67 785 62 769.33 62 750V587Z" fill="white"/>
<path d="M180.913 718.28C174.171 718.28 168.198 717.555 162.993 716.104C157.873 714.568 153.35 712.435 149.425 709.704C145.585 706.973 142.129 703.773 139.056 700.104L155.057 682.184C159.323 687.645 163.761 691.272 168.369 693.064C173.062 694.771 177.457 695.624 181.553 695.624C183.174 695.624 184.625 695.496 185.905 695.24C187.185 694.899 188.166 694.387 188.849 693.704C189.531 693.021 189.873 692.083 189.873 690.888C189.873 689.779 189.489 688.84 188.721 688.072C188.038 687.304 187.099 686.664 185.905 686.152C184.71 685.555 183.387 685.085 181.937 684.744C180.571 684.317 179.206 683.976 177.841 683.72C176.561 683.464 175.409 683.208 174.385 682.952C169.265 681.757 164.785 680.307 160.945 678.6C157.105 676.893 153.905 674.845 151.345 672.456C148.785 670.067 146.865 667.336 145.585 664.264C144.39 661.192 143.793 657.736 143.793 653.896C143.793 649.544 144.774 645.576 146.737 641.992C148.785 638.408 151.473 635.336 154.801 632.776C158.214 630.216 162.054 628.253 166.321 626.888C170.673 625.523 175.153 624.84 179.761 624.84C186.502 624.84 192.134 625.48 196.657 626.76C201.179 627.955 204.977 629.704 208.049 632.008C211.121 634.312 213.766 637 215.985 640.072L199.857 655.56C197.979 653.768 196.017 652.317 193.969 651.208C191.921 650.013 189.787 649.16 187.569 648.648C185.435 648.051 183.302 647.752 181.169 647.752C179.206 647.752 177.542 647.923 176.177 648.264C174.811 648.52 173.745 648.989 172.977 649.672C172.209 650.269 171.825 651.123 171.825 652.232C171.825 653.341 172.294 654.28 173.233 655.048C174.257 655.731 175.494 656.328 176.944 656.84C178.481 657.352 179.974 657.779 181.425 658.12C182.961 658.376 184.241 658.589 185.265 658.76C189.958 659.613 194.267 660.808 198.193 662.344C202.118 663.795 205.531 665.672 208.433 667.976C211.419 670.195 213.681 673.011 215.217 676.424C216.838 679.752 217.649 683.72 217.649 688.328C217.649 694.899 215.985 700.403 212.657 704.84C209.414 709.277 205.019 712.648 199.473 714.952C193.926 717.171 187.739 718.28 180.913 718.28ZM230.273 717V622.28H255.617V662.344L250.113 663.88C251.051 660.637 252.715 657.779 255.104 655.304C257.579 652.744 260.523 650.739 263.937 649.288C267.35 647.837 270.977 647.112 274.817 647.112C279.937 647.112 284.289 648.179 287.873 650.312C291.457 652.445 294.145 655.603 295.937 659.784C297.814 663.88 298.753 668.872 298.753 674.76V717H272.769V676.936C272.769 675.059 272.47 673.48 271.873 672.2C271.275 670.92 270.379 669.939 269.185 669.256C267.99 668.573 266.582 668.232 264.961 668.232C263.681 668.232 262.486 668.445 261.377 668.872C260.353 669.213 259.457 669.768 258.689 670.536C257.921 671.304 257.323 672.157 256.897 673.096C256.47 674.035 256.257 675.101 256.257 676.296V717H243.329C240.086 717 237.355 717 235.137 717C233.003 717 231.382 717 230.273 717ZM338.31 718.408C333.104 718.408 328.71 717.341 325.126 715.208C321.542 713.075 318.811 709.96 316.934 705.864C315.056 701.683 314.118 696.648 314.118 690.76V648.52H340.102V688.584C340.102 690.461 340.4 692.04 340.998 693.32C341.68 694.6 342.619 695.581 343.814 696.264C345.008 696.947 346.459 697.288 348.166 697.288C349.446 697.288 350.598 697.117 351.622 696.776C352.731 696.349 353.67 695.752 354.438 694.984C355.206 694.216 355.803 693.363 356.23 692.424C356.656 691.4 356.87 690.333 356.87 689.224V648.52H382.854V717H359.046L357.51 703.176L362.374 701.64C361.435 704.883 359.771 707.784 357.382 710.344C355.078 712.819 352.262 714.781 348.934 716.232C345.606 717.683 342.064 718.408 338.31 718.408ZM325.382 635.336V619.976H373.254V635.336H325.382ZM401.023 717V648.52H425.087L426.623 671.304L420.863 667.72C421.972 663.795 423.721 660.296 426.111 657.224C428.5 654.067 431.359 651.592 434.687 649.8C438.1 648.008 441.727 647.112 445.567 647.112C447.103 647.112 448.553 647.24 449.919 647.496C451.284 647.667 452.607 647.923 453.887 648.264L446.719 677.064C445.865 676.467 444.5 675.912 442.623 675.4C440.831 674.888 438.868 674.632 436.735 674.632C435.199 674.632 433.791 674.888 432.511 675.4C431.316 675.827 430.292 676.509 429.439 677.448C428.671 678.387 428.073 679.496 427.647 680.776C427.22 682.056 427.007 683.549 427.007 685.256V717H401.023ZM470.676 746.44L487.7 706.248L487.956 716.744L455.828 648.52H484.756L494.228 671.304C495.252 673.693 496.105 675.955 496.788 678.088C497.556 680.221 498.11 682.227 498.452 684.104L495.892 686.408C496.233 685.469 496.745 684.019 497.428 682.056C498.11 680.008 498.878 677.661 499.732 675.016L508.692 648.52H537.62L507.796 717L495.764 746.44H470.676ZM579.431 718.28C572.007 718.28 565.393 716.744 559.591 713.672C553.788 710.6 549.223 706.419 545.895 701.128C542.567 695.752 540.903 689.608 540.903 682.696C540.903 675.784 542.567 669.683 545.895 664.392C549.223 659.016 553.788 654.792 559.591 651.72C565.393 648.648 572.007 647.112 579.431 647.112C586.855 647.112 593.425 648.648 599.143 651.72C604.945 654.792 609.468 659.016 612.711 664.392C616.039 669.683 617.703 675.784 617.703 682.696C617.703 689.608 616.039 695.752 612.711 701.128C609.468 706.419 604.945 710.6 599.143 713.672C593.425 716.744 586.855 718.28 579.431 718.28ZM579.431 696.52C581.735 696.52 583.783 695.923 585.575 694.728C587.452 693.533 588.903 691.912 589.927 689.864C590.951 687.731 591.463 685.341 591.463 682.696C591.463 679.965 590.951 677.576 589.927 675.528C588.903 673.395 587.452 671.731 585.575 670.536C583.783 669.341 581.735 668.744 579.431 668.744C577.041 668.744 574.908 669.341 573.031 670.536C571.239 671.731 569.788 673.395 568.679 675.528C567.655 677.576 567.143 679.965 567.143 682.696C567.143 685.341 567.655 687.731 568.679 689.864C569.788 691.912 571.239 693.533 573.031 694.728C574.908 695.923 577.041 696.52 579.431 696.52ZM555.367 635.336V619.976H603.239V635.336H555.367ZM627.963 691.656V668.616H677.627V691.656H627.963ZM716.447 718.28C709.023 718.28 702.537 717.171 696.991 714.952C691.529 712.648 687.263 709.789 684.191 706.376L699.295 693.448C702.025 695.837 705.14 697.629 708.639 698.824C712.223 699.933 715.209 700.488 717.599 700.488C718.452 700.488 719.177 700.445 719.775 700.36C720.457 700.189 720.969 699.976 721.311 699.72C721.737 699.379 722.036 699.037 722.207 698.696C722.463 698.355 722.591 697.928 722.591 697.416C722.591 696.136 721.908 695.197 720.543 694.6C719.775 694.259 718.495 693.832 716.703 693.32C714.996 692.808 712.735 692.211 709.919 691.528C706.591 690.675 703.519 689.608 700.703 688.328C697.972 687.048 695.625 685.555 693.663 683.848C691.615 681.971 689.993 679.837 688.799 677.448C687.689 675.059 687.135 672.371 687.135 669.384C687.135 665.885 687.945 662.771 689.567 660.04C691.188 657.309 693.407 655.005 696.223 653.128C699.039 651.165 702.196 649.672 705.695 648.648C709.193 647.624 712.777 647.112 716.447 647.112C720.628 647.112 724.511 647.539 728.095 648.392C731.764 649.16 735.177 650.312 738.335 651.848C741.577 653.299 744.521 655.048 747.167 657.096L733.983 671.816C732.532 670.621 730.825 669.469 728.863 668.36C726.985 667.251 724.98 666.355 722.847 665.672C720.799 664.904 718.879 664.52 717.087 664.52C716.148 664.52 715.337 664.605 714.655 664.776C714.057 664.861 713.545 665.075 713.119 665.416C712.692 665.672 712.351 666.013 712.095 666.44C711.924 666.781 711.839 667.208 711.839 667.72C711.839 668.403 712.052 669.043 712.479 669.64C712.905 670.237 713.588 670.749 714.527 671.176C715.295 671.517 716.575 671.987 718.367 672.584C720.244 673.181 722.975 673.992 726.559 675.016C730.399 676.125 733.769 677.405 736.671 678.856C739.657 680.307 742.047 682.013 743.839 683.976C745.033 685.341 745.972 686.877 746.655 688.584C747.337 690.291 747.679 692.125 747.679 694.088C747.679 698.781 746.313 702.963 743.583 706.632C740.937 710.216 737.268 713.075 732.575 715.208C727.881 717.256 722.505 718.28 716.447 718.28ZM791.05 718.28C783.114 718.28 776.287 716.744 770.57 713.672C764.852 710.6 760.458 706.419 757.385 701.128C754.314 695.752 752.778 689.608 752.778 682.696C752.778 677.576 753.631 672.84 755.338 668.488C757.044 664.136 759.434 660.381 762.506 657.224C765.663 653.981 769.332 651.507 773.514 649.8C777.78 648.008 782.431 647.112 787.466 647.112C792.5 647.112 797.066 648.008 801.162 649.8C805.343 651.507 808.927 653.981 811.914 657.224C814.9 660.381 817.162 664.136 818.698 668.488C820.319 672.84 821.044 677.576 820.874 682.696L820.746 688.072H767.114L764.17 675.912H800.138L797.706 678.472V676.168C797.706 674.547 797.279 673.139 796.426 671.944C795.658 670.664 794.548 669.683 793.098 669C791.647 668.317 789.94 667.976 787.978 667.976C785.503 667.976 783.412 668.488 781.706 669.512C779.999 670.536 778.676 671.987 777.738 673.864C776.884 675.741 776.458 678.003 776.458 680.648C776.458 683.72 777.098 686.408 778.378 688.712C779.743 691.016 781.706 692.808 784.266 694.088C786.911 695.368 790.154 696.008 793.994 696.008C796.554 696.008 798.73 695.709 800.522 695.112C802.399 694.429 804.362 693.363 806.41 691.912L818.314 708.68C815.156 711.155 812.042 713.075 808.97 714.44C805.983 715.805 802.996 716.787 800.01 717.384C797.108 717.981 794.122 718.28 791.05 718.28ZM833.282 717V648.52H859.266V717H833.282ZM846.338 636.104C841.73 636.104 838.103 635.037 835.458 632.904C832.898 630.771 831.618 627.741 831.618 623.816C831.618 620.232 832.94 617.288 835.586 614.984C838.231 612.68 841.815 611.528 846.338 611.528C850.946 611.528 854.53 612.595 857.09 614.728C859.735 616.861 861.058 619.891 861.058 623.816C861.058 627.4 859.735 630.344 857.09 632.648C854.444 634.952 850.86 636.104 846.338 636.104Z" fill="#4961C3"/>
<path d="M694.85 290.15L704.9 278.75C715.85 282.8 728.9 289.85 736.1 295.25L725.75 307.7C718.7 302 705.5 294.35 694.85 290.15ZM678.5 316.85L689 304.25C708.5 309.5 731.75 319.25 745.7 326.75L735.2 340.85C722 332.6 698.15 322.55 678.5 316.85ZM697.1 198.65L714.65 201.65C706.4 220.1 694.85 238.55 676.7 253.55C674 249.8 668.3 244.25 664.55 241.85C680.75 229.4 691.55 212.75 697.1 198.65ZM699.95 212.9H737.15V228.35H692.3L699.95 212.9ZM732.35 212.9H735.65L738.65 212.3L749.75 218.45C736.4 252.05 708.8 275.75 679.55 287.9C677.45 283.7 672.05 276.65 668.6 273.65C696.65 263.45 722.15 242.75 732.35 216.05V212.9ZM698.15 224.75C709.7 246.35 732.65 265.4 759.05 274.1C755.3 277.55 750.05 284.3 747.5 288.8C720.2 277.85 697.55 256.1 683.9 229.85L698.15 224.75ZM638 198.8L653.6 204.65C647.45 216.05 640.55 229.4 634.7 237.8L622.7 232.55C628.1 223.7 634.55 209.3 638 198.8ZM655.25 216.5L669.8 223.1C659 240.35 644.3 261.2 632.9 274.25L622.55 268.4C633.65 254.75 647.45 232.7 655.25 216.5ZM614.9 234.35L623.45 222.05C631.4 228.95 640.7 238.4 644.6 245.3L635.3 259.25C631.7 252.05 622.55 241.55 614.9 234.35ZM650.75 252.35L662.6 247.4C668.45 257.45 674.15 270.5 675.8 279.05L663.05 284.75C661.55 276.2 656.3 262.55 650.75 252.35ZM614.75 264.8C628.55 264.35 648.8 263.6 668.6 262.7L668.45 276.95C650 278.3 630.8 279.5 616.25 280.55L614.75 264.8ZM654.05 289.7L666.65 285.65C670.4 294.2 674.3 305.45 675.95 312.95L662.75 317.6C661.25 310.1 657.35 298.55 654.05 289.7ZM621.2 286.85L636.05 289.4C634.55 303.8 631.25 318.8 626.9 328.4C623.75 326.45 617 323.3 613.25 321.8C617.6 312.95 620 299.6 621.2 286.85ZM638 272.75H653.75V339.65H638V272.75ZM677.3 437.95H696.35V506.65C696.35 516.85 693.8 521.8 686.3 524.5C678.95 527.2 668.15 527.5 653.75 527.5C652.7 522.25 649.25 514.15 646.4 509.2C657.05 509.65 669.35 509.65 672.8 509.65C676.1 509.65 677.3 508.75 677.3 506.2V437.95ZM626 397.15H730.85V414.85H626V397.15ZM724.1 397.15H728.9L733.25 395.95L747.35 406.45C733.85 422.95 714.05 442 695.6 453.55C692.75 449.65 686.9 443.65 683.3 440.8C698.9 430.9 716.6 412.9 724.1 401.5V397.15Z" fill="#4961C3"/>
</g>
<defs>
<filter id="filter0_d_2358_185" x="0" y="0" width="1008" height="1112" filterUnits="userSpaceOnUse" color-interpolation-filters="sRGB">
<feFlood flood-opacity="0" result="BackgroundImageFix"/>
<feColorMatrix in="SourceAlpha" type="matrix" values="0 0 0 0 0 0 0 0 0 0 0 0 0 0 0 0 0 0 127 0" result="hardAlpha"/>
<feOffset/>
<feGaussianBlur stdDeviation="31"/>
<feComposite in2="hardAlpha" operator="out"/>
<feColorMatrix type="matrix" values="0 0 0 0 0 0 0 0 0 0 0 0 0 0 0 0 0 0 0.25 0"/>
<feBlend mode="normal" in2="BackgroundImageFix" result="effect1_dropShadow_2358_185"/>
<feBlend mode="normal" in="SourceGraphic" in2="effect1_dropShadow_2358_185" result="shape"/>
</filter>
</defs>
</svg>
