<svg width="1008" height="1112" viewBox="0 0 1008 1112" fill="none" xmlns="http://www.w3.org/2000/svg">
<g filter="url(#filter0_d_2364_229)">
<path fill-rule="evenodd" clip-rule="evenodd" d="M141 164.867C374.74 102.378 634.26 102.378 868 164.867C868 302.654 868 440.44 868 578.228C868 784.899 504.493 986 504.493 986C504.493 986 141 784.935 141 578.228C141 440.44 141 302.654 141 164.867Z" fill="#FAB50A"/>
<mask id="mask0_2364_229" style="mask-type:alpha" maskUnits="userSpaceOnUse" x="141" y="118" width="727" height="868">
<path fill-rule="evenodd" clip-rule="evenodd" d="M141 164.867C374.74 102.378 634.26 102.378 868 164.867C868 302.654 868 440.44 868 578.228C868 784.899 504.493 986 504.493 986C504.493 986 141 784.935 141 578.228C141 440.44 141 302.654 141 164.867Z" fill="#EB5757"/>
</mask>
<g mask="url(#mask0_2364_229)">
<path fill-rule="evenodd" clip-rule="evenodd" d="M275.569 331.464C275.569 287.801 333.419 275.959 350.656 314.703C355.3 325.146 355.328 337.121 350.653 347.641C345.503 359.233 330.608 369.027 316 369.027C303.95 369.027 294.631 366.609 286.099 357.913C280.858 352.575 275.569 341.886 275.569 331.46V331.464ZM290.588 251.13C288.029 249.415 287.04 245.926 275.91 239.232C267.355 234.084 257.767 229.924 248.342 226.361C245.226 225.18 241.011 224.021 237.511 223.328C226.894 221.227 203.304 218.728 192.398 223.965C192.665 227.194 196.277 230.103 197.941 232.868C199.952 236.21 201.317 239.383 203.374 242.458C196.027 241.846 180.847 230.837 180.847 245.346C180.847 256.77 187.102 273.858 192.725 283.165C198.962 293.493 205.346 303.191 214.922 310.658C216.466 311.864 217.8 312.959 219.463 314.204C221.235 315.529 222.668 316.449 224.507 317.83C226.185 319.088 227.301 320.076 229.046 321.382C230.656 322.591 232.874 323.663 233.411 325.68C226.097 327.384 216.065 337.708 211.384 343.516C206.178 349.971 202.145 353.359 197.13 361.04L190.335 372.158C184.926 381.283 174.912 401.741 177.386 412.37C185.291 412.37 189.552 409.633 196.448 409.482C193.662 414.749 188.362 424.824 188.362 430.288C188.362 433.51 212.166 433.755 216.662 433.755C233.257 433.755 258.493 425.274 271.424 416.885C274.821 414.683 283.252 409.229 287.127 408.326C289.162 412.174 290.918 415.863 292.403 420.385C295.141 428.724 299.25 437.393 303.767 444.849C304.982 446.856 305.673 448.261 307 450.285C309.316 453.809 311.496 457.678 314.413 460.781C323.114 470.029 337.073 485.761 349.505 488.66C353.026 483.399 354.436 475.869 356.089 469.242L358.167 462.074C358.677 464.259 359.294 465.486 360.147 467.609C362.611 473.74 364.081 477.854 370.297 481.148C372.526 476.931 375.443 473.101 377.314 468.515C378.219 466.291 379.273 464.091 380.189 461.565C381.066 459.136 381.729 457.035 382.649 454.203C388.163 437.207 388.244 415.902 386.001 397.816C385.173 391.125 383.583 383.925 383.583 377.12C386.355 377.179 389.346 378.065 392.266 378.254C413.01 379.608 430.384 376.554 446.54 368.45C455.634 363.889 464.156 358.664 471.243 351.559C474.472 348.323 474.84 346.963 474.84 340.713C469.406 339.447 465.612 336.959 461.088 334.247L457.877 332.258C456.501 331.217 457.807 332.223 456.936 331.467C463.763 331.316 471.221 327.648 477.153 326.267C476.398 323.037 474.036 320.876 472.036 318.669L452.981 303.061C448.397 299.863 443.662 297.376 438.463 295.046C429.86 291.191 421.855 288.714 411.746 286.525C409.124 285.956 406.924 285.668 404.382 285.225L388.848 283.429C386.197 282.966 383.976 281.823 381.273 281.76C381.596 280.369 386.468 273.179 389.823 260.842C394.99 241.846 396.057 219.171 388.788 200.843C386.429 194.891 382.722 186.036 377.226 182.357C372.972 183.495 364.324 196.152 359.902 199.118C359.902 193 361.056 186.686 361.056 180.045C361.056 178.052 360.628 177.807 360.477 176C353.454 176 346.56 179.84 341.075 183.172C331.822 188.791 323.125 195.671 316.66 204.399C300.507 226.196 298.064 243.645 295.372 246.671C293.859 248.371 292.374 249.936 290.591 251.133L290.588 251.13Z" fill="white"/>
<path fill-rule="evenodd" clip-rule="evenodd" d="M290.858 332.34C290.858 320.309 300.498 307.692 313.046 307.692C325.919 307.692 338.084 316.576 338.084 331.193C338.084 352.209 314.917 362.201 298.416 348.222C294.143 344.601 290.858 338.018 290.858 332.34ZM313.616 365.586C323.281 365.586 332.209 361.609 337.651 357.127C361.278 337.669 345.22 296.801 316.462 296.801C309.657 296.801 305.916 297.267 299.948 300.227C294.264 303.046 291.871 305.224 288.14 309.539C273.704 326.22 280.035 354.241 299.627 362.491C303.13 363.965 309 365.586 313.616 365.586Z" fill="white"/>
</g>
<path fill-rule="evenodd" clip-rule="evenodd" d="M504 98.9297C632.237 98.9735 760.465 115.196 882 147.599V576.859C882 786.92 519.522 991.37 504 1000.03V98.9297Z" fill="white"/>
<path fill-rule="evenodd" clip-rule="evenodd" d="M85 121.871L126.537 110.767C369.752 45.7445 639.248 45.7445 882.463 110.767L924 121.871V578.228C924 646.135 894.378 708.805 856.837 761.588C818.967 814.836 769.637 862.821 722.202 902.548C674.508 942.491 627.091 975.44 591.743 998.345C574.015 1009.83 559.188 1018.88 548.705 1025.11C543.461 1028.22 539.295 1030.63 536.386 1032.3C534.932 1033.13 533.791 1033.77 532.986 1034.23C532.584 1034.45 532.265 1034.63 532.034 1034.76L531.66 1034.97L531.626 1034.99C531.613 1034.99 531.601 1035 504.493 986C504.493 986 868 784.899 868 578.228V164.867C634.26 102.378 374.74 102.378 141 164.867V578.228C141 784.935 504.493 986 504.493 986C477.387 1035 477.375 1035 477.362 1034.99L477.237 1034.92L476.955 1034.76C476.723 1034.63 476.405 1034.46 476.002 1034.23C475.197 1033.78 474.057 1033.13 472.602 1032.3C469.694 1030.64 465.528 1028.22 460.283 1025.11C449.801 1018.88 434.974 1009.84 417.246 998.351C381.9 975.449 334.483 942.503 286.791 902.562C239.358 862.837 190.029 814.852 152.159 761.602C114.619 708.815 85 646.141 85 578.228V121.871ZM504.493 986L531.601 1035L504.495 1050L477.387 1035L504.493 986Z" fill="white"/>
<path d="M62 587C62 567.67 77.67 552 97 552H911C930.33 552 946 567.67 946 587V750C946 769.33 930.33 785 911 785H97C77.67 785 62 769.33 62 750V587Z" fill="white"/>
<path d="M208.341 705.96C203.285 705.96 198.805 705.416 194.901 704.328C191.061 703.176 187.669 701.576 184.725 699.528C181.845 697.48 179.253 695.08 176.949 692.328L188.949 678.888C192.149 682.984 195.477 685.704 198.933 687.048C202.453 688.328 205.749 688.968 208.821 688.968C210.037 688.968 211.125 688.872 212.085 688.68C213.045 688.424 213.781 688.04 214.293 687.528C214.805 687.016 215.061 686.312 215.061 685.416C215.061 684.584 214.773 683.88 214.197 683.304C213.685 682.728 212.981 682.248 212.085 681.864C211.189 681.416 210.197 681.064 209.109 680.808C208.085 680.488 207.061 680.232 206.037 680.04C205.077 679.848 204.213 679.656 203.445 679.464C199.605 678.568 196.245 677.48 193.365 676.2C190.485 674.92 188.085 673.384 186.165 671.592C184.245 669.8 182.805 667.752 181.845 665.448C180.949 663.144 180.501 660.552 180.501 657.672C180.501 654.408 181.237 651.432 182.709 648.744C184.245 646.056 186.261 643.752 188.757 641.832C191.317 639.912 194.197 638.44 197.397 637.416C200.661 636.392 204.021 635.88 207.477 635.88C212.533 635.88 216.757 636.36 220.149 637.32C223.541 638.216 226.389 639.528 228.693 641.256C230.997 642.984 232.981 645 234.645 647.304L222.549 658.92C221.141 657.576 219.669 656.488 218.133 655.656C216.597 654.76 214.997 654.12 213.333 653.736C211.733 653.288 210.133 653.064 208.533 653.064C207.061 653.064 205.813 653.192 204.789 653.448C203.765 653.64 202.965 653.992 202.389 654.504C201.813 654.952 201.525 655.592 201.525 656.424C201.525 657.256 201.877 657.96 202.581 658.536C203.349 659.048 204.277 659.496 205.365 659.88C206.517 660.264 207.637 660.584 208.725 660.84C209.877 661.032 210.837 661.192 211.605 661.32C215.125 661.96 218.357 662.856 221.301 664.008C224.245 665.096 226.805 666.504 228.981 668.232C231.221 669.896 232.917 672.008 234.069 674.568C235.285 677.064 235.893 680.04 235.893 683.496C235.893 688.424 234.645 692.552 232.149 695.88C229.717 699.208 226.421 701.736 222.261 703.464C218.101 705.128 213.461 705.96 208.341 705.96ZM270.417 705.96C264.849 705.96 259.889 704.808 255.537 702.504C251.185 700.2 247.761 697.064 245.265 693.096C242.769 689.064 241.521 684.456 241.521 679.272C241.521 674.088 242.769 669.512 245.265 665.544C247.761 661.512 251.185 658.344 255.537 656.04C259.889 653.736 264.849 652.584 270.417 652.584C275.985 652.584 280.913 653.736 285.201 656.04C289.553 658.344 292.945 661.512 295.377 665.544C297.873 669.512 299.121 674.088 299.121 679.272C299.121 684.456 297.873 689.064 295.377 693.096C292.945 697.064 289.553 700.2 285.201 702.504C280.913 704.808 275.985 705.96 270.417 705.96ZM270.417 689.64C272.145 689.64 273.681 689.192 275.025 688.296C276.433 687.4 277.521 686.184 278.289 684.648C279.057 683.048 279.441 681.256 279.441 679.272C279.441 677.224 279.057 675.432 278.289 673.896C277.521 672.296 276.433 671.048 275.025 670.152C273.681 669.256 272.145 668.808 270.417 668.808C268.625 668.808 267.025 669.256 265.617 670.152C264.273 671.048 263.185 672.296 262.353 673.896C261.585 675.432 261.201 677.224 261.201 679.272C261.201 681.256 261.585 683.048 262.353 684.648C263.185 686.184 264.273 687.4 265.617 688.296C267.025 689.192 268.625 689.64 270.417 689.64ZM311.424 705V640.68H330.912V705H311.424ZM303.456 669.96V653.64H339.36V669.96H303.456ZM367.46 705.96C361.892 705.96 357.028 705.128 352.868 703.464C348.772 701.736 345.572 699.592 343.268 697.032L354.596 687.336C356.644 689.128 358.98 690.472 361.604 691.368C364.292 692.2 366.532 692.616 368.324 692.616C368.964 692.616 369.508 692.584 369.956 692.52C370.468 692.392 370.852 692.232 371.108 692.04C371.428 691.784 371.652 691.528 371.78 691.272C371.972 691.016 372.068 690.696 372.068 690.312C372.068 689.352 371.556 688.648 370.532 688.2C369.956 687.944 368.996 687.624 367.652 687.24C366.372 686.856 364.676 686.408 362.564 685.896C360.068 685.256 357.764 684.456 355.652 683.496C353.604 682.536 351.844 681.416 350.372 680.136C348.836 678.728 347.62 677.128 346.724 675.336C345.892 673.544 345.476 671.528 345.476 669.288C345.476 666.664 346.084 664.328 347.3 662.28C348.516 660.232 350.18 658.504 352.292 657.096C354.404 655.624 356.772 654.504 359.396 653.736C362.02 652.968 364.708 652.584 367.46 652.584C370.596 652.584 373.508 652.904 376.196 653.544C378.948 654.12 381.508 654.984 383.876 656.136C386.308 657.224 388.516 658.536 390.5 660.072L380.612 671.112C379.524 670.216 378.244 669.352 376.772 668.52C375.364 667.688 373.86 667.016 372.26 666.504C370.724 665.928 369.284 665.64 367.94 665.64C367.236 665.64 366.628 665.704 366.116 665.832C365.668 665.896 365.284 666.056 364.964 666.312C364.644 666.504 364.388 666.76 364.196 667.08C364.068 667.336 364.004 667.656 364.004 668.04C364.004 668.552 364.164 669.032 364.484 669.48C364.804 669.928 365.316 670.312 366.02 670.632C366.596 670.888 367.556 671.24 368.9 671.688C370.308 672.136 372.356 672.744 375.044 673.512C377.924 674.344 380.452 675.304 382.628 676.392C384.868 677.48 386.66 678.76 388.004 680.232C388.9 681.256 389.604 682.408 390.116 683.688C390.628 684.968 390.884 686.344 390.884 687.816C390.884 691.336 389.86 694.472 387.812 697.224C385.828 699.912 383.076 702.056 379.556 703.656C376.036 705.192 372.004 705.96 367.46 705.96ZM415.732 706.056C411.828 706.056 408.532 705.256 405.844 703.656C403.156 702.056 401.108 699.72 399.7 696.648C398.292 693.512 397.588 689.736 397.588 685.32V653.64H417.076V683.688C417.076 685.096 417.3 686.28 417.748 687.24C418.26 688.2 418.964 688.936 419.86 689.448C420.756 689.96 421.844 690.216 423.124 690.216C424.084 690.216 424.948 690.088 425.716 689.832C426.548 689.512 427.252 689.064 427.828 688.488C428.404 687.912 428.852 687.272 429.172 686.568C429.492 685.8 429.652 685 429.652 684.168V653.64H449.14V705H431.284L430.132 694.632L433.78 693.48C433.076 695.912 431.828 698.088 430.036 700.008C428.308 701.864 426.196 703.336 423.7 704.424C421.204 705.512 418.548 706.056 415.732 706.056ZM485.733 727.08C481.125 727.08 476.549 726.44 472.005 725.16C467.525 723.88 463.845 722.216 460.965 720.168L467.589 707.112C468.997 708.008 470.469 708.776 472.005 709.416C473.541 710.056 475.141 710.536 476.805 710.856C478.533 711.176 480.357 711.336 482.277 711.336C485.285 711.336 487.717 710.92 489.573 710.088C491.429 709.32 492.773 708.072 493.605 706.344C494.501 704.616 494.949 702.408 494.949 699.72V692.04L499.269 692.424C498.757 694.6 497.637 696.52 495.909 698.184C494.181 699.848 492.037 701.16 489.477 702.12C486.917 703.08 484.197 703.56 481.317 703.56C476.773 703.56 472.741 702.536 469.221 700.488C465.765 698.44 463.013 695.592 460.965 691.944C458.981 688.232 457.989 683.88 457.989 678.888C457.989 673.704 458.981 669.16 460.965 665.256C462.949 661.288 465.637 658.184 469.029 655.944C472.485 653.704 476.421 652.584 480.837 652.584C482.757 652.584 484.581 652.776 486.309 653.16C488.037 653.544 489.637 654.088 491.109 654.792C492.581 655.432 493.893 656.232 495.045 657.192C496.197 658.152 497.125 659.208 497.829 660.36C498.597 661.512 499.109 662.76 499.365 664.104L495.429 664.968L496.485 653.64H514.533V700.008C514.533 704.296 513.861 708.104 512.517 711.432C511.237 714.824 509.349 717.672 506.853 719.976C504.357 722.344 501.317 724.104 497.733 725.256C494.213 726.472 490.213 727.08 485.733 727.08ZM486.213 689.64C488.197 689.64 489.861 689.224 491.205 688.392C492.613 687.56 493.669 686.376 494.373 684.84C495.077 683.24 495.429 681.32 495.429 679.08C495.429 676.84 495.077 674.92 494.373 673.32C493.669 671.72 492.613 670.504 491.205 669.672C489.861 668.84 488.197 668.424 486.213 668.424C484.229 668.424 482.565 668.84 481.221 669.672C479.877 670.504 478.853 671.72 478.149 673.32C477.445 674.92 477.093 676.84 477.093 679.08C477.093 681.32 477.445 683.24 478.149 684.84C478.853 686.376 479.877 687.56 481.221 688.392C482.565 689.224 484.229 689.64 486.213 689.64ZM532.35 727.08L545.118 696.936L545.31 704.808L521.214 653.64H542.91L550.014 670.728C550.782 672.52 551.422 674.216 551.934 675.816C552.51 677.416 552.926 678.92 553.182 680.328L551.262 682.056C551.518 681.352 551.902 680.264 552.414 678.792C552.926 677.256 553.502 675.496 554.142 673.512L560.862 653.64H582.558L560.19 705L551.166 727.08H532.35ZM613.917 705.96C608.349 705.96 603.389 704.808 599.037 702.504C594.685 700.2 591.261 697.064 588.765 693.096C586.269 689.064 585.021 684.456 585.021 679.272C585.021 674.088 586.269 669.512 588.765 665.544C591.261 661.512 594.685 658.344 599.037 656.04C603.389 653.736 608.349 652.584 613.917 652.584C619.485 652.584 624.413 653.736 628.701 656.04C633.053 658.344 636.445 661.512 638.877 665.544C641.373 669.512 642.621 674.088 642.621 679.272C642.621 684.456 641.373 689.064 638.877 693.096C636.445 697.064 633.053 700.2 628.701 702.504C624.413 704.808 619.485 705.96 613.917 705.96ZM613.917 689.64C615.645 689.64 617.181 689.192 618.525 688.296C619.933 687.4 621.021 686.184 621.789 684.648C622.557 683.048 622.941 681.256 622.941 679.272C622.941 677.224 622.557 675.432 621.789 673.896C621.021 672.296 619.933 671.048 618.525 670.152C617.181 669.256 615.645 668.808 613.917 668.808C612.125 668.808 610.525 669.256 609.117 670.152C607.773 671.048 606.685 672.296 605.853 673.896C605.085 675.432 604.701 677.224 604.701 679.272C604.701 681.256 605.085 683.048 605.853 684.648C606.685 686.184 607.773 687.4 609.117 688.296C610.525 689.192 612.125 689.64 613.917 689.64ZM595.869 643.752V632.232H631.773V643.752H595.869ZM650.316 685.992V668.712H687.564V685.992H650.316ZM716.679 705.96C711.111 705.96 706.247 705.128 702.087 703.464C697.991 701.736 694.791 699.592 692.487 697.032L703.815 687.336C705.863 689.128 708.199 690.472 710.823 691.368C713.511 692.2 715.751 692.616 717.543 692.616C718.183 692.616 718.727 692.584 719.175 692.52C719.687 692.392 720.071 692.232 720.327 692.04C720.647 691.784 720.871 691.528 720.999 691.272C721.191 691.016 721.287 690.696 721.287 690.312C721.287 689.352 720.775 688.648 719.751 688.2C719.175 687.944 718.215 687.624 716.871 687.24C715.591 686.856 713.895 686.408 711.783 685.896C709.287 685.256 706.983 684.456 704.871 683.496C702.823 682.536 701.063 681.416 699.591 680.136C698.055 678.728 696.839 677.128 695.943 675.336C695.111 673.544 694.695 671.528 694.695 669.288C694.695 666.664 695.303 664.328 696.519 662.28C697.735 660.232 699.399 658.504 701.511 657.096C703.623 655.624 705.991 654.504 708.615 653.736C711.239 652.968 713.927 652.584 716.679 652.584C719.815 652.584 722.727 652.904 725.415 653.544C728.167 654.12 730.727 654.984 733.095 656.136C735.527 657.224 737.735 658.536 739.719 660.072L729.831 671.112C728.743 670.216 727.463 669.352 725.991 668.52C724.583 667.688 723.079 667.016 721.479 666.504C719.943 665.928 718.503 665.64 717.159 665.64C716.455 665.64 715.847 665.704 715.335 665.832C714.887 665.896 714.503 666.056 714.183 666.312C713.863 666.504 713.607 666.76 713.415 667.08C713.287 667.336 713.223 667.656 713.223 668.04C713.223 668.552 713.383 669.032 713.703 669.48C714.023 669.928 714.535 670.312 715.239 670.632C715.815 670.888 716.775 671.24 718.119 671.688C719.527 672.136 721.575 672.744 724.263 673.512C727.143 674.344 729.671 675.304 731.847 676.392C734.087 677.48 735.879 678.76 737.223 680.232C738.119 681.256 738.823 682.408 739.335 683.688C739.847 684.968 740.103 686.344 740.103 687.816C740.103 691.336 739.079 694.472 737.031 697.224C735.047 699.912 732.295 702.056 728.775 703.656C725.255 705.192 721.223 705.96 716.679 705.96ZM772.631 705.96C766.679 705.96 761.559 704.808 757.271 702.504C752.983 700.2 749.687 697.064 747.383 693.096C745.079 689.064 743.927 684.456 743.927 679.272C743.927 675.432 744.567 671.88 745.847 668.616C747.127 665.352 748.919 662.536 751.223 660.168C753.591 657.736 756.343 655.88 759.479 654.6C762.679 653.256 766.167 652.584 769.943 652.584C773.719 652.584 777.143 653.256 780.215 654.6C783.351 655.88 786.039 657.736 788.279 660.168C790.519 662.536 792.215 665.352 793.367 668.616C794.583 671.88 795.127 675.432 794.999 679.272L794.903 683.304H754.679L752.471 674.184H779.447L777.623 676.104V674.376C777.623 673.16 777.303 672.104 776.663 671.208C776.087 670.248 775.255 669.512 774.167 669C773.079 668.488 771.799 668.232 770.327 668.232C768.471 668.232 766.903 668.616 765.623 669.384C764.343 670.152 763.351 671.24 762.647 672.648C762.007 674.056 761.687 675.752 761.687 677.736C761.687 680.04 762.167 682.056 763.127 683.784C764.151 685.512 765.623 686.856 767.543 687.816C769.527 688.776 771.959 689.256 774.839 689.256C776.759 689.256 778.391 689.032 779.735 688.584C781.143 688.072 782.615 687.272 784.151 686.184L793.079 698.76C790.711 700.616 788.375 702.056 786.071 703.08C783.831 704.104 781.591 704.84 779.351 705.288C777.175 705.736 774.935 705.96 772.631 705.96ZM804.305 705V653.64H823.793V705H804.305ZM814.097 644.328C810.641 644.328 807.921 643.528 805.937 641.928C804.017 640.328 803.057 638.056 803.057 635.112C803.057 632.424 804.049 630.216 806.033 628.488C808.017 626.76 810.705 625.896 814.097 625.896C817.553 625.896 820.241 626.696 822.161 628.296C824.145 629.896 825.137 632.168 825.137 635.112C825.137 637.8 824.145 640.008 822.161 641.736C820.177 643.464 817.489 644.328 814.097 644.328Z" fill="#FAB50A"/>
<path d="M675.8 279.8H694.7V339.35H675.8V279.8ZM618.2 289.25H753.8V306.5H618.2V289.25ZM675.8 198.8H694.7V222.8H675.8V198.8ZM622.4 216.05H749.45V233.15H622.4V216.05ZM650.9 232.25L669.2 236.45C662.15 257.45 648.95 275.45 633.8 286.55C630.65 283.25 623.15 277.25 618.95 274.4C633.8 265.4 645.5 250.1 650.9 232.25ZM708.65 232.55L726.8 236.3C719.9 257.15 706.4 273.5 690.5 283.4C687.5 280.1 680.3 273.95 676.1 271.25C691.7 263.15 703.4 249.5 708.65 232.55ZM650 258.05L660.2 246.65C666.95 251 676.55 257.45 681.2 261.8L670.55 274.55C666.35 269.9 656.9 262.85 650 258.05ZM704 259.85L715.85 247.85C726.8 254.6 742.55 264.95 750.2 272L737.45 285.65C730.55 278.6 715.25 267.35 704 259.85ZM619.4 478.45H753.2V493.15H619.4V478.45ZM619.7 411.1H752.6V425.95H619.7V411.1ZM625.85 437.95H746.9V452.05H625.85V437.95ZM633.35 458.65H739.85V471.7H633.35V458.65ZM676.85 445.15H694.7V527.5H676.85V445.15ZM663.8 386.5H680.6V418.15H663.8V386.5ZM691.55 386.5H708.65V417.1H691.55V386.5ZM673.55 485.05L687.65 491.35C673.4 506.95 649.4 519.7 626.3 525.7C623.9 521.35 618.65 514.45 614.75 510.7C637.4 506.35 661.25 496.45 673.55 485.05ZM698.3 484.6C710.45 496.45 733.85 505.75 757.25 509.65C753.2 513.4 747.8 520.9 745.1 525.85C721.4 519.85 698.45 507.1 684.35 490.15L698.3 484.6ZM726.05 387.7L744.95 392.2C740.15 400.45 735.05 408.55 731.15 414.1L716.6 409.6C720.05 403.45 723.95 394.3 726.05 387.7ZM706.25 419.95L725.3 424.3C721.25 431.5 717.35 438.1 714.2 442.9L698.9 438.55C701.6 433.15 704.75 425.5 706.25 419.95ZM630.5 392.5L645.95 387.25C650.3 393.7 655.25 402.7 657.35 408.55L641 414.4C639.35 408.55 634.55 399.4 630.5 392.5ZM649.55 426.1L666.95 423.4C669.5 427.6 672.35 433.45 673.55 437.5L655.25 440.65C654.35 436.75 651.8 430.45 649.55 426.1Z" fill="#FAB50A"/>
</g>
<defs>
<filter id="filter0_d_2364_229" x="0" y="0" width="1008" height="1112" filterUnits="userSpaceOnUse" color-interpolation-filters="sRGB">
<feFlood flood-opacity="0" result="BackgroundImageFix"/>
<feColorMatrix in="SourceAlpha" type="matrix" values="0 0 0 0 0 0 0 0 0 0 0 0 0 0 0 0 0 0 127 0" result="hardAlpha"/>
<feOffset/>
<feGaussianBlur stdDeviation="31"/>
<feComposite in2="hardAlpha" operator="out"/>
<feColorMatrix type="matrix" values="0 0 0 0 0 0 0 0 0 0 0 0 0 0 0 0 0 0 0.25 0"/>
<feBlend mode="normal" in2="BackgroundImageFix" result="effect1_dropShadow_2364_229"/>
<feBlend mode="normal" in="SourceGraphic" in2="effect1_dropShadow_2364_229" result="shape"/>
</filter>
</defs>
</svg>
