<svg width="1008" height="1112" viewBox="0 0 1008 1112" fill="none" xmlns="http://www.w3.org/2000/svg">
<g filter="url(#filter0_d_2358_171)">
<path fill-rule="evenodd" clip-rule="evenodd" d="M141 164.865C374.74 102.376 634.26 102.376 868 164.865C868 302.652 868 440.438 868 578.226C868 784.897 504.493 985.998 504.493 985.998C504.493 985.998 141 784.933 141 578.226C141 440.438 141 302.652 141 164.865Z" fill="#A63535"/>
<mask id="mask0_2358_171" style="mask-type:alpha" maskUnits="userSpaceOnUse" x="141" y="117" width="727" height="869">
<path fill-rule="evenodd" clip-rule="evenodd" d="M141 164.865C374.74 102.376 634.26 102.376 868 164.865C868 302.652 868 440.438 868 578.226C868 784.897 504.493 985.998 504.493 985.998C504.493 985.998 141 784.933 141 578.226C141 440.438 141 302.652 141 164.865Z" fill="#EB5757"/>
</mask>
<g mask="url(#mask0_2358_171)">
<path fill-rule="evenodd" clip-rule="evenodd" d="M644.569 333.462C644.569 289.799 702.419 277.957 719.656 316.701C724.3 327.144 724.328 339.119 719.653 349.639C714.503 361.231 699.608 371.025 685 371.025C672.95 371.025 663.631 368.607 655.099 359.911C649.858 354.573 644.569 343.884 644.569 333.458V333.462ZM659.588 253.128C657.029 251.413 656.04 247.924 644.91 241.23C636.355 236.082 626.767 231.922 617.342 228.359C614.226 227.178 610.011 226.019 606.511 225.326C595.894 223.225 572.304 220.727 561.398 225.963C561.665 229.192 565.277 232.101 566.941 234.866C568.952 238.208 570.317 241.381 572.374 244.456C565.027 243.845 549.847 232.835 549.847 247.344C549.847 258.768 556.102 275.856 561.725 285.163C567.962 295.491 574.346 305.189 583.922 312.656C585.466 313.862 586.8 314.957 588.463 316.202C590.235 317.527 591.668 318.447 593.507 319.828C595.185 321.086 596.301 322.074 598.046 323.38C599.656 324.589 601.874 325.661 602.411 327.678C595.097 329.382 585.065 339.706 580.384 345.514C575.178 351.969 571.145 355.357 566.13 363.038L559.335 374.156C553.926 383.282 543.912 403.739 546.386 414.368C554.291 414.368 558.552 411.631 565.448 411.48C562.662 416.747 557.362 426.822 557.362 432.286C557.362 435.508 581.166 435.753 585.662 435.753C602.257 435.753 627.493 427.272 640.424 418.883C643.821 416.681 652.252 411.227 656.127 410.324C658.162 414.172 659.918 417.861 661.403 422.383C664.141 430.722 668.25 439.391 672.767 446.847C673.982 448.854 674.673 450.259 676 452.283C678.316 455.807 680.496 459.676 683.413 462.779C692.114 472.027 706.073 487.759 718.505 490.658C722.026 485.397 723.436 477.867 725.089 471.24L727.167 464.072C727.677 466.257 728.294 467.484 729.147 469.607C731.611 475.738 733.081 479.853 739.297 483.146C741.526 478.929 744.443 475.099 746.314 470.513C747.219 468.289 748.273 466.089 749.189 463.563C750.066 461.134 750.729 459.033 751.649 456.201C757.163 439.205 757.244 417.9 755.001 399.814C754.173 393.123 752.583 385.923 752.583 379.118C755.355 379.177 758.346 380.063 761.266 380.252C782.01 381.606 799.384 378.552 815.54 370.448C824.634 365.887 833.156 360.662 840.243 353.558C843.472 350.322 843.84 348.961 843.84 342.711C838.406 341.445 834.612 338.958 830.088 336.245L826.877 334.256C825.501 333.215 826.807 334.221 825.936 333.465C832.763 333.314 840.221 329.646 846.153 328.265C845.398 325.036 843.036 322.874 841.036 320.668L821.981 305.059C817.397 301.861 812.662 299.374 807.463 297.045C798.86 293.189 790.855 290.712 780.746 288.523C778.124 287.954 775.924 287.666 773.382 287.223L757.848 285.427C755.197 284.964 752.976 283.821 750.273 283.758C750.596 282.367 755.468 275.177 758.823 262.84C763.99 243.845 765.057 221.169 757.788 202.841C755.429 196.889 751.722 188.034 746.226 184.355C741.972 185.493 733.324 198.15 728.902 201.116C728.902 194.998 730.056 188.684 730.056 182.043C730.056 180.05 729.628 179.805 729.477 177.998C722.454 177.998 715.56 181.839 710.075 185.17C700.822 190.789 692.125 197.669 685.66 206.397C669.507 228.194 667.064 245.643 664.372 248.669C662.859 250.369 661.374 251.934 659.591 253.131L659.588 253.128Z" fill="white"/>
<path fill-rule="evenodd" clip-rule="evenodd" d="M659.858 334.338C659.858 322.307 669.498 309.69 682.046 309.69C694.919 309.69 707.084 318.574 707.084 333.191C707.084 354.207 683.917 364.199 667.416 350.22C663.143 346.599 659.858 340.016 659.858 334.338ZM682.616 367.584C692.281 367.584 701.209 363.607 706.651 359.125C730.278 339.667 714.22 298.799 685.462 298.799C678.657 298.799 674.916 299.265 668.948 302.225C663.264 305.044 660.871 307.222 657.14 311.537C642.704 328.218 649.035 356.239 668.627 364.489C672.13 365.963 678 367.584 682.616 367.584Z" fill="white"/>
</g>
<path fill-rule="evenodd" clip-rule="evenodd" d="M504 74.9727C370.674 75.0183 237.357 91.9316 111 125.712V573.236C111 792.235 487.862 1005.38 504 1014.41V74.9727Z" fill="white"/>
<path fill-rule="evenodd" clip-rule="evenodd" d="M85 121.869L126.537 110.765C369.752 45.7425 639.248 45.7425 882.463 110.765L924 121.869V578.226C924 646.133 894.378 708.803 856.837 761.586C818.967 814.834 769.637 862.82 722.202 902.546C674.508 942.489 627.091 975.438 591.743 998.343C574.015 1009.83 559.188 1018.88 548.705 1025.1C543.461 1028.22 539.295 1030.63 536.386 1032.3C534.932 1033.13 533.791 1033.77 532.986 1034.23C532.584 1034.45 532.265 1034.63 532.034 1034.76L531.66 1034.97L531.626 1034.99C531.613 1034.99 531.601 1035 504.493 985.998C504.493 985.998 868 784.897 868 578.226V164.865C634.26 102.376 374.74 102.376 141 164.865V578.226C141 784.933 504.493 985.998 504.493 985.998C477.387 1035 477.375 1034.99 477.362 1034.99L477.237 1034.92L476.955 1034.76C476.723 1034.63 476.405 1034.45 476.002 1034.23C475.197 1033.77 474.057 1033.13 472.602 1032.3C469.694 1030.63 465.528 1028.22 460.283 1025.11C449.801 1018.88 434.974 1009.84 417.246 998.349C381.9 975.447 334.483 942.501 286.791 902.56C239.358 862.835 190.029 814.85 152.159 761.6C114.619 708.813 85 646.139 85 578.226V121.869ZM504.493 985.998L531.601 1035L504.495 1050L477.387 1035L504.493 985.998Z" fill="white"/>
<path d="M62 586.998C62 567.668 77.67 551.998 97 551.998H911C930.33 551.998 946 567.668 946 586.998V749.998C946 769.328 930.33 784.998 911 784.998H97C77.67 784.998 62 769.328 62 749.998V586.998Z" fill="white"/>
<path d="M272.018 716.998V672.326L272.914 678.598L236.69 627.398H267.41L295.058 667.078L277.778 666.694L302.738 627.398H332.69L298.002 680.006L299.922 671.302V716.998H272.018ZM353.283 718.15C347.566 718.15 342.488 716.657 338.051 713.67C333.614 710.598 330.115 706.417 327.555 701.126C324.995 695.75 323.715 689.606 323.715 682.694C323.715 675.697 324.952 669.553 327.427 664.262C329.987 658.886 333.486 654.705 337.923 651.718C342.446 648.646 347.651 647.11 353.539 647.11C356.611 647.11 359.427 647.537 361.987 648.39C364.547 649.243 366.808 650.438 368.771 651.974C370.734 653.51 372.44 655.302 373.891 657.35C375.342 659.313 376.579 661.446 377.603 663.75L372.355 663.622V648.518H397.827V716.998H371.715V700.23L377.475 700.742C376.622 703.217 375.427 705.521 373.891 707.654C372.44 709.787 370.691 711.622 368.643 713.158C366.595 714.694 364.291 715.931 361.731 716.87C359.171 717.723 356.355 718.15 353.283 718.15ZM360.707 697.03C363.182 697.03 365.272 696.475 366.979 695.366C368.771 694.257 370.094 692.635 370.947 690.502C371.886 688.369 372.355 685.766 372.355 682.694C372.355 679.622 371.886 677.019 370.947 674.886C370.094 672.667 368.771 671.003 366.979 669.894C365.272 668.785 363.182 668.23 360.707 668.23C358.232 668.23 356.142 668.785 354.435 669.894C352.728 671.003 351.406 672.667 350.467 674.886C349.614 677.019 349.187 679.622 349.187 682.694C349.187 685.766 349.614 688.369 350.467 690.502C351.406 692.635 352.728 694.257 354.435 695.366C356.142 696.475 358.232 697.03 360.707 697.03ZM441.182 697.798L428.382 681.67L459.998 648.518H493.79L441.182 697.798ZM415.71 716.998V622.278H441.694V716.998H415.71ZM462.302 716.998L439.518 684.87L457.694 671.814L491.998 716.998H462.302ZM523.622 718.406C518.417 718.406 514.022 717.339 510.438 715.206C506.854 713.073 504.123 709.958 502.246 705.862C500.369 701.681 499.43 696.646 499.43 690.758V648.518H525.414V688.582C525.414 690.459 525.713 692.038 526.31 693.318C526.993 694.598 527.931 695.579 529.126 696.262C530.321 696.945 531.771 697.286 533.478 697.286C534.758 697.286 535.91 697.115 536.934 696.774C538.043 696.347 538.982 695.75 539.75 694.982C540.518 694.214 541.115 693.361 541.542 692.422C541.969 691.398 542.182 690.331 542.182 689.222V648.518H568.166V716.998H544.358L542.822 703.174L547.686 701.638C546.747 704.881 545.083 707.782 542.694 710.342C540.39 712.817 537.574 714.779 534.246 716.23C530.918 717.681 527.377 718.406 523.622 718.406ZM583.775 691.654V668.614H633.439V691.654H583.775ZM649.219 716.998V648.518H675.203V716.998H649.219ZM662.275 636.102C657.667 636.102 654.04 635.035 651.395 632.902C648.835 630.769 647.555 627.739 647.555 623.814C647.555 620.23 648.878 617.286 651.523 614.982C654.168 612.678 657.752 611.526 662.275 611.526C666.883 611.526 670.467 612.593 673.027 614.726C675.672 616.859 676.995 619.889 676.995 623.814C676.995 627.398 675.672 630.342 673.027 632.646C670.382 634.95 666.798 636.102 662.275 636.102ZM693.585 716.998V648.518H717.649L718.929 662.342L713.425 663.878C714.364 660.635 716.028 657.777 718.417 655.302C720.892 652.742 723.836 650.737 727.249 649.286C730.662 647.835 734.289 647.11 738.129 647.11C743.249 647.11 747.601 648.177 751.185 650.31C754.769 652.443 757.457 655.601 759.249 659.782C761.126 663.878 762.065 668.87 762.065 674.758V716.998H736.081V676.934C736.081 675.057 735.782 673.478 735.185 672.198C734.588 670.918 733.692 669.937 732.497 669.254C731.302 668.571 729.894 668.23 728.273 668.23C726.993 668.23 725.798 668.443 724.689 668.87C723.665 669.211 722.769 669.766 722.001 670.534C721.233 671.302 720.636 672.155 720.209 673.094C719.782 674.033 719.569 675.099 719.569 676.294V716.998H706.641C703.398 716.998 700.668 716.998 698.449 716.998C696.316 716.998 694.694 716.998 693.585 716.998Z" fill="#A63535"/>
<path d="M322.3 173.898H361.15V189.648H322.3V173.898ZM303.7 233.448H370.75V249.798H303.7V233.448ZM350.65 173.898H368.65V206.598C368.65 209.298 368.65 210.648 369.1 211.248C369.55 211.698 370.3 211.848 371.2 211.848C371.95 211.848 373.45 211.848 374.5 211.848C375.25 211.848 376.15 211.698 376.75 211.398C377.35 211.098 377.95 210.198 378.25 208.098C378.55 205.998 378.7 201.348 378.85 195.498C381.85 198.348 387.85 201.198 392.35 202.698C391.9 208.998 391.3 216.048 390.1 219.048C388.9 222.048 387.1 223.998 384.25 225.348C382 226.548 377.95 227.298 375.25 227.298C372.4 227.298 368.5 227.298 366.1 227.298C362.05 227.298 357.4 225.948 354.7 223.398C351.85 220.548 350.65 217.248 350.65 207.198V173.898ZM364.45 233.448H367.9L371.2 232.848L383.35 238.098C370.9 277.548 341.65 298.998 305.2 309.948C303.1 305.448 298.75 298.398 295.3 294.798C327.55 286.848 354.85 266.748 364.45 236.448V233.448ZM327.55 248.898C338.5 271.848 361.45 287.898 394.15 294.048C390.1 297.798 385 305.148 382.45 310.098C347.8 301.848 325.3 282.798 311.5 253.698L327.55 248.898ZM313.9 173.898H331.3V189.798C331.3 203.898 328.45 221.298 313.75 232.398C310.6 229.398 302.8 224.298 298.75 222.348C312.25 212.748 313.9 199.698 313.9 189.498V173.898ZM287.5 200.448L303.55 206.898C292.45 225.348 274.75 244.848 259 256.998C257.35 253.098 252.4 243.798 249.55 239.898C263.35 230.298 278.5 215.298 287.5 200.448ZM282.85 168.798L299.95 175.698C289.75 189.648 274.3 204.648 259.9 213.798C258.1 209.748 253.75 202.398 251.05 198.648C262.9 191.298 276.4 178.848 282.85 168.798ZM272.2 235.248L288.85 218.598L289.75 219.048V309.498H272.2V235.248ZM291.7 375.398V384.998H352.6V375.398H291.7ZM273.7 361.448H371.8V399.098H273.7V361.448ZM284.8 434.798V441.098H358.45V434.798H284.8ZM284.8 452.648V459.098H358.45V452.648H284.8ZM284.8 416.948V423.248H358.45V416.948H284.8ZM266.8 404.648H377.2V471.248H266.8V404.648ZM295.9 468.248L311.95 479.498C299.95 486.548 280.45 493.898 265.15 497.498C261.85 493.748 255.85 488.048 251.5 484.598C267.25 481.148 286.45 474.098 295.9 468.248ZM328.9 480.398L344.65 468.998C360.55 473.198 380.65 480.248 393.1 485.048L377.35 497.798C365.65 492.398 344.95 484.898 328.9 480.398Z" fill="#A63535"/>
</g>
<defs>
<filter id="filter0_d_2358_171" x="0" y="-0.00195312" width="1008" height="1112" filterUnits="userSpaceOnUse" color-interpolation-filters="sRGB">
<feFlood flood-opacity="0" result="BackgroundImageFix"/>
<feColorMatrix in="SourceAlpha" type="matrix" values="0 0 0 0 0 0 0 0 0 0 0 0 0 0 0 0 0 0 127 0" result="hardAlpha"/>
<feOffset/>
<feGaussianBlur stdDeviation="31"/>
<feComposite in2="hardAlpha" operator="out"/>
<feColorMatrix type="matrix" values="0 0 0 0 0 0 0 0 0 0 0 0 0 0 0 0 0 0 0.25 0"/>
<feBlend mode="normal" in2="BackgroundImageFix" result="effect1_dropShadow_2358_171"/>
<feBlend mode="normal" in="SourceGraphic" in2="effect1_dropShadow_2358_171" result="shape"/>
</filter>
</defs>
</svg>
