<svg width="2737" height="955" viewBox="0 0 2737 955" fill="none" xmlns="http://www.w3.org/2000/svg">
<path d="M150.975 543.68C128.186 543.68 105.396 540.341 82.6068 533.661C60.1683 526.982 41.9368 518.368 27.9126 507.822L57.3635 448.761C64.7263 453.682 72.7901 457.901 81.5554 461.416C90.6712 465.283 100.137 468.272 109.954 470.381C119.772 472.491 129.764 473.545 139.932 473.545C157.812 473.545 172.362 470.908 183.582 465.635C194.801 460.362 203.216 452.276 208.825 441.378C214.435 430.831 217.24 417.472 217.24 401.301V354.368L233.543 357.004C231.089 368.606 224.954 379.153 215.136 388.645C205.67 398.137 193.925 405.871 179.901 411.847C165.877 417.472 150.975 420.284 135.198 420.284C109.954 420.284 87.3403 414.484 67.3557 402.882C47.7218 390.93 32.1199 374.582 20.5497 353.84C9.33047 332.747 3.7207 308.49 3.7207 281.069C3.7207 252.944 9.33047 228.159 20.5497 206.714C31.7693 184.918 47.1959 167.867 66.8297 155.563C86.4638 142.907 108.552 136.579 133.094 136.579C143.613 136.579 153.605 137.809 163.072 140.271C172.888 142.732 181.829 146.071 189.893 150.29C198.307 154.157 205.67 158.903 211.981 164.528C218.642 169.801 223.902 175.602 227.758 181.93C231.965 188.258 234.77 194.761 236.173 201.441L218.818 205.66L221.973 142.38H301.911V399.718C301.911 422.569 298.405 442.784 291.393 460.362C284.732 478.291 274.739 493.408 261.416 505.713C248.444 518.368 232.667 527.86 214.084 534.188C195.502 540.516 174.466 543.68 150.975 543.68ZM153.079 354.895C166.753 354.895 178.498 351.907 188.315 345.931C198.483 339.602 206.196 330.989 211.455 320.091C217.065 309.193 219.87 296.361 219.87 281.596C219.87 266.83 217.065 253.999 211.455 243.1C206.196 231.851 198.483 223.238 188.315 217.261C178.498 210.933 166.753 207.769 153.079 207.769C139.756 207.769 128.186 210.933 118.369 217.261C108.552 223.238 100.838 231.851 95.2291 243.1C89.9697 253.999 87.3403 266.83 87.3403 281.596C87.3403 296.361 89.9697 309.193 95.2291 320.091C100.838 330.989 108.552 339.602 118.369 345.931C128.186 351.907 139.756 354.895 153.079 354.895ZM478.062 427.14C454.571 427.14 433.535 420.988 414.953 408.683C396.721 396.027 382.171 378.801 371.302 357.004C360.433 334.857 354.999 309.896 354.999 282.123C354.999 253.647 360.433 228.511 371.302 206.714C382.171 184.918 397.071 167.867 416.005 155.563C434.937 142.907 456.5 136.579 480.691 136.579C494.014 136.579 506.11 138.513 516.979 142.38C528.198 146.247 538.015 151.696 546.43 158.728C554.844 165.407 562.032 173.317 567.992 182.457C573.952 191.246 578.335 200.738 581.14 210.933L563.785 208.824V142.38H647.402V422.394H562.207V354.895L581.14 354.368C578.335 364.211 573.777 373.528 567.466 382.317C561.155 391.105 553.442 398.839 544.326 405.519C535.21 412.199 525.043 417.472 513.823 421.339C502.604 425.206 490.683 427.14 478.062 427.14ZM501.202 355.95C514.174 355.95 525.393 352.962 534.86 346.985C544.326 341.009 551.689 332.571 556.948 321.673C562.207 310.423 564.837 297.24 564.837 282.123C564.837 267.006 562.207 253.999 556.948 243.1C551.689 231.851 544.326 223.238 534.86 217.261C525.393 210.933 514.174 207.769 501.202 207.769C488.58 207.769 477.536 210.933 468.069 217.261C458.953 223.238 451.766 231.851 446.507 243.1C441.248 253.999 438.619 267.006 438.619 282.123C438.619 297.24 441.248 310.423 446.507 321.673C451.766 332.571 458.953 341.009 468.069 346.985C477.536 352.962 488.58 355.95 501.202 355.95ZM802.64 340.13L771.615 276.85L902.041 142.38H1013.01L802.64 340.13ZM721.65 422.394V32.1673H805.799V422.394H721.65ZM910.982 422.394L812.632 294.779L872.06 248.374L1010.38 422.394H910.982ZM1143.48 428.194C1122.79 428.194 1105.09 423.8 1090.36 415.011C1075.99 405.871 1064.77 392.863 1056.71 375.989C1048.99 359.114 1045.14 338.899 1045.14 315.345V142.38H1129.81V303.744C1129.81 314.993 1131.56 324.661 1135.07 332.747C1138.57 340.833 1143.83 347.161 1150.84 351.731C1157.86 355.95 1166.27 358.059 1176.09 358.059C1183.45 358.059 1190.11 356.829 1196.07 354.368C1202.38 351.907 1207.64 348.567 1211.85 344.349C1216.4 339.778 1219.92 334.681 1222.37 329.056C1224.82 323.08 1226.05 316.576 1226.05 309.544V142.38H1310.72V422.394H1231.31L1227.63 364.915L1243.4 358.587C1239.19 371.945 1232.18 383.898 1222.37 394.445C1212.55 404.64 1200.81 412.902 1187.13 419.23C1173.46 425.206 1158.91 428.194 1143.48 428.194ZM1518.77 427.667C1487.92 427.667 1461.09 421.515 1438.3 409.211C1415.51 396.554 1397.81 379.504 1385.19 358.059C1372.57 336.263 1366.26 311.478 1366.26 283.705C1366.26 262.26 1369.76 242.573 1376.78 224.644C1383.78 206.714 1393.6 191.246 1406.23 178.239C1418.85 164.879 1433.75 154.684 1450.93 147.653C1468.46 140.271 1487.56 136.579 1508.25 136.579C1527.89 136.579 1545.76 140.095 1561.9 147.126C1578.38 154.157 1592.57 164.001 1604.49 176.656C1616.42 189.312 1625.53 204.254 1631.84 221.48C1638.15 238.706 1640.96 257.515 1640.26 277.905L1639.73 300.58H1417.27L1405.17 253.12H1571.36L1562.42 263.139V252.592C1561.72 243.804 1558.91 236.07 1554.01 229.39C1549.45 222.359 1543.31 216.91 1535.6 213.042C1527.89 209.176 1519.12 207.242 1509.3 207.242C1495.63 207.242 1483.88 210.054 1474.07 215.679C1464.6 220.953 1457.41 228.863 1452.51 239.409C1447.6 249.604 1445.14 262.26 1445.14 277.377C1445.14 292.846 1448.3 306.38 1454.61 317.982C1461.27 329.232 1470.74 338.021 1483.01 344.349C1495.63 350.676 1510.53 353.84 1527.71 353.84C1539.63 353.84 1550.15 352.083 1559.27 348.567C1568.73 345.051 1578.9 339.075 1589.77 330.638L1629.21 386.535C1618.34 396.027 1606.77 403.762 1594.5 409.738C1582.23 415.714 1569.61 420.109 1556.64 422.921C1544.02 426.085 1531.39 427.667 1518.77 427.667ZM1693.87 422.394V142.38H1773.81L1776.44 199.332L1759.61 205.66C1763.46 193.004 1770.3 181.578 1780.12 171.383C1790.28 160.837 1802.38 152.399 1816.41 146.071C1830.43 139.743 1845.16 136.579 1860.58 136.579C1881.62 136.579 1899.32 140.974 1913.7 149.762C1928.07 158.2 1938.94 171.032 1946.31 188.258C1953.67 205.133 1957.35 225.874 1957.35 250.483V422.394H1872.68V257.339C1872.68 246.089 1871.1 236.772 1867.95 229.39C1864.79 222.007 1859.88 216.558 1853.22 213.042C1846.91 209.176 1839.02 207.418 1829.55 207.769C1822.19 207.769 1815.35 209 1809.04 211.461C1802.73 213.57 1797.3 216.91 1792.74 221.48C1788.18 225.698 1784.5 230.621 1781.7 236.245C1779.24 241.87 1778.01 248.022 1778.01 254.702V422.394H1736.47C1726.65 422.394 1718.23 422.394 1711.23 422.394C1704.21 422.394 1698.43 422.394 1693.87 422.394ZM2121.83 427.667C2094.48 427.667 2070.29 423.273 2049.25 414.484C2028.57 405.695 2012.09 393.918 1999.82 379.153L2050.83 334.857C2061.7 345.755 2073.97 353.84 2087.64 359.114C2101.32 364.036 2114.29 366.496 2126.56 366.496C2131.47 366.496 2135.85 365.969 2139.71 364.915C2143.56 363.86 2146.72 362.453 2149.18 360.696C2151.98 358.587 2154.08 356.302 2155.49 353.84C2156.89 351.028 2157.59 347.864 2157.59 344.349C2157.59 337.317 2154.44 331.868 2148.13 328.001C2144.97 326.244 2139.71 324.134 2132.35 321.673C2124.98 319.212 2115.51 316.4 2103.95 313.236C2087.47 309.017 2073.09 304.095 2060.82 298.471C2048.9 292.494 2039.09 285.639 2031.37 277.905C2024.36 270.522 2018.93 262.436 2015.07 253.647C2011.21 244.507 2009.28 234.312 2009.28 223.062C2009.28 210.054 2012.26 198.277 2018.22 187.731C2024.53 177.184 2032.77 168.043 2042.94 160.309C2053.46 152.575 2065.38 146.775 2078.71 142.907C2092.38 138.689 2106.4 136.579 2120.77 136.579C2136.2 136.579 2150.93 138.337 2164.95 141.853C2178.97 145.368 2191.95 150.29 2203.87 156.618C2216.14 162.946 2227.01 170.505 2236.48 179.293L2192.3 228.863C2185.99 222.886 2178.8 217.613 2170.74 213.042C2163.02 208.121 2154.96 204.254 2146.55 201.441C2138.13 198.629 2130.42 197.223 2123.4 197.223C2118.14 197.223 2113.41 197.75 2109.2 198.805C2105.35 199.508 2102.02 200.914 2099.21 203.023C2096.41 204.781 2094.3 207.066 2092.9 209.878C2091.5 212.34 2090.8 215.328 2090.8 218.844C2090.8 222.359 2091.67 225.698 2093.43 228.863C2095.53 232.027 2098.34 234.663 2101.84 236.772C2105.35 238.882 2110.96 241.343 2118.67 244.155C2126.39 246.616 2136.91 249.78 2150.23 253.647C2166.71 258.217 2180.91 263.315 2192.82 268.94C2204.75 274.565 2214.21 281.245 2221.23 288.979C2226.83 294.955 2231.04 301.986 2233.85 310.072C2236.65 317.806 2238.06 326.244 2238.06 335.384C2238.06 353.313 2232.97 369.309 2222.8 383.371C2212.98 397.082 2199.31 407.98 2181.78 416.066C2164.25 423.8 2144.27 427.667 2121.83 427.667ZM2391.15 427.14C2367.66 427.14 2346.62 420.988 2328.04 408.683C2309.81 396.027 2295.26 378.801 2284.39 357.004C2273.52 334.857 2268.09 309.896 2268.09 282.123C2268.09 253.647 2273.52 228.511 2284.39 206.714C2295.26 184.918 2310.16 167.867 2329.09 155.563C2348.03 142.907 2369.59 136.579 2393.78 136.579C2407.11 136.579 2419.2 138.513 2430.07 142.38C2441.29 146.247 2451.11 151.696 2459.52 158.728C2467.93 165.407 2475.12 173.317 2481.08 182.457C2487.04 191.246 2491.43 200.738 2494.23 210.933L2476.87 208.824V142.38H2560.49V422.394H2475.3V354.895L2494.23 354.368C2491.43 364.211 2486.87 373.528 2480.55 382.317C2474.24 391.105 2466.53 398.839 2457.42 405.519C2448.3 412.199 2438.13 417.472 2426.91 421.339C2415.7 425.206 2403.77 427.14 2391.15 427.14ZM2414.29 355.95C2427.27 355.95 2438.48 352.962 2447.95 346.985C2457.42 341.009 2464.78 332.571 2470.04 321.673C2475.3 310.423 2477.93 297.24 2477.93 282.123C2477.93 267.006 2475.3 253.999 2470.04 243.1C2464.78 231.851 2457.42 223.238 2447.95 217.261C2438.48 210.933 2427.27 207.769 2414.29 207.769C2401.67 207.769 2390.63 210.933 2381.16 217.261C2372.04 223.238 2364.86 231.851 2359.6 243.1C2354.34 253.999 2351.71 267.006 2351.71 282.123C2351.71 297.24 2354.34 310.423 2359.6 321.673C2364.86 332.571 2372.04 341.009 2381.16 346.985C2390.63 352.962 2401.67 355.95 2414.29 355.95ZM2639.48 422.394V142.38H2723.63V422.394H2639.48ZM2681.56 87.01C2665.78 87.01 2653.33 83.3186 2644.22 75.9358C2635.45 68.2016 2631.07 57.3035 2631.07 43.2413C2631.07 30.5853 2635.63 20.2145 2644.74 12.1287C2653.86 4.04288 2666.13 0 2681.56 0C2697.33 0 2709.6 3.86711 2718.37 11.6013C2727.13 18.984 2731.52 29.5307 2731.52 43.2413C2731.52 56.2489 2726.96 66.7953 2717.84 74.8815C2709.08 82.9672 2696.98 87.01 2681.56 87.01ZM21.0801 949.726L3.7207 906.484L111.005 788.89C116.97 782.209 123.457 774.651 130.466 766.216C137.475 757.78 144.315 749.163 150.978 740.374C157.641 731.232 162.895 722.444 166.752 714.009C170.961 705.574 173.063 697.839 173.063 690.804C173.063 683.776 171.489 677.625 168.331 672.35C165.179 667.076 160.617 663.032 154.658 660.218C148.7 657.057 141.162 655.474 132.045 655.474C123.979 655.474 116.265 657.587 108.903 661.802C101.542 665.669 94.5263 671.82 87.8692 680.262C81.5584 688.697 75.5938 699.069 69.9875 711.372L3.7207 675.511C11.0823 655.121 21.4262 637.197 34.7525 621.727C48.425 605.906 64.3752 593.777 82.6092 585.34C100.837 576.551 120.298 572.156 140.986 572.156C162.725 572.508 182.356 577.254 199.885 586.394C217.415 595.183 231.263 607.664 241.431 623.834C251.951 639.657 257.211 658.288 257.211 679.732C257.211 687.114 256.337 694.848 254.581 702.936C252.826 711.018 250.196 719.46 246.691 728.248C243.186 736.683 238.455 745.825 232.49 755.667C226.884 765.162 220.045 775.181 211.985 785.723C203.918 796.272 194.449 807.521 183.583 819.476L99.9625 910.705L89.4424 870.63H273.514V949.726H21.0801ZM455.404 955C422.447 955 394.221 947.442 370.733 932.325C347.592 917.209 329.886 895.588 317.617 867.463C305.347 838.984 299.213 804.884 299.213 765.162C299.213 725.434 305.347 691.511 317.617 663.385C329.886 634.907 347.592 613.115 370.733 597.996C394.221 582.879 422.447 575.32 455.404 575.32C488.362 575.32 516.587 582.879 540.075 597.996C563.57 613.115 581.445 634.907 593.721 663.385C605.99 691.511 612.125 725.434 612.125 765.162C612.125 804.884 605.99 838.984 593.721 867.463C581.445 895.588 563.57 917.209 540.075 932.325C516.587 947.442 488.362 955 455.404 955ZM455.404 879.065C478.194 879.065 495.723 869.223 507.993 849.532C520.62 829.848 526.925 801.723 526.925 765.162C526.925 727.542 520.62 698.716 507.993 678.678C495.723 658.288 478.194 648.092 455.404 648.092C432.615 648.092 414.909 658.288 402.288 678.678C390.018 698.716 383.884 727.542 383.884 765.162C383.884 801.723 390.018 829.848 402.288 849.532C414.909 869.223 432.615 879.065 455.404 879.065ZM664.087 949.726L646.734 906.484L754.018 788.89C759.977 782.209 766.464 774.651 773.479 766.216C780.489 757.78 787.328 749.163 793.985 740.374C800.648 731.232 805.908 722.444 809.765 714.009C813.974 705.574 816.076 697.839 816.076 690.804C816.076 683.776 814.497 677.625 811.344 672.35C808.186 667.076 803.631 663.032 797.672 660.218C791.707 657.057 784.17 655.474 775.053 655.474C766.992 655.474 759.278 657.587 751.917 661.802C744.555 665.669 737.54 671.82 730.877 680.262C724.566 688.697 718.607 699.069 712.995 711.372L646.734 675.511C654.096 655.121 664.44 637.197 677.76 621.727C691.438 605.906 707.389 593.777 725.617 585.34C743.851 576.551 763.312 572.156 783.993 572.156C805.732 572.508 825.369 577.254 842.899 586.394C860.428 595.183 874.277 607.664 884.444 623.834C894.965 639.657 900.219 658.288 900.219 679.732C900.219 687.114 899.344 694.848 897.595 702.936C895.839 711.018 893.209 719.46 889.704 728.248C886.2 736.683 881.462 745.825 875.504 755.667C869.891 765.162 863.058 775.181 854.992 785.723C846.932 796.272 837.462 807.521 826.596 819.476L742.976 910.705L732.456 870.63H916.527V949.726H664.087ZM1072.11 955C1042.31 955 1016.18 948.849 993.745 936.546C971.654 923.89 951.495 902.269 933.267 871.683L997.426 830.025C1005.14 842.327 1013.03 852.17 1021.09 859.551C1029.51 866.933 1038.1 872.384 1046.86 875.898C1055.98 879.065 1065.44 880.648 1075.26 880.648C1085.08 880.648 1094.02 878.535 1102.08 874.32C1110.5 869.747 1117.16 863.419 1122.07 855.337C1127.32 847.249 1129.95 838.107 1129.95 827.911C1129.95 817.016 1127.68 807.874 1123.12 800.492C1118.91 792.758 1112.6 786.96 1104.19 783.092C1096.12 779.225 1086.31 777.288 1074.74 777.288C1069.48 777.288 1063.87 777.995 1057.9 779.395C1051.95 780.455 1045.64 782.033 1038.97 784.146C1032.31 786.253 1025.48 789.067 1018.46 792.581L999.005 740.374L1088.41 642.818L1112.6 656.004L959.033 652.837V577.43H1185.18L1201.48 610.125L1080 740.904L1058.96 716.116C1061.76 714.709 1066.32 713.479 1072.63 712.425C1079.29 711.018 1085.6 710.318 1091.57 710.318C1108.05 710.318 1123.47 713.308 1137.84 719.283C1152.22 725.258 1165.02 733.522 1176.24 744.065C1187.46 754.613 1196.22 767.093 1202.53 781.509C1208.84 795.571 1211.99 810.688 1211.99 826.858C1211.99 851.469 1205.68 873.437 1193.06 892.774C1180.79 911.758 1163.96 926.875 1142.58 938.124C1121.54 949.373 1098.05 955 1072.11 955Z" fill="#9A9A9A"/>
<mask id="mask0_1960_70" style="mask-type:alpha" maskUnits="userSpaceOnUse" x="0" y="0" width="2737" height="953">
<path d="M147.734 542.042C124.871 542.042 102.007 538.713 79.1432 532.053C56.6315 525.394 38.3407 516.807 24.2707 506.292L53.8176 447.409C61.2044 452.316 69.2945 456.522 78.0884 460.027C87.2339 463.882 96.731 466.862 106.58 468.964C116.429 471.068 126.454 472.119 136.655 472.119C154.594 472.119 169.191 469.49 180.448 464.233C191.703 458.975 200.145 450.914 205.773 440.049C211.401 429.534 214.215 416.215 214.215 400.092V353.301L230.572 355.93C228.109 367.496 221.954 378.011 212.105 387.474C202.607 396.938 190.824 404.649 176.754 410.607C162.684 416.215 147.734 419.019 131.906 419.019C106.58 419.019 83.892 413.236 63.8424 401.669C44.1445 389.753 28.4917 373.455 16.8838 352.775C5.62805 331.745 0 307.562 0 280.223C0 252.183 5.62805 227.473 16.8838 206.093C28.14 184.362 43.6169 167.363 63.3147 155.096C83.0127 142.478 105.173 136.169 129.795 136.169C140.348 136.169 150.373 137.396 159.87 139.849C169.719 142.303 178.688 145.633 186.779 149.839C195.221 153.694 202.607 158.426 208.939 164.034C215.622 169.291 220.898 175.074 224.767 181.383C228.988 187.692 231.803 194.176 233.21 200.836L215.798 205.041L218.964 141.952H299.162V398.515C299.162 421.297 295.645 441.451 288.61 458.975C281.927 476.851 271.902 491.922 258.535 504.189C245.521 516.807 229.692 526.27 211.049 532.579C192.407 538.888 171.302 542.042 147.734 542.042ZM149.845 353.827C163.564 353.827 175.347 350.847 185.196 344.889C195.397 338.58 203.135 329.993 208.411 319.128C214.039 308.262 216.853 295.469 216.853 280.749C216.853 266.028 214.039 253.234 208.411 242.369C203.135 231.154 195.397 222.566 185.196 216.608C175.347 210.299 163.564 207.145 149.845 207.145C136.479 207.145 124.871 210.299 115.022 216.608C105.173 222.566 97.4342 231.154 91.8066 242.369C86.53 253.234 83.892 266.028 83.892 280.749C83.892 295.469 86.53 308.262 91.8066 319.128C97.4342 329.993 105.173 338.58 115.022 344.889C124.871 350.847 136.479 353.827 149.845 353.827ZM475.887 425.853C452.32 425.853 431.214 419.72 412.572 407.453C394.281 394.834 379.683 377.66 368.779 355.93C357.875 333.849 352.423 308.964 352.423 281.275C352.423 252.884 357.875 227.824 368.779 206.093C379.683 184.362 394.632 167.363 413.627 155.096C432.621 142.478 454.254 136.169 478.525 136.169C491.891 136.169 504.026 138.097 514.93 141.952C526.187 145.808 536.035 151.241 544.478 158.251C552.919 164.91 560.13 172.796 566.11 181.909C572.09 190.671 576.486 200.135 579.3 210.299L561.889 208.196V141.952H645.779V421.122H560.306V353.827L579.3 353.301C576.486 363.115 571.914 372.403 565.582 381.166C559.251 389.928 551.512 397.638 542.367 404.298C533.221 410.957 523.021 416.215 511.765 420.07C500.509 423.926 488.549 425.853 475.887 425.853ZM499.102 354.879C512.117 354.879 523.373 351.899 532.87 345.941C542.367 339.982 549.754 331.57 555.03 320.705C560.306 309.489 562.944 296.345 562.944 281.275C562.944 266.203 560.306 253.234 555.03 242.369C549.754 231.154 542.367 222.566 532.87 216.608C523.373 210.299 512.117 207.145 499.102 207.145C486.439 207.145 475.359 210.299 465.862 216.608C456.716 222.566 449.505 231.154 444.23 242.369C438.953 253.234 436.315 266.203 436.315 281.275C436.315 296.345 438.953 309.489 444.23 320.705C449.505 331.57 456.716 339.982 465.862 345.941C475.359 351.899 486.439 354.879 499.102 354.879ZM801.523 339.106L770.396 276.017L901.247 141.952H1012.57L801.523 339.106ZM720.269 421.122V32.0723H804.692V421.122H720.269ZM910.217 421.122L811.547 293.892L871.169 247.627L1009.94 421.122H910.217ZM1143.47 426.905C1122.72 426.905 1104.96 422.524 1090.18 413.762C1075.76 404.649 1064.5 391.68 1056.42 374.857C1048.68 358.033 1044.81 337.879 1044.81 314.396V141.952H1129.76V302.83C1129.76 314.045 1131.51 323.684 1135.03 331.745C1138.55 339.807 1143.83 346.116 1150.86 350.672C1157.9 354.879 1166.34 356.981 1176.19 356.981C1183.57 356.981 1190.26 355.755 1196.23 353.301C1202.56 350.847 1207.84 347.518 1212.07 343.312C1216.64 338.756 1220.16 333.673 1222.62 328.066C1225.08 322.107 1226.31 315.623 1226.31 308.613V141.952H1311.26V421.122H1231.59L1227.9 363.816L1243.72 357.507C1239.5 370.826 1232.47 382.743 1222.62 393.258C1212.77 403.422 1200.99 411.658 1187.27 417.968C1173.55 423.926 1158.95 426.905 1143.47 426.905ZM1519.99 426.379C1489.03 426.379 1462.12 420.246 1439.26 407.979C1416.39 395.36 1398.63 378.362 1385.97 356.981C1373.31 335.251 1366.97 310.541 1366.97 282.851C1366.97 261.471 1370.49 241.843 1377.53 223.968C1384.56 206.093 1394.41 190.671 1407.08 177.703C1419.74 164.384 1434.69 154.22 1451.92 147.21C1469.51 139.849 1488.68 136.169 1509.43 136.169C1529.14 136.169 1547.07 139.674 1563.25 146.684C1579.79 153.694 1594.03 163.508 1605.99 176.126C1617.95 188.743 1627.09 203.64 1633.42 220.814C1639.76 237.988 1642.57 256.74 1641.87 277.068L1641.34 299.675H1418.16L1406.02 252.358H1572.75L1563.78 262.347V251.832C1563.08 243.071 1560.26 235.36 1555.34 228.7C1550.77 221.69 1544.61 216.258 1536.87 212.402C1529.14 208.547 1520.34 206.619 1510.49 206.619C1496.77 206.619 1484.99 209.423 1475.14 215.03C1465.64 220.288 1458.43 228.175 1453.51 238.689C1448.58 248.854 1446.12 261.471 1446.12 276.543C1446.12 291.964 1449.28 305.458 1455.62 317.025C1462.3 328.241 1471.8 337.003 1484.11 343.312C1496.77 349.621 1511.72 352.775 1528.96 352.775C1540.91 352.775 1551.47 351.023 1560.62 347.518C1570.11 344.013 1580.31 338.055 1591.22 329.643L1630.78 385.371C1619.88 394.834 1608.27 402.546 1595.97 408.504C1583.66 414.462 1570.99 418.844 1557.98 421.647C1545.31 424.802 1532.65 426.379 1519.99 426.379ZM1695.66 421.122V141.952H1775.85L1778.49 198.732L1761.61 205.041C1765.48 192.424 1772.34 181.032 1782.18 170.869C1792.39 160.354 1804.52 151.941 1818.59 145.633C1832.66 139.324 1847.44 136.169 1862.91 136.169C1884.02 136.169 1901.78 140.551 1916.2 149.313C1930.62 157.725 1941.53 170.518 1948.92 187.692C1956.3 204.516 1959.99 225.195 1959.99 249.73V421.122H1875.05V256.564C1875.05 245.349 1873.46 236.06 1870.3 228.7C1867.13 221.34 1862.21 215.907 1855.53 212.402C1849.2 208.547 1841.28 206.794 1831.78 207.145C1824.4 207.145 1817.53 208.371 1811.2 210.825C1804.87 212.928 1799.42 216.258 1794.85 220.814C1790.28 225.02 1786.58 229.927 1783.77 235.534C1781.31 241.143 1780.08 247.276 1780.08 253.936V421.122H1738.39C1728.55 421.122 1720.1 421.122 1713.07 421.122C1706.03 421.122 1700.23 421.122 1695.66 421.122ZM2125.01 426.379C2097.57 426.379 2073.3 421.998 2052.2 413.236C2031.44 404.473 2014.91 392.732 2002.6 378.011L2053.78 333.849C2064.68 344.714 2076.99 352.775 2090.71 358.033C2104.43 362.94 2117.44 365.393 2129.76 365.393C2134.68 365.393 2139.08 364.868 2142.95 363.816C2146.82 362.764 2149.98 361.362 2152.45 359.61C2155.26 357.507 2157.37 355.229 2158.78 352.775C2160.19 349.971 2160.89 346.817 2160.89 343.312C2160.89 336.302 2157.72 330.869 2151.39 327.014C2148.22 325.262 2142.95 323.158 2135.56 320.705C2128.18 318.251 2118.68 315.447 2107.07 312.293C2090.54 308.087 2076.12 303.18 2063.81 297.572C2051.84 291.614 2042 284.779 2034.26 277.068C2027.22 269.708 2021.77 261.647 2017.9 252.884C2014.03 243.771 2012.1 233.607 2012.1 222.391C2012.1 209.423 2015.09 197.681 2021.07 187.166C2027.4 176.652 2035.67 167.539 2045.87 159.828C2056.42 152.117 2068.38 146.334 2081.75 142.478C2095.46 138.273 2109.53 136.169 2123.95 136.169C2139.43 136.169 2154.2 137.922 2168.27 141.427C2182.34 144.932 2195.36 149.839 2207.32 156.147C2219.63 162.456 2230.53 169.992 2240.03 178.754L2195.71 228.175C2189.38 222.216 2182.17 216.958 2174.08 212.402C2166.34 207.495 2158.25 203.64 2149.81 200.836C2141.37 198.032 2133.63 196.63 2126.59 196.63C2121.31 196.63 2116.57 197.156 2112.34 198.207C2108.47 198.908 2105.13 200.31 2102.32 202.413C2099.51 204.165 2097.4 206.443 2095.99 209.247C2094.58 211.701 2093.88 214.68 2093.88 218.185C2093.88 221.69 2094.76 225.02 2096.52 228.175C2098.63 231.329 2101.44 233.958 2104.96 236.06C2108.47 238.164 2114.1 240.617 2121.84 243.421C2129.58 245.875 2140.14 249.029 2153.5 252.884C2170.03 257.441 2184.28 262.523 2196.24 268.131C2208.2 273.739 2217.69 280.398 2224.73 288.109C2230.36 294.067 2234.58 301.077 2237.39 309.139C2240.21 316.849 2241.62 325.262 2241.62 334.375C2241.62 352.249 2236.52 368.197 2226.31 382.217C2216.46 395.886 2202.74 406.751 2185.16 414.813C2167.57 422.524 2147.52 426.379 2125.01 426.379ZM2395.21 425.853C2371.64 425.853 2350.54 419.72 2331.9 407.453C2313.6 394.834 2299.01 377.66 2288.11 355.93C2277.2 333.849 2271.74 308.964 2271.74 281.275C2271.74 252.884 2277.2 227.824 2288.11 206.093C2299.01 184.362 2313.96 167.363 2332.95 155.096C2351.94 142.478 2373.58 136.169 2397.85 136.169C2411.22 136.169 2423.35 138.097 2434.25 141.952C2445.51 145.808 2455.36 151.241 2463.8 158.251C2472.24 164.91 2479.46 172.796 2485.43 181.909C2491.41 190.671 2495.81 200.135 2498.63 210.299L2481.21 208.196V141.952H2565.1V421.122H2479.63V353.827L2498.63 353.301C2495.81 363.115 2491.24 372.403 2484.9 381.166C2478.57 389.928 2470.84 397.638 2461.69 404.298C2452.55 410.957 2442.34 416.215 2431.09 420.07C2419.83 423.926 2407.87 425.853 2395.21 425.853ZM2418.43 354.879C2431.44 354.879 2442.7 351.899 2452.19 345.941C2461.69 339.982 2469.08 331.57 2474.36 320.705C2479.63 309.489 2482.27 296.345 2482.27 281.275C2482.27 266.203 2479.63 253.234 2474.36 242.369C2469.08 231.154 2461.69 222.566 2452.19 216.608C2442.7 210.299 2431.44 207.145 2418.43 207.145C2405.76 207.145 2394.69 210.299 2385.19 216.608C2376.04 222.566 2368.83 231.154 2363.55 242.369C2358.28 253.234 2355.64 266.203 2355.64 281.275C2355.64 296.345 2358.28 309.489 2363.55 320.705C2368.83 331.57 2376.04 339.982 2385.19 345.941C2394.69 351.899 2405.76 354.879 2418.43 354.879ZM2644.35 421.122V141.952H2728.77V421.122H2644.35ZM2686.56 86.7495C2670.73 86.7495 2658.25 83.0693 2649.1 75.7087C2640.31 67.9978 2635.91 57.1327 2635.91 43.1129C2635.91 30.4951 2640.48 20.1555 2649.63 12.0941C2658.77 4.03265 2671.09 0.00195312 2686.56 0.00195312C2702.39 0.00195312 2714.7 3.8574 2723.49 11.5683C2732.29 18.9287 2736.68 29.4436 2736.68 43.1129C2736.68 56.0812 2732.11 66.5958 2722.97 74.6577C2714.17 82.7189 2702.04 86.7495 2686.56 86.7495ZM17.4159 946.863L0 903.752L107.634 786.513C113.618 779.852 120.126 772.317 127.158 763.907C134.19 755.497 141.052 746.905 147.737 738.143C154.422 729.029 159.693 720.267 163.562 711.857C167.785 703.448 169.894 695.736 169.894 688.723C169.894 681.716 168.315 675.583 165.147 670.325C161.984 665.066 157.408 661.034 151.43 658.229C145.452 655.078 137.889 653.499 128.743 653.499C120.65 653.499 112.911 655.606 105.525 659.808C98.1399 663.664 91.1015 669.796 84.4227 678.212C78.0913 686.622 72.1073 696.963 66.4827 709.228L0 673.476C7.38563 653.147 17.7632 635.277 31.1329 619.854C44.85 604.08 60.8521 591.988 79.1456 583.576C97.4329 574.814 116.957 570.433 137.713 570.433C159.522 570.783 179.217 575.515 196.804 584.628C214.39 593.39 228.284 605.833 238.485 621.955C249.039 637.73 254.317 656.304 254.317 677.684C254.317 685.043 253.439 692.755 251.678 700.818C249.917 708.876 247.278 717.292 243.762 726.054C240.246 734.464 235.499 743.578 229.515 753.39C223.89 762.856 217.029 772.845 208.943 783.356C200.85 793.872 191.35 805.087 180.448 817.007L96.5554 907.96L86.001 868.006H270.672V946.863H17.4159ZM453.156 952.122C420.091 952.122 391.773 944.586 368.209 929.516C344.992 914.445 327.228 892.889 314.919 864.848C302.61 836.456 296.455 802.458 296.455 762.856C296.455 723.249 302.61 689.427 314.919 661.387C327.228 632.994 344.992 611.268 368.209 596.194C391.773 581.123 420.091 573.587 453.156 573.587C486.22 573.587 514.538 581.123 538.103 596.194C561.673 611.268 579.607 632.994 591.923 661.387C604.232 689.427 610.387 723.249 610.387 762.856C610.387 802.458 604.232 836.456 591.923 864.848C579.607 892.889 561.673 914.445 538.103 929.516C514.538 944.586 486.22 952.122 453.156 952.122ZM453.156 876.416C476.019 876.416 493.606 866.603 505.915 846.972C518.584 827.348 524.909 799.307 524.909 762.856C524.909 725.349 518.584 696.61 505.915 676.633C493.606 656.304 476.019 646.14 453.156 646.14C430.292 646.14 412.529 656.304 399.866 676.633C387.556 696.61 381.402 725.349 381.402 762.856C381.402 799.307 387.556 827.348 399.866 846.972C412.529 866.603 430.292 876.416 453.156 876.416ZM662.519 946.863L645.109 903.752L752.743 786.513C758.721 779.852 765.229 772.317 772.267 763.907C779.299 755.497 786.161 746.905 792.84 738.143C799.524 729.029 804.802 720.267 808.671 711.857C812.894 703.448 815.003 695.736 815.003 688.723C815.003 681.716 813.418 675.583 810.255 670.325C807.087 665.066 802.516 661.034 796.538 658.229C790.554 655.078 782.992 653.499 773.845 653.499C765.759 653.499 758.02 655.606 750.634 659.808C743.248 663.664 736.21 669.796 729.525 678.212C723.194 686.622 717.216 696.963 711.585 709.228L645.109 673.476C652.494 653.147 662.872 635.277 676.236 619.854C689.959 604.08 705.961 591.988 724.248 583.576C742.542 574.814 762.066 570.433 782.815 570.433C804.625 570.783 824.326 575.515 841.912 584.628C859.499 593.39 873.393 605.833 883.594 621.955C894.148 637.73 899.419 656.304 899.419 677.684C899.419 685.043 898.542 692.755 896.787 700.818C895.026 708.876 892.387 717.292 888.871 726.054C885.355 734.464 880.602 743.578 874.624 753.39C868.993 762.856 862.138 772.845 854.045 783.356C845.959 793.872 836.459 805.087 825.557 817.007L741.664 907.96L731.11 868.006H915.781V946.863H662.519ZM1071.87 952.122C1041.97 952.122 1015.76 945.989 993.251 933.724C971.088 921.106 950.863 899.55 932.575 869.056L996.944 827.524C1004.68 839.789 1012.6 849.602 1020.68 856.961C1029.13 864.32 1037.75 869.755 1046.54 873.258C1055.69 876.416 1065.18 877.994 1075.04 877.994C1084.88 877.994 1093.85 875.887 1101.94 871.686C1110.38 867.125 1117.06 860.817 1121.99 852.759C1127.26 844.695 1129.9 835.581 1129.9 825.417C1129.9 814.554 1127.62 805.44 1123.05 798.08C1118.82 790.369 1112.49 784.588 1104.05 780.732C1095.96 776.877 1086.11 774.946 1074.5 774.946C1069.23 774.946 1063.6 775.65 1057.62 777.047C1051.64 778.103 1045.31 779.676 1038.62 781.783C1031.95 783.884 1025.08 786.689 1018.05 790.193L998.528 738.143L1088.22 640.881L1112.49 654.027L958.425 650.87V575.69H1185.31L1201.66 608.287L1079.78 738.671L1058.67 713.958C1061.49 712.556 1066.06 711.329 1072.4 710.279C1079.08 708.876 1085.41 708.178 1091.39 708.178C1107.92 708.178 1123.4 711.159 1137.82 717.116C1152.24 723.072 1165.08 731.312 1176.34 741.823C1187.59 752.34 1196.39 764.781 1202.72 779.154C1209.05 793.174 1212.21 808.245 1212.21 824.366C1212.21 848.903 1205.88 870.805 1193.22 890.084C1180.91 909.01 1164.02 924.081 1142.57 935.296C1121.46 946.511 1097.9 952.122 1071.87 952.122Z" fill="#4961C3"/>
</mask>
<g mask="url(#mask0_1960_70)">
<path d="M179.767 795.445C504.536 795.445 767.814 533.106 767.814 209.494C767.814 -114.119 504.536 -376.458 179.767 -376.458C-145.003 -376.458 -408.28 -114.119 -408.28 209.494C-408.28 533.106 -145.003 795.445 179.767 795.445Z" fill="#5A5A5A"/>
<path d="M2015.23 1401.99C2213.54 1401.99 2374.31 1241.8 2374.31 1044.19C2374.31 846.586 2213.54 686.395 2015.23 686.395C1816.92 686.395 1656.16 846.586 1656.16 1044.19C1656.16 1241.8 1816.92 1401.99 2015.23 1401.99Z" fill="#5A5A5A"/>
<path d="M2223.81 -717.979L894.633 702.764L1066.16 862.094L2395.33 -558.648L2223.81 -717.979Z" fill="#5A5A5A"/>
<path d="M3117.23 -1051.47L1788.06 369.268L1959.58 528.598L3288.76 -892.144L3117.23 -1051.47Z" fill="#5A5A5A"/>
<path d="M2149.91 -1212.12L820.738 208.626L992.266 367.957L2321.44 -1052.79L2149.91 -1212.12Z" fill="#5A5A5A"/>
<path d="M3337.06 -511.134L2007.89 909.608L2179.42 1068.94L3508.59 -351.804L3337.06 -511.134Z" fill="#5A5A5A"/>
</g>
</svg>
